M48
;Layer_Color=9474304
;FILE_FORMAT=4:3
METRIC,LZ
;TYPE=PLATED
T4F00S00C0.100
T5F00S00C0.300
T6F00S00C0.600
T7F00S00C1.000
T9F00S00C1.100
T10F00S00C1.200
T11F00S00C1.500
;TYPE=NON_PLATED
T1F00S00C1.270
T2F00S00C3.000
T3F00S00C3.150
%
T04
X0224875Y0037325
X0224875Y0038125
X02292Y003905
X02292Y003985
X0229475Y004195
X0229475Y004275
X0229475Y0045275
X0229475Y0046075
X02295Y00486
X02295Y00494
X0240695Y0048535
Y0047265
X0243235Y0045995
Y0044725
X0241965
Y0043455
X0243235Y0042185
Y0040915
X0240695Y0039645
Y0038375
X0235075Y003565
X0235075Y003485
X0229375Y0034825
X0229375Y0035625
X0241965Y0049805
Y0051075
X0240695Y0052345
X021035Y0056375
X0209675Y0056375
X020995Y0058375
Y0059175
Y0059975
Y0060775
X020915
X020835
Y0061575
X020915
Y0062375
X020835
Y0063175
X020915
Y0063975
X020835
Y0064775
X020915
Y0065575
X020995
Y0064775
Y0063975
Y0063175
X020995Y0062375
Y0061575
X020915Y0059975
X020835
Y0059175
X020915
X020675
X020595
Y0059975
X020675
X020675Y0060775
X020675Y0061575
X020595Y0061575
X020515
X020515Y0060775
X020595Y0060775
Y0062375
X020515
Y0063175
X020595
Y0063975
X020515
X020435
Y0063175
X020355
X020275
X020195
X020195Y0063975
X020195Y0064775
X020275
X020355
Y0063975
Y0065575
X020435Y0065575
Y0064775
X0204237Y0066788
X020635Y0066725
X02069Y006745
X020675Y0065575
X020755Y0065575
X020675Y0063975
Y0063175
Y0062375
X020435Y0062375
X020355
X020435Y0061575
X020275Y0060775
X020195
X020115
Y0061575
X020195
X020195Y0059175
X020275
Y0058375
X020195
X020195Y0057575
X020115Y0057575
X020595Y0057575
X020595Y0056775
X020675Y0057575
X020115Y0063975
X020115Y0065575
X020195
X021035Y0067075
X021115
X021195Y0067397
X021235Y0065575
Y0064775
Y0063975
Y0063175
Y0062375
Y0061575
Y0060775
Y0059975
Y0059175
Y0058375
Y0057575
X021275Y0056375
X021355
X021195
X021115
X021075Y0058375
Y0059175
Y0059975
X021155Y0059975
Y0059175
Y0058375
X021395Y0058375
Y0059175
X021475
X021555
Y0059975
Y0060775
Y0061575
Y0062375
Y0063175
Y0063975
X021475
Y0063175
Y0062375
Y0061575
Y0060775
Y0059975
X021395
Y0060775
Y0061575
Y0062375
Y0063175
Y0063975
Y0064775
Y0065575
X021475Y0064775
X021555
X021555Y0065575
X021715Y0064775
X021795
X021875
Y0063975
X021795
Y0063175
X021875
X021955
Y0063975
X022035
X022115
Y0063175
X022035
Y0062375
X022115
X022195Y0062375
X022275
X022275Y0061575
X022195
Y0060775
X022275
X022115
X022035
X021955
Y0061575
Y0062375
X021875
X021795
X021715
Y0063175
Y0063975
Y0061575
X021795
X021875
Y0060775
X021795
X021715
Y0059975
Y0059175
X021795
X021875
Y0059975
X021795
X021955
X022035
Y0059175
X022115
X022195
X022275
Y0058375
X022195Y0059975
X022115Y0061575
X022035
X021955Y0059175
X0220337Y0057588
X022115Y0057575
X022115Y0064775
X022035
Y0065575
X022115
X022195
Y0064775
X022275
Y0063975
X022195
X021955Y0064775
X021075
Y0063975
Y0063175
X021155Y0062375
Y0061575
X021155Y0060775
X022695Y0074675
X022695Y0075475
X0228725Y007785
X0228725Y007865
X023055Y007405
X023055Y007325
X0241965Y0061235
Y0059965
Y0058695
Y0057425
X0240695
Y0056155
Y0053615
X0243235
Y0054885
T05
X0102Y0012425
X0105Y00124
X0106075Y001215
X010735
X0109125Y0012475
X01135Y00125
X01693Y001135
X0170175Y0012
X01872Y001
X02154Y0009875
X0219275Y0010725
X021435Y001298
X021593Y001552
X0216725Y001806
X021755Y00206
X0218206Y0022075
X02127Y00234
X0212775Y0024425
Y0025425
Y0026425
X02126Y0027425
X02125Y002845
X0212785Y0029376
X02127Y0030628
X02128Y0034175
X0214485Y0034102
X0215775Y0032425
X021665Y0031975
X02173Y0032825
X02181Y0033575
X0218939Y0034085
X022075Y003175
X0214375Y00435
X021235Y0043625
X0210875
X0211875Y00506
X0215625
X022275Y0051375
X0209825Y00506
X0209375Y0043625
X020045Y0040325
X019585Y0040675
X0194625Y0040775
X0191925Y0041925
X01911Y0041275
X0190325Y00421
X0190225Y0043425
X01926Y0042925
X01933Y0043925
X01889Y0041825
X018615Y0044575
X01852Y00453
X0184525Y004625
X0182913Y0050462
X018305Y0052175
X0179525Y0052325
Y0051325
X017905Y0050325
X0179475Y0047775
X0178475
X0177475
X0176475
X0175475
X0174475
X0173925Y0048825
Y0050825
Y0051825
X0170875Y0048275
X017185Y003774
X01751Y0031025
X017655Y003095
X0177825Y003105
Y0023
X0178775Y0023075
X0173975Y002285
X0172375Y00232
X017375Y00188
X0174875Y0018825
X01757Y0019502
X01765Y00202
X0176775Y0016725
X0178075Y0016625
X0177975Y001545
X0178825Y001455
X01798Y0014525
X0180638Y0015025
X0180825Y00187
X0181775Y0018675
X0185309Y0020176
X0186225Y00204
X0187175Y0021125
X0186225Y0029725
X0185309Y0030291
X0188325Y0032775
X0189Y003365
X01887Y0034575
X01895Y0035425
X018875Y0036225
X01916Y0036125
X0192Y0030475
X0202169Y002695
X0204775Y00263
X0204975Y00275
X0204175Y0025325
X0203275Y00242
X020045Y0050962
X0196825Y0050628
X0193553Y0051887
X0171725Y0017454
X017175Y0016225
X0171886Y001505
X0171325Y0013875
X0170975Y001285
X0169025Y003185
X01683Y0032725
X0164225Y00338
X0163475Y0034575
X0159Y003535
X0157975Y0036
X0156975Y00368
X015075Y00375
X015Y003835
X014925Y00392
X01474Y0042675
X01464Y004255
X0145525Y0042175
X0144825Y0041375
X0143975Y0040925
X01392Y00401
X013835Y0039225
X0131475Y003845
X0131975Y0047775
X0132025Y0050325
Y0051325
Y0052325
X0135725Y0048625
X01401Y004955
X0142775Y0050075
X014275Y0048825
X0142775Y005175
X0153925Y0051825
Y0050825
Y0048825
X0154475Y0047775
X0155475
X0156475
X0157475
X0158475
X0159475
X0159525Y0050325
Y0051325
Y0052325
X0168275Y0047875
X0167525Y004705
X0167475Y0046
X01673Y00451
X0166675Y0044275
X01654Y00444
X01664Y004295
X01678Y0042175
X0150675Y004535
X0130975Y0047775
X0129975
X0128975
X0127975
X0126975
X012735Y00487
X0126425Y0050825
Y0051825
X0121775Y005165
X0120425Y00513
Y00482
X0121775Y0047025
X011525Y0048725
X0111975Y0047775
X0110975
X0109975
X0108975
X0107975
X0106975
X0106425Y0048825
Y0050825
Y0051825
X0112025Y0052325
Y0051325
Y0050325
X01031Y0048025
X0100975Y0034475
X0101075Y003325
X0102775Y002925
X010365Y0030025
X0104475Y00307
X0102775Y0027125
X010365Y00262
X0104475Y002515
X0107442Y002205
X01082Y0021225
X0109025Y00204
X0109225Y002235
X011045Y00223
X011115Y0021375
X0112175Y002075
X01131Y001735
X0106Y0016975
X0105925Y001825
X01062Y001565
X0104Y0013275
X0102848Y0013273
X0109475Y0031575
X0110475Y0032125
X0111475Y003155
X011735Y00335
X0117887Y0034388
X0123625Y003415
X012415Y0035025
X012285Y0033
X0130025Y0036675
X0130475Y0037675
X0083Y004
X0072975Y004
X0069706Y0041373
X0067891Y0042025
X00572Y0043875
X0056375Y003955
X0063675Y0028325
X0069706
X008015
X008995
X0050371Y0029975
X00418Y0028579
X003285Y0028337
X00209Y002835
X0024525Y0018275
X0025712Y00395
X00236Y00441
X0018625Y0048475
X001375Y00394
X003465Y0040015
X0044515
X001164Y004425
X0019625Y0053925
X0023075Y00558
X002895Y0056525
X0022Y0063825
X00224Y0086775
Y0089275
Y0091775
X00199
X00174
X00149
X00124
Y0089275
Y0086775
X00149
Y0089275
X00174
X00199
Y0086775
X00174
X00249
Y0089275
Y0091775
X00274
Y0089275
Y0086775
X0051825Y0082975
X006075Y00821
X0072125Y0082825
X0076536Y0084125
X0079836Y0082725
X0079936Y00801
X0080175Y00784
X0079986Y0072225
Y00702
X0074511Y006915
X0072361
X0070486Y0069575
Y007495
X0075725Y007545
X0070475Y00634
X0068336Y0065339
X0085975Y0061625
X0101175Y00622
X0101175Y0061
X0101325Y005985
X0101725Y00588
X010185Y005775
X01019Y0056625
X0102013Y0055541
X0101912Y0054412
X0103923Y005425
X0106425Y0052825
X0108975Y0053375
X0108475Y0057775
X0107475Y0057475
X010715Y0056575
X0106825Y00585
X0110158Y0058475
X0113575Y00581
X01135Y0063225
X011195Y0063275
X0110212Y0063225
X0107345Y0063625
X0111583Y0066008
X01155Y0063325
X011585Y00543
X011805Y005275
X0121525Y0054725
X0122425Y0054025
X0122738Y00572
X0121775
X01251Y00598
X012505Y0061925
X0125525Y0063462
X0128475Y0065187
X0129775Y00639
X0130175Y0069125
X01308Y00756
X0129812Y0079113
X01285Y0079175
X01274Y0079425
X01263Y0079575
X0125625Y00803
X0127375Y00841
X0128475
X0129788Y0084037
X0129475Y0087675
X0130475Y0088225
X012325Y008615
X0122525Y00853
X012185Y00845
X01213Y0086075
X01217Y0087325
X01175Y007785
X0116725Y0076525
X0111475Y007545
X011095Y007445
X0109475Y00731
X0108325Y0072225
X010595Y0070875
X0103775Y007125
X010385Y00738
X0101325Y00731
X01012Y007445
X0101125Y007545
X0101275Y0076525
X01013Y007785
Y007915
Y00805
X010125Y0081825
X01013Y0083175
X0101275Y008455
Y008595
X010125Y0087175
Y00883
X0101275Y00895
X009925Y0089675
X0099425Y0088725
X0093225Y0084075
X0101125Y0069325
X0101131Y0068219
X0101175Y006705
X01012Y0065725
X0101175Y0064325
X0101098Y0052525
X0126425Y0052825
X0128975Y0053375
X0128475Y00566
X0122738Y0069963
X0121775Y0070825
X0118025Y00704
X0132421Y0065805
X0134689Y006515
X0133175Y006315
X01315Y0063275
X0133175Y005845
X0136025Y0059775
X0142825Y006165
X01436Y0062925
X0146125Y0065675
X0145225Y0066775
X01444Y0067625
X0145975Y00683
X0147Y006845
X0151775Y0070625
X0151875Y00752
X01519Y00767
X01529Y007695
X0153975Y0076775
X0154975Y0076325
X0155975Y0076775
X0157175Y007645
X015685Y0071825
X016265Y0069325
X016385Y0069375
X0165Y006935
X016695Y0069725
X01661Y0065802
X0166825Y0065025
X016755Y0064075
X0168325Y0063125
X0170119Y0059825
X016905Y00573
X016906Y00562
X01693Y0053615
X016365Y0052525
X0156475Y0053375
X0153925Y0052825
X0148175Y005375
X01401Y0052525
X0151375Y0060775
X015215Y00627
X0150975Y0063175
X0156325Y0063325
X01579Y0063225
X01597Y0063325
X0161275Y0063225
X0153225Y00598
X01529Y00799
X01519Y00793
X01489Y0083
X0145125
X014515Y008486
X01445Y008613
X0143325Y0085132
X0142375Y00851
X0140406Y0085075
X013995Y0083975
X01378Y008435
X013705Y00837
X013585Y0083725
X013335Y008445
X0132275Y0084425
X013405Y0085725
X0138775Y0086075
X01383Y0087781
X013755Y008985
X0138325Y00907
X0141725Y008695
X013215Y0089025
X01318Y0076275
X0137125Y00752
X01374Y00741
X01361Y007325
X0140725Y00726
X0140725Y0074325
X0140529Y007615
X0143275Y00739
Y00726
X014745Y007595
X0137375Y00784
X01371Y007945
X013585Y00795
X0150075Y00916
X015795Y0091425
X015895Y0090775
X0157025Y008687
X0164775Y00909
X016565Y009045
X0167225Y0088475
X0168225Y0088975
X0165Y0075925
X016385Y007595
X016265Y00759
X0171275Y0070175
X0171886Y006595
X01733Y006555
X01739Y006465
X01753Y0064625
X017585Y0063325
X0177025Y0064
X0178075Y006395
X0178925Y006485
X0179275Y0063325
X01797Y00661
X0180475Y006545
X0181275Y00649
X018575Y006255
X01842Y0059788
X0180475Y00579
X018045Y0056125
X01828Y00538
X0173925Y0052825
X017275Y00598
Y0061925
X0177475Y0058575
X0193553Y0055825
X0193553Y005385
X019425Y006135
X01951Y0062
X0195357Y0062903
X0197157
X0196875Y0060297
X0195775Y00605
X0195357Y0067922
X019765Y007
X0199425Y0072125
X0204325Y007225
X02056Y00723
X0207675Y0072247
X0209375Y0070125
X0210075Y00694
X020835Y00673
X0207025Y0056125
X0206775Y0054787
X0207725Y00547
X0209825Y0054373
X02057Y0055725
X0200375Y00561
X020215Y0080425
X02033Y0079402
X0195275Y0078925
Y007995
X01986Y00901
X0178975Y0089325
X0177975Y0089975
X0176975Y0090425
X017285Y0089525
X0171886Y0089575
X01709Y0089525
X0177275Y00785
X01783Y007724
X0211788Y0068738
X0212884Y0068775
X021355Y0066925
X0215925Y0066925
X02154Y0067775
X02202Y0067562
X0224475Y0067575
X022595Y0067525
X0230425Y006575
X0230675Y0058525
X02257Y005775
X02241Y005725
X0224575Y00532
X0220475Y00558
X0216069Y0055325
X0215225Y00547
X0214225Y00543
X02135Y0053325
X021265Y0055425
X0210925Y00555
X0224425Y0072375
X021155Y0092625
X0210525Y009245
X02121Y0113025
X0213825Y011215
X02153Y0114525
X02174Y01133
X021835Y0115875
X022125Y011505
X0223775Y01162
X0222975Y01174
X0226025Y01163
Y01138
Y01113
Y01088
X0228525
X0231025
X0233525
X0236025
X0238525
Y01113
X0236025
X0233525
X0231025
X0228525
Y01138
X0231025
X0233525
X0236025
X0238525
Y01163
X0236025
X0233525
X0231025
X0228525
Y01188
X0226025
Y01213
X0231025Y01188
X0233525
X0236025
X0238525
X019155Y0112275
X0190625Y011145
X018985Y010915
X0189625Y010765
X018915Y0106375
X018865Y01051
X01875Y01043
X0186075Y01033
X01824Y010265
X0179525Y010095
X0179525Y009995
Y009895
Y009795
X0179475Y00954
X0178475
X0177475
X0176475
X0175475
X0174475
X0173925Y009645
X0173933Y0098405
X0174083Y0099705
X0174075Y0100625
X0176475Y0101
X017085Y010165
X0171425Y0102475
X017405Y010985
X017585
X0177475
X01809Y010985
X01827
X0178675Y0115525
X0182975Y0096325
X0194692Y0102925
Y010475
X016995Y0100875
X0168225
X0167229Y010165
X01664Y009705
X0166375Y00954
X016265Y0096725
X0159525Y009795
Y009895
X015875Y0099575
X0159525Y010095
X0156475Y0101
X0153925Y010045
X0153925Y009945
Y009845
Y009645
X0154475Y00954
X0155475
X0156475
X0157475
X0158475
X0159475
X0156975Y009245
X0151575Y009305
X01509Y009235
X0148075Y00954
X0148075Y00971
X0146475Y009755
Y0094825
X0145625Y0100225
X014435Y01012
X0143325Y0101325
X0142325Y0102125
X013825Y010265
X013775Y0108375
X013455Y0109875
X013105Y010985
X0132025Y009995
Y009895
Y009795
X0131975Y00954
X0135369Y00966
X014885Y0100225
X0148125Y01012
X0151525Y01021
X0153675Y0108375
X0156925Y010985
X0158625
X016215Y010985
X016395
X0129475Y010985
X012625Y01084
X0126425Y010045
X0126425Y009945
Y009845
X0126625Y0096625
X0126975Y0095325
X0127975Y00954
X0128975
X0129975
X0130975
X0128975Y0101
X0123725Y0102475
X0122375Y0101675
X012115Y0100875
X0121075Y009715
Y0095
X011945Y0094075
Y00978
X01152Y00965
X0111975Y00954
X0110975
X0109975
X0108975
X0107975
X0106975
X0106425Y009645
Y009845
Y009945
X0106425Y010045
X0108975Y010115
X0109475Y0103875
X0110975
X0111975
X01138Y0104166
X011545Y010625
X011525Y0101375
X0112025Y009995
Y009895
Y009795
X0102475Y0098375
X0101929Y009995
X0101575Y0101675
X0098325Y01032
X00972Y00992
X0097136Y0097325
X0098325Y0093625
X0102125Y0092875
X0103125Y0093375
X010205Y009635
X0104375Y010625
Y01084
X01049Y0113775
X0106Y011475
X0106975Y01121
X0108175Y0112825
X01111Y011075
X0110825Y010975
X011235Y0109525
X0107625Y0104725
X0103225Y0116475
X010185Y01156
X0100725Y0118275
X009975Y0117525
X00274Y0111775
X00249
X00224
X00199
X00174
X00149
X00124
Y0109275
Y0106775
Y0104275
Y0101775
Y0099275
Y0096775
Y0094275
X00149
Y0096775
Y0099275
Y0101775
Y0104275
Y0106775
Y0109275
X00174
X00199
X00224
X00249
X00274
Y0106775
X00249
X00224
X00199
X00174
Y0104275
X00199
X00224
X00249
X00274
Y0101775
X00249
X00224
X00199
X00174
Y0099275
X00199
X00224
X00249
X00274
Y0096775
X00249
X00224
X00199
X00174
Y0094275
X00199
X00224
X00249
X00274
T06
X0132225Y0014825
X0133825
X0135425
X0137025
X0138625
X0140225
X0141825
X0143425
X0145025
X0146625
X0148225
X0149825
X0151425
X0153025
X0154625
X0156225
X0157825
X0159425
X0161025
X0162625
X0164225
X0165825
X0167425
X0166625Y0015875
X0165025
X0163425
X0161825
X0160225
X0158625
X0157025
X0155425
X0153825
X0152225
X0150625
X0149025
X0147425
X0145825
X0144225
X0142625
X0141025
X0139425
X0137825
X0136225
X0134625
X0133025
X0131425
X0132225Y0016975
X0133825
X0135425
X0137025
X0138625
X0140225
X0141825
X0143425
X0145025
X0146625
X0148225
X0149825
X0151425
X0153025
X0154625
X0156225
X0157825
X0159425
X0161025
X0162625
X0164225
X0165825
X0167425
X0166625Y0018025
X0165025
X0163425
X0161825
X0160225
X0158625
X0157025
X0155425
X0153825
X0152225
X0150625
X0149025
X0147425
X0145825
X0144225
X0142625
X0141025
X0139425
X0137825
X0136225
X0134625
X0133025
X0131425
Y0023025
X0133025
X0134625
X0136225
X0137825
X0139425
X0141025
X0142625
X0144225
X0145825
X0147425
X0149025
X0150625
X0152225
X0153825
X0155425
X0157025
X0158625
X0160225
X0161825
X0163425
X0165025
X0166625
X0167425Y0024075
X0165825
X0164225
X0162625
X0161025
X0159425
X0157825
X0156225
X0154625
X0153025
X0151425
X0149825
X0148225
X0146625
X0145025
X0143425
X0141825
X0140225
X0138625
X0137025
X0135425
X0133825
X0132225
X0131425Y0025175
X0133025
X0134625
X0136225
X0137825
X0139425
X0141025
X0142625
X0144225
X0145825
X0147425
X0149025
X0150625
X0152225
X0153825
X0155425
X0157025
X0158625
X0160225
X0161825
X0163425
X0165025
X0166625
X0167425Y0026225
X0165825
X0164225
X0162625
X0161025
X0159425
X0157825
X0156225
X0154625
X0153025
X0151425
X0149825
X0148225
X0146625
X0145025
X0143425
X0141825
X0140225
X0138625
X0137025
X0135425
X0133825
X0132225
X0130625
X0129025
X0127425
X0125825
X0124225
X0122625
X0121025
X0119425
X0117825
X0116225
X0117025Y0025175
X0118625
X0120225
X0121825
X0123425
X0125025
X0126625
X0128225
X0129825
X0129025Y0024075
X0127425
X0125825
X0124225
X0122625
X0121025
X0119425
X0117825
X0116225
X0117025Y0023025
X0118625
X0120225
X0121825
X0123425
X0125025
X0126625
X0128225
X0129825
X0130625Y0024075
X0129825Y0018025
X0128225
X0126625
X0125025
X0123425
X0121825
X0120225
X0118625
X0117025
X0117825Y0016975
X0116225
X0117025Y0015875
X0118625
X0120225
X0121825
X0123425
X0125025
X0126625
X0128225
X0129825
X0129025Y0014825
X0127425
X0125825
X0124225
X0122625
X0121025
X0119425
X0117825
X0116225
X0119425Y0016975
X0121025
X0122625
X0124225
X0125825
X0127425
X0129025
X0130625
Y0014825
T07
X002828Y0047875
X003082
X0029645Y0062625
X0027105
T09
X0194565Y0002125
X0197105
X0199645
X0202185
X0205675
X0208215
X0189175Y001083
X0210755Y0002125
X0213295
X024805Y00079
Y001044
Y001298
Y001552
Y001806
Y00206
Y002314
Y002568
Y002822
Y003076
X0189175Y003115
Y002861
Y002607
Y002353
Y002099
Y001845
Y001591
Y001337
X0066Y00523
X006346
X006092
X005838
X005584
X00533
X005076
X004822
X004568
X004314
X0049118Y0064602
Y0067142
Y0069682
Y0072222
Y0074762
Y0077302
Y0079842
Y0082382
X0086436Y008335
Y008081
Y007827
Y007573
Y007319
Y007065
X0183435Y007089
Y007343
Y007597
Y007851
X0185975
Y008105
X0183435
Y008359
X0185975
Y008613
X0183435
Y008867
X0185975
Y007597
Y007343
Y007089
Y006835
X0183435
Y006581
X0185975
X0211255Y012235
X0213795
X0216335
X0208715
X0206175
X0203635
X0200015
X0197475
X0194935
X0097731Y0119975
X0095191
X0092651
Y0117435
X0095191
X0097731
X0090111
Y0119975
X0087571
Y0117435
X0085031
Y0119975
X0082491
Y0117435
X0079951
Y0119975
X0050521Y012015
Y011761
X0047981
Y012015
X0045441
Y011761
X0042901
X0040361
X0037821
X0035281
X0032741
Y012015
X0035281
X0037821
X0040361
X0042901
T10
X00604Y0033985
Y0036525
Y0039065
X0077
Y0036525
Y0033985
X0086825
Y0036525
Y0039065
X004854Y0039065
Y0036525
Y0033985
X0038675
Y0036525
Y0039065
X0029725Y0039165
Y0036625
Y0034085
X0017765Y0033985
Y0036525
Y0039065
T11
X002275Y000505
X002775
X0219275Y0005125
X0224275
X023115
X023615
X01486Y0120075
X01436
T01
X0239425Y0035314
X0242475Y0089696
T02
X0013Y0003
X0247
Y0122
X0013
T03
X0174825Y0015025
Y0026025
X0108825
Y0015025
M30
