G04 Layer_Color=8388736*
%FSLAX43Y43*%
%MOMM*%
G71*
G01*
G75*
%ADD65O,1.753X0.503*%
%ADD66O,0.503X1.753*%
%ADD67R,1.203X1.703*%
%ADD68R,2.403X1.703*%
%ADD69R,2.403X4.003*%
%ADD70R,0.653X1.653*%
%ADD71R,1.703X1.203*%
%ADD72R,1.103X1.103*%
%ADD73R,0.803X1.253*%
%ADD74O,0.803X2.303*%
%ADD75O,1.753X0.553*%
%ADD76R,3.303X3.303*%
%ADD77R,0.453X0.803*%
%ADD78R,0.803X0.453*%
%ADD79C,0.540*%
%ADD80C,3.353*%
%ADD81C,1.203*%
%ADD82C,1.473*%
%ADD83C,2.203*%
%ADD84R,2.203X2.203*%
%ADD85R,2.203X2.203*%
%ADD86O,3.203X2.203*%
%ADD87R,3.203X2.203*%
%ADD88C,3.203*%
%ADD89R,3.203X3.203*%
%ADD90C,1.803*%
%ADD91R,1.803X1.803*%
%ADD92R,1.903X1.903*%
%ADD93C,1.903*%
%ADD94R,6.403X2.203*%
%ADD95R,2.203X6.403*%
%ADD96C,0.903*%
%ADD97C,0.653*%
D65*
X113350Y95450D02*
D03*
Y95950D02*
D03*
Y96450D02*
D03*
Y96950D02*
D03*
Y97450D02*
D03*
Y97950D02*
D03*
Y98450D02*
D03*
Y98950D02*
D03*
Y99450D02*
D03*
Y99950D02*
D03*
Y100450D02*
D03*
Y100950D02*
D03*
X105100D02*
D03*
Y100450D02*
D03*
Y99950D02*
D03*
Y99450D02*
D03*
Y98950D02*
D03*
Y98450D02*
D03*
Y97950D02*
D03*
Y97450D02*
D03*
Y96950D02*
D03*
Y96450D02*
D03*
Y95950D02*
D03*
Y95450D02*
D03*
X180850D02*
D03*
Y95950D02*
D03*
Y96450D02*
D03*
Y96950D02*
D03*
Y97450D02*
D03*
Y97950D02*
D03*
Y98450D02*
D03*
Y98950D02*
D03*
Y99450D02*
D03*
Y99950D02*
D03*
Y100450D02*
D03*
Y100950D02*
D03*
X172600D02*
D03*
Y100450D02*
D03*
Y99950D02*
D03*
Y99450D02*
D03*
Y98950D02*
D03*
Y98450D02*
D03*
Y97950D02*
D03*
Y97450D02*
D03*
Y96950D02*
D03*
Y96450D02*
D03*
Y95950D02*
D03*
Y95450D02*
D03*
X160850D02*
D03*
Y95950D02*
D03*
Y96450D02*
D03*
Y96950D02*
D03*
Y97450D02*
D03*
Y97950D02*
D03*
Y98450D02*
D03*
Y98950D02*
D03*
Y99450D02*
D03*
Y99950D02*
D03*
Y100450D02*
D03*
Y100950D02*
D03*
X152600D02*
D03*
Y100450D02*
D03*
Y99950D02*
D03*
Y99450D02*
D03*
Y98950D02*
D03*
Y98450D02*
D03*
Y97950D02*
D03*
Y97450D02*
D03*
Y96950D02*
D03*
Y96450D02*
D03*
Y95950D02*
D03*
Y95450D02*
D03*
X133350D02*
D03*
Y95950D02*
D03*
Y96450D02*
D03*
Y96950D02*
D03*
Y97450D02*
D03*
Y97950D02*
D03*
Y98450D02*
D03*
Y98950D02*
D03*
Y99450D02*
D03*
Y99950D02*
D03*
Y100450D02*
D03*
Y100950D02*
D03*
X125100D02*
D03*
Y100450D02*
D03*
Y99950D02*
D03*
Y99450D02*
D03*
Y98950D02*
D03*
Y98450D02*
D03*
Y97950D02*
D03*
Y97450D02*
D03*
Y96950D02*
D03*
Y96450D02*
D03*
Y95950D02*
D03*
Y95450D02*
D03*
X180850Y47825D02*
D03*
Y48325D02*
D03*
Y48825D02*
D03*
Y49325D02*
D03*
Y49825D02*
D03*
Y50325D02*
D03*
Y50825D02*
D03*
Y51325D02*
D03*
Y51825D02*
D03*
Y52325D02*
D03*
Y52825D02*
D03*
Y53325D02*
D03*
X172600D02*
D03*
Y52825D02*
D03*
Y52325D02*
D03*
Y51825D02*
D03*
Y51325D02*
D03*
Y50825D02*
D03*
Y50325D02*
D03*
Y49825D02*
D03*
Y49325D02*
D03*
Y48825D02*
D03*
Y48325D02*
D03*
Y47825D02*
D03*
X160850D02*
D03*
Y48325D02*
D03*
Y48825D02*
D03*
Y49325D02*
D03*
Y49825D02*
D03*
Y50325D02*
D03*
Y50825D02*
D03*
Y51325D02*
D03*
Y51825D02*
D03*
Y52325D02*
D03*
Y52825D02*
D03*
Y53325D02*
D03*
X152600D02*
D03*
Y52825D02*
D03*
Y52325D02*
D03*
Y51825D02*
D03*
Y51325D02*
D03*
Y50825D02*
D03*
Y50325D02*
D03*
Y49825D02*
D03*
Y49325D02*
D03*
Y48825D02*
D03*
Y48325D02*
D03*
Y47825D02*
D03*
X133350D02*
D03*
Y48325D02*
D03*
Y48825D02*
D03*
Y49325D02*
D03*
Y49825D02*
D03*
Y50325D02*
D03*
Y50825D02*
D03*
Y51325D02*
D03*
Y51825D02*
D03*
Y52325D02*
D03*
Y52825D02*
D03*
Y53325D02*
D03*
X125100D02*
D03*
Y52825D02*
D03*
Y52325D02*
D03*
Y51825D02*
D03*
Y51325D02*
D03*
Y50825D02*
D03*
Y50325D02*
D03*
Y49825D02*
D03*
Y49325D02*
D03*
Y48825D02*
D03*
Y48325D02*
D03*
Y47825D02*
D03*
X113350D02*
D03*
Y48325D02*
D03*
Y48825D02*
D03*
Y49325D02*
D03*
Y49825D02*
D03*
Y50325D02*
D03*
Y50825D02*
D03*
Y51325D02*
D03*
Y51825D02*
D03*
Y52325D02*
D03*
Y52825D02*
D03*
Y53325D02*
D03*
X105100D02*
D03*
Y52825D02*
D03*
Y52325D02*
D03*
Y51825D02*
D03*
Y51325D02*
D03*
Y50825D02*
D03*
Y50325D02*
D03*
Y49825D02*
D03*
Y49325D02*
D03*
Y48825D02*
D03*
Y48325D02*
D03*
Y47825D02*
D03*
D66*
X111975Y102325D02*
D03*
X111475D02*
D03*
X110975D02*
D03*
X110475D02*
D03*
X109975D02*
D03*
X109475D02*
D03*
X108975D02*
D03*
X108475D02*
D03*
X107975D02*
D03*
X107475D02*
D03*
X106975D02*
D03*
X106475D02*
D03*
Y94075D02*
D03*
X106975D02*
D03*
X107475D02*
D03*
X107975D02*
D03*
X108475D02*
D03*
X108975D02*
D03*
X109475D02*
D03*
X109975D02*
D03*
X110475D02*
D03*
X110975D02*
D03*
X111475D02*
D03*
X111975D02*
D03*
X179475Y102325D02*
D03*
X178975D02*
D03*
X178475D02*
D03*
X177975D02*
D03*
X177475D02*
D03*
X176975D02*
D03*
X176475D02*
D03*
X175975D02*
D03*
X175475D02*
D03*
X174975D02*
D03*
X174475D02*
D03*
X173975D02*
D03*
Y94075D02*
D03*
X174475D02*
D03*
X174975D02*
D03*
X175475D02*
D03*
X175975D02*
D03*
X176475D02*
D03*
X176975D02*
D03*
X177475D02*
D03*
X177975D02*
D03*
X178475D02*
D03*
X178975D02*
D03*
X179475D02*
D03*
X159475Y102325D02*
D03*
X158975D02*
D03*
X158475D02*
D03*
X157975D02*
D03*
X157475D02*
D03*
X156975D02*
D03*
X156475D02*
D03*
X155975D02*
D03*
X155475D02*
D03*
X154975D02*
D03*
X154475D02*
D03*
X153975D02*
D03*
Y94075D02*
D03*
X154475D02*
D03*
X154975D02*
D03*
X155475D02*
D03*
X155975D02*
D03*
X156475D02*
D03*
X156975D02*
D03*
X157475D02*
D03*
X157975D02*
D03*
X158475D02*
D03*
X158975D02*
D03*
X159475D02*
D03*
X131975Y102325D02*
D03*
X131475D02*
D03*
X130975D02*
D03*
X130475D02*
D03*
X129975D02*
D03*
X129475D02*
D03*
X128975D02*
D03*
X128475D02*
D03*
X127975D02*
D03*
X127475D02*
D03*
X126975D02*
D03*
X126475D02*
D03*
Y94075D02*
D03*
X126975D02*
D03*
X127475D02*
D03*
X127975D02*
D03*
X128475D02*
D03*
X128975D02*
D03*
X129475D02*
D03*
X129975D02*
D03*
X130475D02*
D03*
X130975D02*
D03*
X131475D02*
D03*
X131975D02*
D03*
X179475Y54700D02*
D03*
X178975D02*
D03*
X178475D02*
D03*
X177975D02*
D03*
X177475D02*
D03*
X176975D02*
D03*
X176475D02*
D03*
X175975D02*
D03*
X175475D02*
D03*
X174975D02*
D03*
X174475D02*
D03*
X173975D02*
D03*
Y46450D02*
D03*
X174475D02*
D03*
X174975D02*
D03*
X175475D02*
D03*
X175975D02*
D03*
X176475D02*
D03*
X176975D02*
D03*
X177475D02*
D03*
X177975D02*
D03*
X178475D02*
D03*
X178975D02*
D03*
X179475D02*
D03*
X159475Y54700D02*
D03*
X158975D02*
D03*
X158475D02*
D03*
X157975D02*
D03*
X157475D02*
D03*
X156975D02*
D03*
X156475D02*
D03*
X155975D02*
D03*
X155475D02*
D03*
X154975D02*
D03*
X154475D02*
D03*
X153975D02*
D03*
Y46450D02*
D03*
X154475D02*
D03*
X154975D02*
D03*
X155475D02*
D03*
X155975D02*
D03*
X156475D02*
D03*
X156975D02*
D03*
X157475D02*
D03*
X157975D02*
D03*
X158475D02*
D03*
X158975D02*
D03*
X159475D02*
D03*
X131975Y54700D02*
D03*
X131475D02*
D03*
X130975D02*
D03*
X130475D02*
D03*
X129975D02*
D03*
X129475D02*
D03*
X128975D02*
D03*
X128475D02*
D03*
X127975D02*
D03*
X127475D02*
D03*
X126975D02*
D03*
X126475D02*
D03*
Y46450D02*
D03*
X126975D02*
D03*
X127475D02*
D03*
X127975D02*
D03*
X128475D02*
D03*
X128975D02*
D03*
X129475D02*
D03*
X129975D02*
D03*
X130475D02*
D03*
X130975D02*
D03*
X131475D02*
D03*
X131975D02*
D03*
X111975Y54700D02*
D03*
X111475D02*
D03*
X110975D02*
D03*
X110475D02*
D03*
X109975D02*
D03*
X109475D02*
D03*
X108975D02*
D03*
X108475D02*
D03*
X107975D02*
D03*
X107475D02*
D03*
X106975D02*
D03*
X106475D02*
D03*
Y46450D02*
D03*
X106975D02*
D03*
X107475D02*
D03*
X107975D02*
D03*
X108475D02*
D03*
X108975D02*
D03*
X109475D02*
D03*
X109975D02*
D03*
X110475D02*
D03*
X110975D02*
D03*
X111475D02*
D03*
X111975D02*
D03*
D67*
X129762Y61925D02*
D03*
X131562D02*
D03*
X31525Y28350D02*
D03*
X29725D02*
D03*
X19575D02*
D03*
X17775D02*
D03*
X195025Y55825D02*
D03*
X196825D02*
D03*
X69706Y39698D02*
D03*
X67906D02*
D03*
X68381Y28325D02*
D03*
X66581D02*
D03*
X224500Y54825D02*
D03*
X226300D02*
D03*
X220750Y68950D02*
D03*
X222550D02*
D03*
X229225Y65750D02*
D03*
X227425D02*
D03*
X229625Y58450D02*
D03*
X227825D02*
D03*
X226700Y70775D02*
D03*
X228500D02*
D03*
X226675Y68725D02*
D03*
X228475D02*
D03*
X195357Y64375D02*
D03*
X197157D02*
D03*
X195357Y66450D02*
D03*
X197157D02*
D03*
X195075Y58850D02*
D03*
X196875D02*
D03*
X195025Y53850D02*
D03*
X196825D02*
D03*
X195025Y51887D02*
D03*
X196825D02*
D03*
X53325Y82975D02*
D03*
X55125D02*
D03*
X78336Y82725D02*
D03*
X76536D02*
D03*
X78336Y80100D02*
D03*
X76536D02*
D03*
X88625Y28325D02*
D03*
X86825D02*
D03*
X78825D02*
D03*
X77025D02*
D03*
X62350D02*
D03*
X60550D02*
D03*
X40475Y28350D02*
D03*
X38675D02*
D03*
X50375Y28325D02*
D03*
X48575D02*
D03*
X24525Y16600D02*
D03*
X22725D02*
D03*
X106825Y61925D02*
D03*
X108625D02*
D03*
X106825Y59800D02*
D03*
X108625D02*
D03*
X110200D02*
D03*
X112000D02*
D03*
X113600Y61925D02*
D03*
X115400D02*
D03*
X113575Y59800D02*
D03*
X115375D02*
D03*
X126350Y61925D02*
D03*
X128150D02*
D03*
X126400Y59800D02*
D03*
X128200D02*
D03*
X129788D02*
D03*
X131587D02*
D03*
X133175Y61925D02*
D03*
X134975D02*
D03*
X133175Y59800D02*
D03*
X134975D02*
D03*
X154525Y61925D02*
D03*
X156325D02*
D03*
X154525Y59800D02*
D03*
X156325D02*
D03*
X157887D02*
D03*
X159687D02*
D03*
X161275Y61925D02*
D03*
X163075D02*
D03*
X161250Y59800D02*
D03*
X163050D02*
D03*
X174050Y61925D02*
D03*
X175850D02*
D03*
X174050Y59800D02*
D03*
X175850D02*
D03*
X177475D02*
D03*
X179275D02*
D03*
X180900Y61925D02*
D03*
X182700D02*
D03*
X180900Y59800D02*
D03*
X182700D02*
D03*
X105600Y108400D02*
D03*
X107400D02*
D03*
X105600Y106250D02*
D03*
X107400D02*
D03*
X108975Y106250D02*
D03*
X110775D02*
D03*
X112350Y108400D02*
D03*
X114150D02*
D03*
X112350Y106250D02*
D03*
X114150D02*
D03*
X127575Y108550D02*
D03*
X129375D02*
D03*
X127575Y106400D02*
D03*
X129375D02*
D03*
X131050Y108550D02*
D03*
X132850D02*
D03*
X131050Y106400D02*
D03*
X132850D02*
D03*
X134550Y108550D02*
D03*
X136350D02*
D03*
X134550Y106400D02*
D03*
X136350D02*
D03*
X155125Y108550D02*
D03*
X156925D02*
D03*
X155125Y106400D02*
D03*
X156925D02*
D03*
X158625Y108550D02*
D03*
X160425D02*
D03*
X158625Y106400D02*
D03*
X160425D02*
D03*
X163950Y108550D02*
D03*
X162150D02*
D03*
X163950Y106400D02*
D03*
X162150D02*
D03*
X174050Y108550D02*
D03*
X175850D02*
D03*
X174050Y106400D02*
D03*
X175850D02*
D03*
X177475Y108550D02*
D03*
X179275D02*
D03*
X177475Y106400D02*
D03*
X179275D02*
D03*
X182700Y108550D02*
D03*
X180900D02*
D03*
X182700Y106400D02*
D03*
X180900D02*
D03*
X51236Y92400D02*
D03*
X53436D02*
D03*
X51236Y90137D02*
D03*
X53436D02*
D03*
X76786Y92400D02*
D03*
X78986D02*
D03*
X76786Y90137D02*
D03*
X78986D02*
D03*
X76786Y87875D02*
D03*
X78986D02*
D03*
X76786Y85612D02*
D03*
X78986D02*
D03*
X51236Y87875D02*
D03*
X53436D02*
D03*
X51236Y85612D02*
D03*
X53436D02*
D03*
X52925Y80850D02*
D03*
X55125D02*
D03*
X52925Y78775D02*
D03*
X55125D02*
D03*
X76511Y72225D02*
D03*
X78711D02*
D03*
Y70200D02*
D03*
X76511D02*
D03*
X78736Y78025D02*
D03*
X76536D02*
D03*
X191675Y10800D02*
D03*
X193875D02*
D03*
X191675Y13370D02*
D03*
X193875D02*
D03*
X191675Y15950D02*
D03*
X193875D02*
D03*
X191675Y18450D02*
D03*
X193875D02*
D03*
X191675Y20975D02*
D03*
X193875D02*
D03*
X191675Y23550D02*
D03*
X193875D02*
D03*
X191675Y26075D02*
D03*
X193875D02*
D03*
X191675Y28610D02*
D03*
X193875D02*
D03*
X98325Y97375D02*
D03*
X100525D02*
D03*
X98325Y99525D02*
D03*
X100525D02*
D03*
X20825Y52275D02*
D03*
X18625D02*
D03*
X98325Y95225D02*
D03*
X100525D02*
D03*
X98325Y101675D02*
D03*
X100525D02*
D03*
X186200Y54300D02*
D03*
X184000D02*
D03*
X186200Y52175D02*
D03*
X184000D02*
D03*
X186200Y50100D02*
D03*
X184000D02*
D03*
X186200Y48025D02*
D03*
X184000D02*
D03*
X108975Y108400D02*
D03*
X110775D02*
D03*
X177475Y61925D02*
D03*
X179275D02*
D03*
X157900D02*
D03*
X159700D02*
D03*
X110212D02*
D03*
X112012D02*
D03*
D68*
X19650Y63825D02*
D03*
Y61525D02*
D03*
Y66125D02*
D03*
D69*
X13450Y63825D02*
D03*
D70*
X28300Y53475D02*
D03*
X28950D02*
D03*
X29600D02*
D03*
X30250D02*
D03*
X28300Y57875D02*
D03*
X28950D02*
D03*
X29600D02*
D03*
X30250D02*
D03*
D71*
X220675Y52475D02*
D03*
Y54275D02*
D03*
X215625Y51650D02*
D03*
Y53450D02*
D03*
X222725Y52475D02*
D03*
Y54275D02*
D03*
X205600Y70775D02*
D03*
Y68975D02*
D03*
X211875Y51650D02*
D03*
Y53450D02*
D03*
X224450Y70525D02*
D03*
Y68725D02*
D03*
X207675Y70775D02*
D03*
Y68975D02*
D03*
X203550Y70775D02*
D03*
Y68975D02*
D03*
X201500Y70775D02*
D03*
Y68975D02*
D03*
X209825Y51650D02*
D03*
Y53450D02*
D03*
X199425Y70775D02*
D03*
Y68975D02*
D03*
X74511Y70425D02*
D03*
Y72225D02*
D03*
X72361Y70425D02*
D03*
Y72225D02*
D03*
X68336Y70425D02*
D03*
Y72225D02*
D03*
X66061Y70425D02*
D03*
Y72225D02*
D03*
X83000Y38325D02*
D03*
Y36525D02*
D03*
X72975Y38325D02*
D03*
Y36525D02*
D03*
X25700Y38425D02*
D03*
Y36625D02*
D03*
X56375Y38325D02*
D03*
Y36525D02*
D03*
X13740Y38340D02*
D03*
Y36540D02*
D03*
X34650Y38340D02*
D03*
Y36540D02*
D03*
X44515Y38340D02*
D03*
Y36540D02*
D03*
X22775Y12275D02*
D03*
Y14475D02*
D03*
X57761Y95000D02*
D03*
Y97200D02*
D03*
X59939Y95000D02*
D03*
Y97200D02*
D03*
X62118Y95000D02*
D03*
Y97200D02*
D03*
X64296Y95000D02*
D03*
Y97200D02*
D03*
X66475Y95000D02*
D03*
Y97200D02*
D03*
X68654Y95000D02*
D03*
Y97200D02*
D03*
X70832Y95000D02*
D03*
Y97200D02*
D03*
X73011Y95000D02*
D03*
Y97200D02*
D03*
X56911Y70000D02*
D03*
Y72200D02*
D03*
X59052Y70000D02*
D03*
Y72200D02*
D03*
X61194Y70000D02*
D03*
Y72200D02*
D03*
X63336Y70000D02*
D03*
Y72200D02*
D03*
X54275Y38725D02*
D03*
Y36525D02*
D03*
X207800Y50975D02*
D03*
Y53175D02*
D03*
X205775Y50975D02*
D03*
Y53175D02*
D03*
X203725Y50975D02*
D03*
Y53175D02*
D03*
X198775Y50975D02*
D03*
Y53175D02*
D03*
X11640Y42525D02*
D03*
Y40325D02*
D03*
Y38740D02*
D03*
Y36540D02*
D03*
X54275Y42600D02*
D03*
Y40400D02*
D03*
X23600Y38825D02*
D03*
Y36625D02*
D03*
Y42425D02*
D03*
Y40225D02*
D03*
X23075Y54475D02*
D03*
Y52275D02*
D03*
D72*
X70486Y70850D02*
D03*
Y72250D02*
D03*
D73*
X19625Y57900D02*
D03*
Y55200D02*
D03*
X18675Y57900D02*
D03*
X20575D02*
D03*
Y55200D02*
D03*
X18675D02*
D03*
D74*
X69161Y36473D02*
D03*
X67891D02*
D03*
X66621D02*
D03*
X65351D02*
D03*
X69161Y31273D02*
D03*
X67891D02*
D03*
X66621D02*
D03*
X65351D02*
D03*
D75*
X139125Y76500D02*
D03*
Y75850D02*
D03*
Y75200D02*
D03*
Y74550D02*
D03*
Y73900D02*
D03*
Y73250D02*
D03*
Y72600D02*
D03*
Y71950D02*
D03*
X144875Y76500D02*
D03*
Y75850D02*
D03*
Y75200D02*
D03*
Y74550D02*
D03*
Y73900D02*
D03*
Y73250D02*
D03*
Y72600D02*
D03*
Y71950D02*
D03*
D76*
X65236Y82625D02*
D03*
D77*
X63486Y85025D02*
D03*
X63986D02*
D03*
X64486D02*
D03*
X64986D02*
D03*
X65486D02*
D03*
X65986D02*
D03*
X66486D02*
D03*
X66986D02*
D03*
Y80225D02*
D03*
X66486D02*
D03*
X65986D02*
D03*
X65486D02*
D03*
X64986D02*
D03*
X64486D02*
D03*
X63986D02*
D03*
X63486D02*
D03*
D78*
X67636Y84375D02*
D03*
Y83875D02*
D03*
Y83375D02*
D03*
Y82875D02*
D03*
Y82375D02*
D03*
Y81875D02*
D03*
Y81375D02*
D03*
Y80875D02*
D03*
X62836D02*
D03*
Y81375D02*
D03*
Y81875D02*
D03*
Y82375D02*
D03*
Y82875D02*
D03*
Y83375D02*
D03*
Y83875D02*
D03*
Y84375D02*
D03*
D79*
X201550Y65975D02*
D03*
X202350D02*
D03*
X203150D02*
D03*
X203950D02*
D03*
X204750D02*
D03*
X205550D02*
D03*
X206350D02*
D03*
X207150D02*
D03*
X207950D02*
D03*
X208750D02*
D03*
X209550D02*
D03*
X210350D02*
D03*
X211150D02*
D03*
X211950D02*
D03*
X212750D02*
D03*
X213550D02*
D03*
X214350D02*
D03*
X215150D02*
D03*
X215950D02*
D03*
X216750D02*
D03*
X217550D02*
D03*
X218350D02*
D03*
X219150D02*
D03*
X219950D02*
D03*
X220750D02*
D03*
X221550D02*
D03*
X222350D02*
D03*
X201550Y65175D02*
D03*
X202350D02*
D03*
X203150D02*
D03*
X203950D02*
D03*
X204750D02*
D03*
X205550D02*
D03*
X206350D02*
D03*
X207150D02*
D03*
X207950D02*
D03*
X208750D02*
D03*
X209550D02*
D03*
X210350D02*
D03*
X211150D02*
D03*
X211950D02*
D03*
X212750D02*
D03*
X213550D02*
D03*
X214350D02*
D03*
X215150D02*
D03*
X215950D02*
D03*
X216750D02*
D03*
X217550D02*
D03*
X218350D02*
D03*
X219150D02*
D03*
X219950D02*
D03*
X220750D02*
D03*
X221550D02*
D03*
X222350D02*
D03*
X201550Y64375D02*
D03*
X202350D02*
D03*
X203150D02*
D03*
X203950D02*
D03*
X204750D02*
D03*
X205550D02*
D03*
X206350D02*
D03*
X207150D02*
D03*
X207950D02*
D03*
X208750D02*
D03*
X209550D02*
D03*
X210350D02*
D03*
X211150D02*
D03*
X211950D02*
D03*
X212750D02*
D03*
X213550D02*
D03*
X214350D02*
D03*
X215150D02*
D03*
X215950D02*
D03*
X216750D02*
D03*
X217550D02*
D03*
X218350D02*
D03*
X219150D02*
D03*
X219950D02*
D03*
X220750D02*
D03*
X221550D02*
D03*
X222350D02*
D03*
X201550Y63575D02*
D03*
X202350D02*
D03*
X203150D02*
D03*
X203950D02*
D03*
X204750D02*
D03*
X205550D02*
D03*
X206350D02*
D03*
X207150D02*
D03*
X207950D02*
D03*
X208750D02*
D03*
X209550D02*
D03*
X210350D02*
D03*
X211150D02*
D03*
X211950D02*
D03*
X212750D02*
D03*
X213550D02*
D03*
X214350D02*
D03*
X215150D02*
D03*
X215950D02*
D03*
X216750D02*
D03*
X217550D02*
D03*
X218350D02*
D03*
X219150D02*
D03*
X219950D02*
D03*
X220750D02*
D03*
X221550D02*
D03*
X222350D02*
D03*
X223150Y65975D02*
D03*
Y65175D02*
D03*
Y64375D02*
D03*
Y63575D02*
D03*
Y57975D02*
D03*
X222350Y57175D02*
D03*
X221550D02*
D03*
X220750D02*
D03*
X219950D02*
D03*
X219150D02*
D03*
X218350D02*
D03*
X217550D02*
D03*
X216750D02*
D03*
X215950D02*
D03*
X215150D02*
D03*
X214350D02*
D03*
X213550D02*
D03*
X212750D02*
D03*
X211950D02*
D03*
X211150D02*
D03*
X210350D02*
D03*
X209550D02*
D03*
X208750D02*
D03*
X207950D02*
D03*
X207150D02*
D03*
X206350D02*
D03*
X205550D02*
D03*
X204750D02*
D03*
X203950D02*
D03*
X203150D02*
D03*
X202350D02*
D03*
X201550D02*
D03*
X223150D02*
D03*
Y58775D02*
D03*
Y59575D02*
D03*
Y60375D02*
D03*
Y61175D02*
D03*
Y61975D02*
D03*
Y62775D02*
D03*
X222350Y57975D02*
D03*
X221550D02*
D03*
X220750D02*
D03*
X219950D02*
D03*
X219150D02*
D03*
X218350D02*
D03*
X217550D02*
D03*
X216750D02*
D03*
X215950D02*
D03*
X215150D02*
D03*
X214350D02*
D03*
X213550D02*
D03*
X212750D02*
D03*
X211950D02*
D03*
X211150D02*
D03*
X210350D02*
D03*
X209550D02*
D03*
X208750D02*
D03*
X207950D02*
D03*
X207150D02*
D03*
X206350D02*
D03*
X205550D02*
D03*
X204750D02*
D03*
X203950D02*
D03*
X203150D02*
D03*
X202350D02*
D03*
X201550D02*
D03*
X222350Y58775D02*
D03*
X221550D02*
D03*
X220750D02*
D03*
X219950D02*
D03*
X219150D02*
D03*
X218350D02*
D03*
X217550D02*
D03*
X216750D02*
D03*
X215950D02*
D03*
X215150D02*
D03*
X214350D02*
D03*
X213550D02*
D03*
X212750D02*
D03*
X211950D02*
D03*
X211150D02*
D03*
X210350D02*
D03*
X209550D02*
D03*
X208750D02*
D03*
X207950D02*
D03*
X207150D02*
D03*
X206350D02*
D03*
X205550D02*
D03*
X204750D02*
D03*
X203950D02*
D03*
X203150D02*
D03*
X202350D02*
D03*
X201550D02*
D03*
X222350Y59575D02*
D03*
X221550D02*
D03*
X220750D02*
D03*
X219950D02*
D03*
X219150D02*
D03*
X218350D02*
D03*
X217550D02*
D03*
X216750D02*
D03*
X215950D02*
D03*
X215150D02*
D03*
X214350D02*
D03*
X213550D02*
D03*
X212750D02*
D03*
X211950D02*
D03*
X211150D02*
D03*
X210350D02*
D03*
X209550D02*
D03*
X208750D02*
D03*
X207950D02*
D03*
X207150D02*
D03*
X206350D02*
D03*
X205550D02*
D03*
X204750D02*
D03*
X203950D02*
D03*
X203150D02*
D03*
X202350D02*
D03*
X201550D02*
D03*
X222350Y60375D02*
D03*
X221550D02*
D03*
X220750D02*
D03*
X219950D02*
D03*
X219150D02*
D03*
X218350D02*
D03*
X217550D02*
D03*
X216750D02*
D03*
X215950D02*
D03*
X215150D02*
D03*
X214350D02*
D03*
X213550D02*
D03*
X212750D02*
D03*
X211950D02*
D03*
X211150D02*
D03*
X210350D02*
D03*
X209550D02*
D03*
X208750D02*
D03*
X207950D02*
D03*
X207150D02*
D03*
X206350D02*
D03*
X205550D02*
D03*
X204750D02*
D03*
X203950D02*
D03*
X203150D02*
D03*
X202350D02*
D03*
X201550D02*
D03*
X222350Y61175D02*
D03*
X221550D02*
D03*
X220750D02*
D03*
X219950D02*
D03*
X219150D02*
D03*
X218350D02*
D03*
X217550D02*
D03*
X216750D02*
D03*
X215950D02*
D03*
X215150D02*
D03*
X214350D02*
D03*
X213550D02*
D03*
X212750D02*
D03*
X211950D02*
D03*
X211150D02*
D03*
X210350D02*
D03*
X209550D02*
D03*
X208750D02*
D03*
X207950D02*
D03*
X207150D02*
D03*
X206350D02*
D03*
X205550D02*
D03*
X204750D02*
D03*
X203950D02*
D03*
X203150D02*
D03*
X202350D02*
D03*
X201550D02*
D03*
X222350Y61975D02*
D03*
X221550D02*
D03*
X220750D02*
D03*
X219950D02*
D03*
X219150D02*
D03*
X218350D02*
D03*
X217550D02*
D03*
X216750D02*
D03*
X215950D02*
D03*
X215150D02*
D03*
X214350D02*
D03*
X213550D02*
D03*
X212750D02*
D03*
X211950D02*
D03*
X211150D02*
D03*
X210350D02*
D03*
X209550D02*
D03*
X208750D02*
D03*
X207950D02*
D03*
X207150D02*
D03*
X206350D02*
D03*
X205550D02*
D03*
X204750D02*
D03*
X203950D02*
D03*
X203150D02*
D03*
X202350D02*
D03*
X201550D02*
D03*
X222350Y62775D02*
D03*
X221550D02*
D03*
X220750D02*
D03*
X219950D02*
D03*
X219150D02*
D03*
X218350D02*
D03*
X217550D02*
D03*
X216750D02*
D03*
X215950D02*
D03*
X215150D02*
D03*
X214350D02*
D03*
X213550D02*
D03*
X212750D02*
D03*
X211950D02*
D03*
X211150D02*
D03*
X210350D02*
D03*
X209550D02*
D03*
X208750D02*
D03*
X207950D02*
D03*
X207150D02*
D03*
X206350D02*
D03*
X205550D02*
D03*
X204750D02*
D03*
X203950D02*
D03*
X203150D02*
D03*
X202350D02*
D03*
X201550D02*
D03*
D80*
X108825Y26025D02*
D03*
X174825Y15025D02*
D03*
Y26025D02*
D03*
X108825Y15025D02*
D03*
D81*
X117825Y14825D02*
D03*
X119425D02*
D03*
X121025D02*
D03*
X122625D02*
D03*
X124225D02*
D03*
X125825D02*
D03*
X127425D02*
D03*
X129025D02*
D03*
X130625D02*
D03*
X132225D02*
D03*
X133825D02*
D03*
X135425D02*
D03*
X137025D02*
D03*
X138625D02*
D03*
X140225D02*
D03*
X141825D02*
D03*
X143425D02*
D03*
X145025D02*
D03*
X146625D02*
D03*
X148225D02*
D03*
X149825D02*
D03*
X151425D02*
D03*
X153025D02*
D03*
X154625D02*
D03*
X156225D02*
D03*
X157825D02*
D03*
X159425D02*
D03*
X161025D02*
D03*
X162625D02*
D03*
X164225D02*
D03*
X165825D02*
D03*
X167425D02*
D03*
X116225D02*
D03*
X118625Y15875D02*
D03*
X120225D02*
D03*
X121825D02*
D03*
X123425D02*
D03*
X125025D02*
D03*
X126625D02*
D03*
X128225D02*
D03*
X129825D02*
D03*
X131425D02*
D03*
X133025D02*
D03*
X134625D02*
D03*
X136225D02*
D03*
X137825D02*
D03*
X139425D02*
D03*
X141025D02*
D03*
X142625D02*
D03*
X144225D02*
D03*
X145825D02*
D03*
X147425D02*
D03*
X149025D02*
D03*
X150625D02*
D03*
X152225D02*
D03*
X153825D02*
D03*
X155425D02*
D03*
X157025D02*
D03*
X158625D02*
D03*
X160225D02*
D03*
X161825D02*
D03*
X163425D02*
D03*
X165025D02*
D03*
X166625D02*
D03*
X116225Y16975D02*
D03*
X117025Y15875D02*
D03*
X167425Y16975D02*
D03*
X165825D02*
D03*
X164225D02*
D03*
X162625D02*
D03*
X161025D02*
D03*
X159425D02*
D03*
X157825D02*
D03*
X156225D02*
D03*
X154625D02*
D03*
X153025D02*
D03*
X151425D02*
D03*
X149825D02*
D03*
X148225D02*
D03*
X146625D02*
D03*
X145025D02*
D03*
X143425D02*
D03*
X141825D02*
D03*
X140225D02*
D03*
X138625D02*
D03*
X137025D02*
D03*
X135425D02*
D03*
X133825D02*
D03*
X132225D02*
D03*
X130625D02*
D03*
X129025D02*
D03*
X127425D02*
D03*
X125825D02*
D03*
X124225D02*
D03*
X122625D02*
D03*
X121025D02*
D03*
X119425D02*
D03*
X117825D02*
D03*
X117025Y18025D02*
D03*
X166625D02*
D03*
X165025D02*
D03*
X163425D02*
D03*
X161825D02*
D03*
X160225D02*
D03*
X158625D02*
D03*
X157025D02*
D03*
X155425D02*
D03*
X153825D02*
D03*
X152225D02*
D03*
X150625D02*
D03*
X149025D02*
D03*
X147425D02*
D03*
X145825D02*
D03*
X144225D02*
D03*
X142625D02*
D03*
X141025D02*
D03*
X139425D02*
D03*
X137825D02*
D03*
X136225D02*
D03*
X134625D02*
D03*
X133025D02*
D03*
X131425D02*
D03*
X129825D02*
D03*
X128225D02*
D03*
X126625D02*
D03*
X125025D02*
D03*
X123425D02*
D03*
X121825D02*
D03*
X120225D02*
D03*
X118625D02*
D03*
Y23025D02*
D03*
X120225D02*
D03*
X121825D02*
D03*
X123425D02*
D03*
X125025D02*
D03*
X126625D02*
D03*
X128225D02*
D03*
X129825D02*
D03*
X131425D02*
D03*
X133025D02*
D03*
X134625D02*
D03*
X136225D02*
D03*
X137825D02*
D03*
X139425D02*
D03*
X141025D02*
D03*
X142625D02*
D03*
X144225D02*
D03*
X145825D02*
D03*
X147425D02*
D03*
X149025D02*
D03*
X150625D02*
D03*
X152225D02*
D03*
X153825D02*
D03*
X155425D02*
D03*
X157025D02*
D03*
X158625D02*
D03*
X160225D02*
D03*
X161825D02*
D03*
X163425D02*
D03*
X165025D02*
D03*
X166625D02*
D03*
X117025D02*
D03*
X117825Y24075D02*
D03*
X119425D02*
D03*
X121025D02*
D03*
X122625D02*
D03*
X124225D02*
D03*
X125825D02*
D03*
X127425D02*
D03*
X129025D02*
D03*
X130625D02*
D03*
X132225D02*
D03*
X133825D02*
D03*
X135425D02*
D03*
X137025D02*
D03*
X138625D02*
D03*
X140225D02*
D03*
X141825D02*
D03*
X143425D02*
D03*
X145025D02*
D03*
X146625D02*
D03*
X148225D02*
D03*
X149825D02*
D03*
X151425D02*
D03*
X153025D02*
D03*
X154625D02*
D03*
X156225D02*
D03*
X157825D02*
D03*
X159425D02*
D03*
X161025D02*
D03*
X162625D02*
D03*
X164225D02*
D03*
X165825D02*
D03*
X167425D02*
D03*
X117025Y25175D02*
D03*
X116225Y24075D02*
D03*
X166625Y25175D02*
D03*
X165025D02*
D03*
X163425D02*
D03*
X161825D02*
D03*
X160225D02*
D03*
X158625D02*
D03*
X157025D02*
D03*
X155425D02*
D03*
X153825D02*
D03*
X152225D02*
D03*
X150625D02*
D03*
X149025D02*
D03*
X147425D02*
D03*
X145825D02*
D03*
X144225D02*
D03*
X142625D02*
D03*
X141025D02*
D03*
X139425D02*
D03*
X137825D02*
D03*
X136225D02*
D03*
X134625D02*
D03*
X133025D02*
D03*
X131425D02*
D03*
X129825D02*
D03*
X128225D02*
D03*
X126625D02*
D03*
X125025D02*
D03*
X123425D02*
D03*
X121825D02*
D03*
X120225D02*
D03*
X118625D02*
D03*
X116225Y26225D02*
D03*
X167425D02*
D03*
X165825D02*
D03*
X164225D02*
D03*
X162625D02*
D03*
X161025D02*
D03*
X159425D02*
D03*
X157825D02*
D03*
X156225D02*
D03*
X154625D02*
D03*
X153025D02*
D03*
X151425D02*
D03*
X149825D02*
D03*
X148225D02*
D03*
X146625D02*
D03*
X145025D02*
D03*
X143425D02*
D03*
X141825D02*
D03*
X140225D02*
D03*
X138625D02*
D03*
X137025D02*
D03*
X135425D02*
D03*
X133825D02*
D03*
X132225D02*
D03*
X130625D02*
D03*
X129025D02*
D03*
X127425D02*
D03*
X125825D02*
D03*
X124225D02*
D03*
X122625D02*
D03*
X121025D02*
D03*
X119425D02*
D03*
X117825D02*
D03*
D82*
X242475Y89696D02*
D03*
X239425Y35314D02*
D03*
D83*
X50521Y120150D02*
D03*
Y117610D02*
D03*
X47981Y120150D02*
D03*
Y117610D02*
D03*
X45441Y120150D02*
D03*
Y117610D02*
D03*
X32741Y120150D02*
D03*
X35281Y117610D02*
D03*
Y120150D02*
D03*
X37821Y117610D02*
D03*
Y120150D02*
D03*
X40361Y117610D02*
D03*
Y120150D02*
D03*
X42901Y117610D02*
D03*
Y120150D02*
D03*
X90111Y119975D02*
D03*
Y117435D02*
D03*
X87571Y119975D02*
D03*
Y117435D02*
D03*
X85031Y119975D02*
D03*
Y117435D02*
D03*
X82491Y119975D02*
D03*
Y117435D02*
D03*
X79951Y119975D02*
D03*
X92651Y117435D02*
D03*
Y119975D02*
D03*
X95191Y117435D02*
D03*
Y119975D02*
D03*
X97731Y117435D02*
D03*
Y119975D02*
D03*
X189175Y13370D02*
D03*
Y31150D02*
D03*
Y28610D02*
D03*
Y26070D02*
D03*
Y23530D02*
D03*
Y20990D02*
D03*
Y18450D02*
D03*
Y15910D02*
D03*
X208215Y2125D02*
D03*
X210755D02*
D03*
X213295D02*
D03*
X199645D02*
D03*
X197105D02*
D03*
X194565D02*
D03*
X248050Y30760D02*
D03*
Y10440D02*
D03*
Y28220D02*
D03*
Y25680D02*
D03*
Y23140D02*
D03*
Y20600D02*
D03*
Y18060D02*
D03*
Y15520D02*
D03*
Y12980D02*
D03*
X197475Y122350D02*
D03*
X200015D02*
D03*
X208715D02*
D03*
X211255D02*
D03*
X213795D02*
D03*
X206175D02*
D03*
X203635D02*
D03*
X86436Y75730D02*
D03*
Y78270D02*
D03*
Y80810D02*
D03*
Y73190D02*
D03*
Y70650D02*
D03*
X49118Y82382D02*
D03*
Y77302D02*
D03*
Y74762D02*
D03*
Y67142D02*
D03*
Y69682D02*
D03*
Y72222D02*
D03*
Y79842D02*
D03*
X43140Y52300D02*
D03*
X63460D02*
D03*
X45680D02*
D03*
X48220D02*
D03*
X50760D02*
D03*
X53300D02*
D03*
X55840D02*
D03*
X58380D02*
D03*
X60920D02*
D03*
D84*
X32741Y117610D02*
D03*
X79951Y117435D02*
D03*
X205675Y2125D02*
D03*
X202185D02*
D03*
X194935Y122350D02*
D03*
X216335D02*
D03*
X66000Y52300D02*
D03*
D85*
X189175Y10830D02*
D03*
X248050Y7900D02*
D03*
X86436Y83350D02*
D03*
X49118Y64602D02*
D03*
D86*
X86825Y33985D02*
D03*
Y36525D02*
D03*
X77000Y33985D02*
D03*
Y36525D02*
D03*
X29725Y34085D02*
D03*
Y36625D02*
D03*
X60400Y33985D02*
D03*
Y36525D02*
D03*
X38675Y33985D02*
D03*
Y36525D02*
D03*
X17765Y33985D02*
D03*
Y36525D02*
D03*
X48540Y33985D02*
D03*
Y36525D02*
D03*
D87*
X86825Y39065D02*
D03*
X77000D02*
D03*
X29725Y39165D02*
D03*
X60400Y39065D02*
D03*
X38675Y39065D02*
D03*
X17765D02*
D03*
X48540D02*
D03*
D88*
X13000Y122000D02*
D03*
X247000D02*
D03*
Y3000D02*
D03*
X13000D02*
D03*
X27750Y5050D02*
D03*
X224275Y5125D02*
D03*
X236150D02*
D03*
X143600Y120075D02*
D03*
D89*
X22750Y5050D02*
D03*
X219275Y5125D02*
D03*
X231150D02*
D03*
X148600Y120075D02*
D03*
D90*
X185975Y78510D02*
D03*
X183435D02*
D03*
X185975Y81050D02*
D03*
X183435D02*
D03*
X185975Y83590D02*
D03*
X183435D02*
D03*
X185975Y86130D02*
D03*
X183435D02*
D03*
X185975Y88670D02*
D03*
X183435Y75970D02*
D03*
X185975D02*
D03*
X183435Y73430D02*
D03*
X185975D02*
D03*
X183435Y70890D02*
D03*
X185975D02*
D03*
X183435Y68350D02*
D03*
X185975D02*
D03*
X183435Y65810D02*
D03*
X185975D02*
D03*
D91*
X183435Y88670D02*
D03*
D92*
X29645Y62625D02*
D03*
X30820Y47875D02*
D03*
D93*
X27105Y62625D02*
D03*
X28280Y47875D02*
D03*
D94*
X36800Y7975D02*
D03*
Y14275D02*
D03*
D95*
X41800Y11275D02*
D03*
D96*
X113500Y12500D02*
D03*
X113800Y104166D02*
D03*
X50371Y29975D02*
D03*
X57200Y43875D02*
D03*
X213550Y66925D02*
D03*
X134050Y85725D02*
D03*
X138775Y86075D02*
D03*
X138300Y87781D02*
D03*
X138250Y102650D02*
D03*
X138325Y90700D02*
D03*
X137550Y89850D02*
D03*
X135369Y96600D02*
D03*
X135850Y79500D02*
D03*
Y83725D02*
D03*
X132421Y65805D02*
D03*
X111100Y110750D02*
D03*
X170119Y59825D02*
D03*
X134689Y65150D02*
D03*
X136025Y59775D02*
D03*
X151375Y60775D02*
D03*
X18625Y48475D02*
D03*
X22000Y63825D02*
D03*
X192000Y30475D02*
D03*
X140529Y76150D02*
D03*
X147450Y75950D02*
D03*
X125525Y63462D02*
D03*
X107345Y63625D02*
D03*
X200450Y40325D02*
D03*
X202169Y26950D02*
D03*
X200450Y50962D02*
D03*
X163650Y52525D02*
D03*
X169050Y57300D02*
D03*
X112350Y109525D02*
D03*
X178675Y115525D02*
D03*
X111950Y63275D02*
D03*
X194692Y102925D02*
D03*
X198600Y90100D02*
D03*
X210075Y69400D02*
D03*
X209375Y70125D02*
D03*
X208350Y67300D02*
D03*
X176475Y95400D02*
D03*
X174475D02*
D03*
X175475D02*
D03*
X150075Y91600D02*
D03*
X150900Y92350D02*
D03*
X99425Y88725D02*
D03*
X99250Y89675D02*
D03*
X215225Y54700D02*
D03*
X101250Y87175D02*
D03*
X121700Y87325D02*
D03*
X121850Y84500D02*
D03*
X122525Y85300D02*
D03*
X157950Y91425D02*
D03*
X146475Y94825D02*
D03*
X156975Y92450D02*
D03*
X67891Y42025D02*
D03*
X216069Y55325D02*
D03*
X215925Y66925D02*
D03*
X215400Y67775D02*
D03*
X220750Y31750D02*
D03*
X218206Y22075D02*
D03*
X222750Y51375D02*
D03*
X209825Y54373D02*
D03*
X210925Y55500D02*
D03*
X220475Y55800D02*
D03*
X220200Y67562D02*
D03*
X214485Y34102D02*
D03*
X212800Y34175D02*
D03*
X212700Y30628D02*
D03*
X218100Y33575D02*
D03*
X216650Y31975D02*
D03*
X217300Y32825D02*
D03*
X218939Y34085D02*
D03*
X212500Y28450D02*
D03*
X212600Y27425D02*
D03*
X79936Y80100D02*
D03*
X212775Y25425D02*
D03*
X214350Y12980D02*
D03*
X212785Y29376D02*
D03*
X215775Y32425D02*
D03*
X212775Y26425D02*
D03*
Y24425D02*
D03*
X225700Y57750D02*
D03*
X93225Y84075D02*
D03*
X103100Y48025D02*
D03*
X101098Y52525D02*
D03*
X103850Y73800D02*
D03*
X105950Y70875D02*
D03*
X118025Y70400D02*
D03*
X115850Y54300D02*
D03*
X108325Y72225D02*
D03*
X122425Y54025D02*
D03*
X121525Y54725D02*
D03*
X122738Y57200D02*
D03*
X121775D02*
D03*
Y70825D02*
D03*
X122738Y69963D02*
D03*
X133350Y84450D02*
D03*
X132275Y84425D02*
D03*
X167475Y46000D02*
D03*
X167525Y47050D02*
D03*
X168275Y47875D02*
D03*
X175475Y47775D02*
D03*
X191600Y36125D02*
D03*
X204975Y27500D02*
D03*
X188900Y41825D02*
D03*
X190325Y42100D02*
D03*
X191100Y41275D02*
D03*
X191925Y41925D02*
D03*
X192600Y42925D02*
D03*
X193300Y43925D02*
D03*
X188750Y36225D02*
D03*
X189500Y35425D02*
D03*
X188700Y34575D02*
D03*
X189000Y33650D02*
D03*
X103775Y71250D02*
D03*
X103923Y54250D02*
D03*
X101912Y54412D02*
D03*
X102013Y55541D02*
D03*
X179050Y50325D02*
D03*
X142775Y51750D02*
D03*
Y50075D02*
D03*
X140100Y52525D02*
D03*
X150675Y45350D02*
D03*
X139200Y40100D02*
D03*
X140100Y49550D02*
D03*
X121775Y51650D02*
D03*
Y47025D02*
D03*
X120425Y51300D02*
D03*
Y48200D02*
D03*
X106425Y52825D02*
D03*
X132150Y89025D02*
D03*
X110950Y74450D02*
D03*
X179525Y97950D02*
D03*
X166400Y97050D02*
D03*
X166375Y95400D02*
D03*
X158750Y99575D02*
D03*
X146475Y97550D02*
D03*
X148075Y97100D02*
D03*
X148075Y95400D02*
D03*
X119450Y97800D02*
D03*
Y94075D02*
D03*
X121075Y97150D02*
D03*
Y95000D02*
D03*
X126975Y95325D02*
D03*
X126625Y96625D02*
D03*
X98325Y103200D02*
D03*
X97200Y99200D02*
D03*
X97136Y97325D02*
D03*
X98325Y93625D02*
D03*
X142750Y48825D02*
D03*
X203275Y24200D02*
D03*
X204175Y25325D02*
D03*
X204775Y26300D02*
D03*
X212700Y23400D02*
D03*
X224575Y53200D02*
D03*
X170875Y48275D02*
D03*
X159475Y47775D02*
D03*
X158475D02*
D03*
X135725Y48625D02*
D03*
X115250Y48725D02*
D03*
X157475Y47775D02*
D03*
X173925Y96450D02*
D03*
X178475Y95400D02*
D03*
X177475D02*
D03*
X179475D02*
D03*
X157475D02*
D03*
X106425Y96450D02*
D03*
X153925Y50825D02*
D03*
X127350Y48700D02*
D03*
X174475Y47775D02*
D03*
X159525Y50325D02*
D03*
Y51325D02*
D03*
X153925Y51825D02*
D03*
X159525Y52325D02*
D03*
X182975Y96325D02*
D03*
X162650Y96725D02*
D03*
X115200Y96500D02*
D03*
X173933Y98405D02*
D03*
X174083Y99705D02*
D03*
X174075Y100625D02*
D03*
X180450Y56125D02*
D03*
X118050Y52750D02*
D03*
X115250Y101375D02*
D03*
X179525Y100950D02*
D03*
X159525Y97950D02*
D03*
Y98950D02*
D03*
X132025Y97950D02*
D03*
Y99950D02*
D03*
X148850Y100225D02*
D03*
X148125Y101200D02*
D03*
X153925Y98450D02*
D03*
X122375Y101675D02*
D03*
X123725Y102475D02*
D03*
X159525Y100950D02*
D03*
X173925Y52825D02*
D03*
X173925Y51825D02*
D03*
Y50825D02*
D03*
Y48825D02*
D03*
X176475Y47775D02*
D03*
X177475D02*
D03*
X178475D02*
D03*
X179475D02*
D03*
X179525Y51325D02*
D03*
Y52325D02*
D03*
X153925Y52825D02*
D03*
X153925Y48825D02*
D03*
X154475Y47775D02*
D03*
X155475D02*
D03*
X156475D02*
D03*
X126425Y52825D02*
D03*
X126425Y51825D02*
D03*
Y50825D02*
D03*
X126975Y47775D02*
D03*
X127975D02*
D03*
X128975D02*
D03*
X129975D02*
D03*
X130975D02*
D03*
X131975D02*
D03*
X132025Y50325D02*
D03*
Y51325D02*
D03*
Y52325D02*
D03*
X106425Y51825D02*
D03*
Y50825D02*
D03*
Y48825D02*
D03*
X106975Y47775D02*
D03*
X107975D02*
D03*
X108975D02*
D03*
X109975D02*
D03*
X110975D02*
D03*
X111975D02*
D03*
X112025Y50325D02*
D03*
Y51325D02*
D03*
Y52325D02*
D03*
X179525Y98950D02*
D03*
Y99950D02*
D03*
X153925Y100450D02*
D03*
X153925Y99450D02*
D03*
Y96450D02*
D03*
X154475Y95400D02*
D03*
X155475D02*
D03*
X156475D02*
D03*
X158475D02*
D03*
X159475D02*
D03*
X126425Y100450D02*
D03*
X126425Y99450D02*
D03*
Y98450D02*
D03*
X127975Y95400D02*
D03*
X128975D02*
D03*
X129975D02*
D03*
X130975D02*
D03*
X131975D02*
D03*
X132025Y98950D02*
D03*
X108975Y101150D02*
D03*
X112025Y99950D02*
D03*
Y98950D02*
D03*
Y97950D02*
D03*
X111975Y95400D02*
D03*
X110975D02*
D03*
X109975D02*
D03*
X108975D02*
D03*
X107975D02*
D03*
X106975D02*
D03*
X106425Y98450D02*
D03*
Y99450D02*
D03*
X106425Y100450D02*
D03*
X157025Y86870D02*
D03*
X141725Y86950D02*
D03*
X157175Y76450D02*
D03*
X156850Y71825D02*
D03*
X139950Y83975D02*
D03*
X142375Y85100D02*
D03*
X143325Y85132D02*
D03*
Y101325D02*
D03*
X140406Y85075D02*
D03*
X142325Y102125D02*
D03*
X107625Y104725D02*
D03*
X195850Y40675D02*
D03*
X194625Y40775D02*
D03*
X230675Y58525D02*
D03*
X219275Y10725D02*
D03*
X217550Y20600D02*
D03*
X216725Y18060D02*
D03*
X215930Y15520D02*
D03*
X215400Y9875D02*
D03*
X207725Y54700D02*
D03*
X205700Y55725D02*
D03*
X207025Y56125D02*
D03*
X206775Y54787D02*
D03*
X129775Y63900D02*
D03*
X151900Y79300D02*
D03*
X152900Y79900D02*
D03*
Y76950D02*
D03*
X151900Y76700D02*
D03*
X147000Y68450D02*
D03*
X145975Y68300D02*
D03*
X128975Y53375D02*
D03*
X148175Y53750D02*
D03*
X151525Y102100D02*
D03*
X128975Y101000D02*
D03*
X121150Y100875D02*
D03*
X131800Y76275D02*
D03*
X130800Y75600D02*
D03*
X107150Y56575D02*
D03*
X107475Y57475D02*
D03*
X108475Y57775D02*
D03*
X146125Y65675D02*
D03*
X145225Y66775D02*
D03*
X144400Y67625D02*
D03*
X171886Y65950D02*
D03*
X182400Y102650D02*
D03*
X176475Y101000D02*
D03*
X111583Y66008D02*
D03*
X166950Y69725D02*
D03*
X128475Y84100D02*
D03*
X137800Y84350D02*
D03*
X144500Y86130D02*
D03*
X145150Y84860D02*
D03*
X144350Y101200D02*
D03*
X145625Y100225D02*
D03*
X167225Y88475D02*
D03*
X167229Y101650D02*
D03*
X168225Y88975D02*
D03*
Y100875D02*
D03*
X169950D02*
D03*
X170850Y101650D02*
D03*
X171425Y102475D02*
D03*
X177275Y78500D02*
D03*
X178300Y77240D02*
D03*
X177025Y64000D02*
D03*
X178075Y63950D02*
D03*
X169060Y56200D02*
D03*
X181275Y64900D02*
D03*
X185750Y62550D02*
D03*
X179700Y66100D02*
D03*
X180475Y65450D02*
D03*
X178925Y64850D02*
D03*
X76536Y84125D02*
D03*
X133175Y58450D02*
D03*
X224475Y67575D02*
D03*
X225950Y67525D02*
D03*
X108175Y112825D02*
D03*
X101175Y67050D02*
D03*
X101131Y68219D02*
D03*
X101125Y69325D02*
D03*
X104000Y13275D02*
D03*
X102848Y13273D02*
D03*
X102000Y12425D02*
D03*
X138350Y39225D02*
D03*
X131475Y38450D02*
D03*
X130475Y37675D02*
D03*
X130025Y36675D02*
D03*
X124150Y35025D02*
D03*
X123625Y34150D02*
D03*
X122850Y33000D02*
D03*
X188325Y32775D02*
D03*
X178975Y89325D02*
D03*
X177975Y89975D02*
D03*
X176975Y90425D02*
D03*
X190225Y43425D02*
D03*
X165650Y90450D02*
D03*
X164775Y90900D02*
D03*
X184200Y59788D02*
D03*
X158950Y90775D02*
D03*
X193553Y55825D02*
D03*
X179275Y63325D02*
D03*
X177475Y58575D02*
D03*
X133175Y63150D02*
D03*
X113575Y58100D02*
D03*
X187200Y10000D02*
D03*
X151575Y93050D02*
D03*
X101275Y89500D02*
D03*
X101250Y88300D02*
D03*
X101275Y85950D02*
D03*
X130475Y88225D02*
D03*
X101275Y84550D02*
D03*
X101300Y83175D02*
D03*
X101250Y81825D02*
D03*
X72975Y40000D02*
D03*
X83000Y40000D02*
D03*
X101300Y80500D02*
D03*
Y79150D02*
D03*
X23600Y44100D02*
D03*
X25712Y39500D02*
D03*
X32850Y28337D02*
D03*
X11640Y44250D02*
D03*
X13750Y39400D02*
D03*
X34650Y40015D02*
D03*
X41800Y28579D02*
D03*
X80150Y28325D02*
D03*
X63675D02*
D03*
X69706D02*
D03*
X20900Y28350D02*
D03*
X44515Y40015D02*
D03*
X117500Y77850D02*
D03*
X101300D02*
D03*
X116725Y76525D02*
D03*
X101275D02*
D03*
X214375Y43500D02*
D03*
X212350Y43625D02*
D03*
X210875D02*
D03*
X209375D02*
D03*
X215625Y50600D02*
D03*
X211875D02*
D03*
X209825D02*
D03*
X213500Y53325D02*
D03*
X70475Y63400D02*
D03*
X183050Y52175D02*
D03*
X182800Y53800D02*
D03*
X182913Y50462D02*
D03*
X111475Y75450D02*
D03*
X101125D02*
D03*
X101200Y74450D02*
D03*
X100975Y34475D02*
D03*
X101325Y73100D02*
D03*
X102125Y92875D02*
D03*
X103125Y93375D02*
D03*
X102050Y96350D02*
D03*
X117887Y34388D02*
D03*
X101075Y33250D02*
D03*
X117350Y33500D02*
D03*
X103650Y30025D02*
D03*
X104475Y30700D02*
D03*
X109475Y31575D02*
D03*
X110475Y32125D02*
D03*
X111475Y31550D02*
D03*
X195775Y60500D02*
D03*
X194250Y61350D02*
D03*
X195100Y62000D02*
D03*
X212884Y68775D02*
D03*
X211788Y68738D02*
D03*
X85975Y61625D02*
D03*
X199425Y72125D02*
D03*
X197650Y70000D02*
D03*
X196825Y50628D02*
D03*
X193553Y51887D02*
D03*
Y53850D02*
D03*
X196875Y60297D02*
D03*
X197157Y62903D02*
D03*
X195357D02*
D03*
Y67922D02*
D03*
X207675Y72247D02*
D03*
X205600Y72300D02*
D03*
X224425Y72375D02*
D03*
X140725Y74325D02*
D03*
X137400Y74100D02*
D03*
X140725Y72600D02*
D03*
X143275D02*
D03*
Y73900D02*
D03*
X79836Y82725D02*
D03*
X51825Y82975D02*
D03*
X102475Y98375D02*
D03*
X101929Y99950D02*
D03*
X101575Y101675D02*
D03*
X203300Y79402D02*
D03*
X202150Y80425D02*
D03*
X195275Y78925D02*
D03*
Y79950D02*
D03*
X137125Y75200D02*
D03*
X151775Y70625D02*
D03*
X151875Y75200D02*
D03*
X130175Y69125D02*
D03*
X136100Y73250D02*
D03*
X128475Y65187D02*
D03*
X24525Y18275D02*
D03*
X69706Y41373D02*
D03*
X56375Y39550D02*
D03*
X89950Y28325D02*
D03*
X128475Y56600D02*
D03*
X145125Y83000D02*
D03*
X148900D02*
D03*
X186075Y103300D02*
D03*
X106975Y112100D02*
D03*
X104900Y113775D02*
D03*
X106000Y114750D02*
D03*
X103225Y116475D02*
D03*
X101850Y115600D02*
D03*
X99750Y117525D02*
D03*
X100725Y118275D02*
D03*
X190625Y111450D02*
D03*
X191550Y112275D02*
D03*
X223775Y116200D02*
D03*
X212100Y113025D02*
D03*
X213825Y112150D02*
D03*
X215300Y114525D02*
D03*
X218350Y115875D02*
D03*
X187500Y104300D02*
D03*
X188650Y105100D02*
D03*
X189150Y106375D02*
D03*
X189625Y107650D02*
D03*
X189850Y109150D02*
D03*
X222975Y117400D02*
D03*
X221250Y115050D02*
D03*
X217400Y113300D02*
D03*
X68336Y65339D02*
D03*
X211550Y92625D02*
D03*
X210525Y92450D02*
D03*
X60750Y82100D02*
D03*
X72125Y82825D02*
D03*
X200375Y56100D02*
D03*
X111975Y103875D02*
D03*
X115450Y106250D02*
D03*
X110975Y103875D02*
D03*
X109475D02*
D03*
X110825Y109750D02*
D03*
X104375Y108400D02*
D03*
Y106250D02*
D03*
X126250Y108400D02*
D03*
X134550Y109875D02*
D03*
X131050Y109850D02*
D03*
X153675Y108375D02*
D03*
X158625Y109850D02*
D03*
X163950Y109850D02*
D03*
X174050Y109850D02*
D03*
X177475D02*
D03*
X182700Y109850D02*
D03*
X172750Y61925D02*
D03*
Y59800D02*
D03*
X161275Y63225D02*
D03*
X157900D02*
D03*
X153225Y59800D02*
D03*
X125050Y61925D02*
D03*
X125100Y59800D02*
D03*
X113500Y63225D02*
D03*
X110212Y63225D02*
D03*
X230425Y65750D02*
D03*
X224100Y57250D02*
D03*
X19625Y53925D02*
D03*
X23075Y55800D02*
D03*
X28950Y56525D02*
D03*
X72361Y69150D02*
D03*
X74511D02*
D03*
X79986Y70200D02*
D03*
Y72225D02*
D03*
X70486Y69575D02*
D03*
X75725Y75450D02*
D03*
X70486Y74950D02*
D03*
X80175Y78400D02*
D03*
X204325Y72250D02*
D03*
X175850Y109850D02*
D03*
X180900Y109850D02*
D03*
X162150D02*
D03*
X156925Y109850D02*
D03*
X137750Y108375D02*
D03*
X129475Y109850D02*
D03*
X115500Y63325D02*
D03*
X131500Y63275D02*
D03*
X159700Y63325D02*
D03*
X156325D02*
D03*
X175850D02*
D03*
X105000Y12400D02*
D03*
X106075Y12150D02*
D03*
X107350D02*
D03*
X101200Y65725D02*
D03*
X109125Y12475D02*
D03*
X101175Y64325D02*
D03*
X106200Y15650D02*
D03*
X123250Y86150D02*
D03*
X129475Y87675D02*
D03*
X121300Y86075D02*
D03*
X104475Y25150D02*
D03*
X106000Y16975D02*
D03*
X105925Y18250D02*
D03*
X109475Y73100D02*
D03*
X101175Y61000D02*
D03*
X101175Y62200D02*
D03*
X113100Y17350D02*
D03*
X103650Y26200D02*
D03*
X102775Y27125D02*
D03*
Y29250D02*
D03*
X101725Y58800D02*
D03*
X127375Y84100D02*
D03*
X127400Y79425D02*
D03*
X101850Y57750D02*
D03*
X101325Y59850D02*
D03*
X125625Y80300D02*
D03*
X126300Y79575D02*
D03*
X128500Y79175D02*
D03*
X101900Y56625D02*
D03*
X129812Y79113D02*
D03*
X129788Y84037D02*
D03*
X110450Y22300D02*
D03*
X111150Y21375D02*
D03*
X112175Y20750D02*
D03*
X109025Y20400D02*
D03*
X108200Y21225D02*
D03*
X107442Y22050D02*
D03*
X109225Y22350D02*
D03*
X106825Y58500D02*
D03*
X137100Y79450D02*
D03*
X137050Y83700D02*
D03*
X137375Y78400D02*
D03*
X172850Y89525D02*
D03*
X171886Y89575D02*
D03*
X170900Y89525D02*
D03*
X186150Y44575D02*
D03*
X185200Y45300D02*
D03*
X184525Y46250D02*
D03*
X180475Y57900D02*
D03*
X171325Y13875D02*
D03*
X175300Y64625D02*
D03*
X168325Y63125D02*
D03*
X171886Y15050D02*
D03*
X167550Y64075D02*
D03*
X173900Y64650D02*
D03*
X173975Y22850D02*
D03*
X173300Y65550D02*
D03*
X171725Y17454D02*
D03*
X171750Y16225D02*
D03*
X166825Y65025D02*
D03*
X166100Y65802D02*
D03*
X171275Y70175D02*
D03*
X173750Y18800D02*
D03*
X174875Y18825D02*
D03*
X170975Y12850D02*
D03*
X170175Y12000D02*
D03*
X169300Y11350D02*
D03*
X180638Y15025D02*
D03*
X165000Y75925D02*
D03*
Y69350D02*
D03*
X179800Y14525D02*
D03*
X163850Y69375D02*
D03*
Y75950D02*
D03*
X178825Y14550D02*
D03*
X162650Y69325D02*
D03*
Y75900D02*
D03*
X175100Y31025D02*
D03*
X176550Y30950D02*
D03*
X177825Y31050D02*
D03*
X150000Y38350D02*
D03*
X167300Y45100D02*
D03*
X166675Y44275D02*
D03*
X165400Y44400D02*
D03*
X166400Y42950D02*
D03*
X167800Y42175D02*
D03*
X177975Y15450D02*
D03*
X150750Y37500D02*
D03*
X149250Y39200D02*
D03*
X175700Y19502D02*
D03*
X176500Y20200D02*
D03*
X176775Y16725D02*
D03*
X147400Y42675D02*
D03*
X146400Y42550D02*
D03*
X145525Y42175D02*
D03*
X153975Y76775D02*
D03*
X155975D02*
D03*
X154975Y76325D02*
D03*
X172375Y23200D02*
D03*
X187175Y21125D02*
D03*
X186225Y20400D02*
D03*
Y29725D02*
D03*
X185309Y20176D02*
D03*
Y30291D02*
D03*
X181775Y18675D02*
D03*
X180825Y18700D02*
D03*
X178075Y16625D02*
D03*
X169025Y31850D02*
D03*
X168300Y32725D02*
D03*
X159000Y35350D02*
D03*
X157975Y36000D02*
D03*
X164225Y33800D02*
D03*
X163475Y34575D02*
D03*
X156975Y36800D02*
D03*
X171850Y37740D02*
D03*
X178775Y23075D02*
D03*
X177825Y23000D02*
D03*
X144825Y41375D02*
D03*
X143975Y40925D02*
D03*
X152150Y62700D02*
D03*
X150975Y63175D02*
D03*
X143600Y62925D02*
D03*
X142825Y61650D02*
D03*
X156475Y101000D02*
D03*
X108975Y53375D02*
D03*
X169300Y53615D02*
D03*
X156475Y53375D02*
D03*
X12400Y111775D02*
D03*
Y109275D02*
D03*
Y106775D02*
D03*
Y104275D02*
D03*
Y101775D02*
D03*
Y99275D02*
D03*
Y86775D02*
D03*
Y89275D02*
D03*
Y91775D02*
D03*
Y94275D02*
D03*
Y96775D02*
D03*
X14900Y111775D02*
D03*
X17400D02*
D03*
X19900D02*
D03*
X22400D02*
D03*
X24900D02*
D03*
X27400D02*
D03*
X14900Y109275D02*
D03*
X17400D02*
D03*
X19900D02*
D03*
X22400D02*
D03*
X24900D02*
D03*
X27400D02*
D03*
X14900Y106775D02*
D03*
X17400D02*
D03*
X19900D02*
D03*
X22400D02*
D03*
X24900D02*
D03*
X27400D02*
D03*
X14900Y104275D02*
D03*
X17400D02*
D03*
X19900D02*
D03*
X22400D02*
D03*
X24900D02*
D03*
X27400D02*
D03*
X14900Y101775D02*
D03*
X17400D02*
D03*
X19900D02*
D03*
X22400D02*
D03*
X24900D02*
D03*
X27400D02*
D03*
X14900Y99275D02*
D03*
X17400D02*
D03*
X19900D02*
D03*
X22400D02*
D03*
X24900D02*
D03*
X27400D02*
D03*
X14900Y96775D02*
D03*
X17400D02*
D03*
X19900D02*
D03*
X22400D02*
D03*
X24900D02*
D03*
X27400D02*
D03*
X14900Y94275D02*
D03*
X17400D02*
D03*
X19900D02*
D03*
X22400D02*
D03*
X24900D02*
D03*
X27400D02*
D03*
X14900Y91775D02*
D03*
X17400D02*
D03*
X19900D02*
D03*
X22400D02*
D03*
X24900D02*
D03*
X27400D02*
D03*
X14900Y89275D02*
D03*
X17400D02*
D03*
X19900D02*
D03*
X22400D02*
D03*
X24900D02*
D03*
X27400D02*
D03*
X14900Y86775D02*
D03*
X17400D02*
D03*
X19900D02*
D03*
X22400D02*
D03*
X24900D02*
D03*
X27400D02*
D03*
X226025Y121300D02*
D03*
Y116300D02*
D03*
Y113800D02*
D03*
Y111300D02*
D03*
Y108800D02*
D03*
Y118800D02*
D03*
X231025Y108800D02*
D03*
X233525D02*
D03*
X236025D02*
D03*
X238525D02*
D03*
X228525D02*
D03*
X231025Y111300D02*
D03*
X233525D02*
D03*
X236025D02*
D03*
X238525D02*
D03*
X228525D02*
D03*
X231025Y113800D02*
D03*
X233525D02*
D03*
X236025D02*
D03*
X238525D02*
D03*
X228525D02*
D03*
X231025Y116300D02*
D03*
X233525D02*
D03*
X236025D02*
D03*
X238525D02*
D03*
X228525D02*
D03*
X231025Y118800D02*
D03*
X233525D02*
D03*
X236025D02*
D03*
X238525D02*
D03*
X228525D02*
D03*
X194692Y104750D02*
D03*
X110158Y58475D02*
D03*
X212650Y55425D02*
D03*
X214225Y54300D02*
D03*
D97*
X243235Y44725D02*
D03*
X229200Y39850D02*
D03*
X243235Y45995D02*
D03*
X229200Y39050D02*
D03*
X226950Y74675D02*
D03*
X226950Y75475D02*
D03*
X230550Y74050D02*
D03*
X230550Y73250D02*
D03*
X241965Y58695D02*
D03*
Y57425D02*
D03*
X228725Y77850D02*
D03*
X228725Y78650D02*
D03*
X229475Y45275D02*
D03*
X229475Y46075D02*
D03*
X229500Y49400D02*
D03*
X229500Y48600D02*
D03*
X241965Y51075D02*
D03*
X243235Y53615D02*
D03*
Y54885D02*
D03*
X240695Y47265D02*
D03*
Y48535D02*
D03*
X224875Y37325D02*
D03*
X224875Y38125D02*
D03*
X240695Y53615D02*
D03*
Y52345D02*
D03*
X229375Y35625D02*
D03*
X229375Y34825D02*
D03*
X241965Y49805D02*
D03*
X243235Y40915D02*
D03*
Y42185D02*
D03*
X241965Y44725D02*
D03*
Y43455D02*
D03*
X229475Y42750D02*
D03*
X229475Y41950D02*
D03*
X240695Y57425D02*
D03*
Y56155D02*
D03*
X241965Y61235D02*
D03*
Y59965D02*
D03*
X235075Y34850D02*
D03*
X240695Y38375D02*
D03*
X235075Y35650D02*
D03*
X240695Y39645D02*
D03*
M02*
