G04 Layer_Color=255*
%FSLAX43Y43*%
%MOMM*%
G71*
G01*
G75*
%ADD15O,1.550X0.300*%
%ADD16O,0.300X1.550*%
%ADD17R,1.000X1.500*%
%ADD18R,2.200X1.500*%
%ADD19R,2.200X3.800*%
%ADD20R,0.450X1.450*%
%ADD21R,1.500X1.000*%
%ADD22R,0.900X0.900*%
%ADD23R,0.600X1.050*%
%ADD24O,0.600X2.100*%
%ADD25O,1.550X0.350*%
%ADD26R,3.100X3.100*%
%ADD27R,0.250X0.600*%
%ADD28R,0.600X0.250*%
%ADD29C,0.400*%
%ADD35C,3.150*%
%ADD36C,1.000*%
%ADD37C,1.270*%
%ADD38C,2.000*%
%ADD39R,2.000X2.000*%
%ADD40R,2.000X2.000*%
%ADD41O,3.000X2.000*%
%ADD42R,3.000X2.000*%
%ADD43C,3.000*%
%ADD44R,3.000X3.000*%
%ADD45C,1.600*%
%ADD46R,1.600X1.600*%
%ADD47R,1.700X1.700*%
%ADD48C,1.700*%
%ADD49R,6.200X2.000*%
%ADD50R,2.000X6.200*%
D15*
X113350Y95450D02*
D03*
Y95950D02*
D03*
Y96450D02*
D03*
Y96950D02*
D03*
Y97450D02*
D03*
Y97950D02*
D03*
Y98450D02*
D03*
Y98950D02*
D03*
Y99450D02*
D03*
Y99950D02*
D03*
Y100450D02*
D03*
Y100950D02*
D03*
X105100D02*
D03*
Y100450D02*
D03*
Y99950D02*
D03*
Y99450D02*
D03*
Y98950D02*
D03*
Y98450D02*
D03*
Y97950D02*
D03*
Y97450D02*
D03*
Y96950D02*
D03*
Y96450D02*
D03*
Y95950D02*
D03*
Y95450D02*
D03*
X180850D02*
D03*
Y95950D02*
D03*
Y96450D02*
D03*
Y96950D02*
D03*
Y97450D02*
D03*
Y97950D02*
D03*
Y98450D02*
D03*
Y98950D02*
D03*
Y99450D02*
D03*
Y99950D02*
D03*
Y100450D02*
D03*
Y100950D02*
D03*
X172600D02*
D03*
Y100450D02*
D03*
Y99950D02*
D03*
Y99450D02*
D03*
Y98950D02*
D03*
Y98450D02*
D03*
Y97950D02*
D03*
Y97450D02*
D03*
Y96950D02*
D03*
Y96450D02*
D03*
Y95950D02*
D03*
Y95450D02*
D03*
X160850D02*
D03*
Y95950D02*
D03*
Y96450D02*
D03*
Y96950D02*
D03*
Y97450D02*
D03*
Y97950D02*
D03*
Y98450D02*
D03*
Y98950D02*
D03*
Y99450D02*
D03*
Y99950D02*
D03*
Y100450D02*
D03*
Y100950D02*
D03*
X152600D02*
D03*
Y100450D02*
D03*
Y99950D02*
D03*
Y99450D02*
D03*
Y98950D02*
D03*
Y98450D02*
D03*
Y97950D02*
D03*
Y97450D02*
D03*
Y96950D02*
D03*
Y96450D02*
D03*
Y95950D02*
D03*
Y95450D02*
D03*
X133350D02*
D03*
Y95950D02*
D03*
Y96450D02*
D03*
Y96950D02*
D03*
Y97450D02*
D03*
Y97950D02*
D03*
Y98450D02*
D03*
Y98950D02*
D03*
Y99450D02*
D03*
Y99950D02*
D03*
Y100450D02*
D03*
Y100950D02*
D03*
X125100D02*
D03*
Y100450D02*
D03*
Y99950D02*
D03*
Y99450D02*
D03*
Y98950D02*
D03*
Y98450D02*
D03*
Y97950D02*
D03*
Y97450D02*
D03*
Y96950D02*
D03*
Y96450D02*
D03*
Y95950D02*
D03*
Y95450D02*
D03*
X180850Y47825D02*
D03*
Y48325D02*
D03*
Y48825D02*
D03*
Y49325D02*
D03*
Y49825D02*
D03*
Y50325D02*
D03*
Y50825D02*
D03*
Y51325D02*
D03*
Y51825D02*
D03*
Y52325D02*
D03*
Y52825D02*
D03*
Y53325D02*
D03*
X172600D02*
D03*
Y52825D02*
D03*
Y52325D02*
D03*
Y51825D02*
D03*
Y51325D02*
D03*
Y50825D02*
D03*
Y50325D02*
D03*
Y49825D02*
D03*
Y49325D02*
D03*
Y48825D02*
D03*
Y48325D02*
D03*
Y47825D02*
D03*
X160850D02*
D03*
Y48325D02*
D03*
Y48825D02*
D03*
Y49325D02*
D03*
Y49825D02*
D03*
Y50325D02*
D03*
Y50825D02*
D03*
Y51325D02*
D03*
Y51825D02*
D03*
Y52325D02*
D03*
Y52825D02*
D03*
Y53325D02*
D03*
X152600D02*
D03*
Y52825D02*
D03*
Y52325D02*
D03*
Y51825D02*
D03*
Y51325D02*
D03*
Y50825D02*
D03*
Y50325D02*
D03*
Y49825D02*
D03*
Y49325D02*
D03*
Y48825D02*
D03*
Y48325D02*
D03*
Y47825D02*
D03*
X133350D02*
D03*
Y48325D02*
D03*
Y48825D02*
D03*
Y49325D02*
D03*
Y49825D02*
D03*
Y50325D02*
D03*
Y50825D02*
D03*
Y51325D02*
D03*
Y51825D02*
D03*
Y52325D02*
D03*
Y52825D02*
D03*
Y53325D02*
D03*
X125100D02*
D03*
Y52825D02*
D03*
Y52325D02*
D03*
Y51825D02*
D03*
Y51325D02*
D03*
Y50825D02*
D03*
Y50325D02*
D03*
Y49825D02*
D03*
Y49325D02*
D03*
Y48825D02*
D03*
Y48325D02*
D03*
Y47825D02*
D03*
X113350D02*
D03*
Y48325D02*
D03*
Y48825D02*
D03*
Y49325D02*
D03*
Y49825D02*
D03*
Y50325D02*
D03*
Y50825D02*
D03*
Y51325D02*
D03*
Y51825D02*
D03*
Y52325D02*
D03*
Y52825D02*
D03*
Y53325D02*
D03*
X105100D02*
D03*
Y52825D02*
D03*
Y52325D02*
D03*
Y51825D02*
D03*
Y51325D02*
D03*
Y50825D02*
D03*
Y50325D02*
D03*
Y49825D02*
D03*
Y49325D02*
D03*
Y48825D02*
D03*
Y48325D02*
D03*
Y47825D02*
D03*
D16*
X111975Y102325D02*
D03*
X111475D02*
D03*
X110975D02*
D03*
X110475D02*
D03*
X109975D02*
D03*
X109475D02*
D03*
X108975D02*
D03*
X108475D02*
D03*
X107975D02*
D03*
X107475D02*
D03*
X106975D02*
D03*
X106475D02*
D03*
Y94075D02*
D03*
X106975D02*
D03*
X107475D02*
D03*
X107975D02*
D03*
X108475D02*
D03*
X108975D02*
D03*
X109475D02*
D03*
X109975D02*
D03*
X110475D02*
D03*
X110975D02*
D03*
X111475D02*
D03*
X111975D02*
D03*
X179475Y102325D02*
D03*
X178975D02*
D03*
X178475D02*
D03*
X177975D02*
D03*
X177475D02*
D03*
X176975D02*
D03*
X176475D02*
D03*
X175975D02*
D03*
X175475D02*
D03*
X174975D02*
D03*
X174475D02*
D03*
X173975D02*
D03*
Y94075D02*
D03*
X174475D02*
D03*
X174975D02*
D03*
X175475D02*
D03*
X175975D02*
D03*
X176475D02*
D03*
X176975D02*
D03*
X177475D02*
D03*
X177975D02*
D03*
X178475D02*
D03*
X178975D02*
D03*
X179475D02*
D03*
X159475Y102325D02*
D03*
X158975D02*
D03*
X158475D02*
D03*
X157975D02*
D03*
X157475D02*
D03*
X156975D02*
D03*
X156475D02*
D03*
X155975D02*
D03*
X155475D02*
D03*
X154975D02*
D03*
X154475D02*
D03*
X153975D02*
D03*
Y94075D02*
D03*
X154475D02*
D03*
X154975D02*
D03*
X155475D02*
D03*
X155975D02*
D03*
X156475D02*
D03*
X156975D02*
D03*
X157475D02*
D03*
X157975D02*
D03*
X158475D02*
D03*
X158975D02*
D03*
X159475D02*
D03*
X131975Y102325D02*
D03*
X131475D02*
D03*
X130975D02*
D03*
X130475D02*
D03*
X129975D02*
D03*
X129475D02*
D03*
X128975D02*
D03*
X128475D02*
D03*
X127975D02*
D03*
X127475D02*
D03*
X126975D02*
D03*
X126475D02*
D03*
Y94075D02*
D03*
X126975D02*
D03*
X127475D02*
D03*
X127975D02*
D03*
X128475D02*
D03*
X128975D02*
D03*
X129475D02*
D03*
X129975D02*
D03*
X130475D02*
D03*
X130975D02*
D03*
X131475D02*
D03*
X131975D02*
D03*
X179475Y54700D02*
D03*
X178975D02*
D03*
X178475D02*
D03*
X177975D02*
D03*
X177475D02*
D03*
X176975D02*
D03*
X176475D02*
D03*
X175975D02*
D03*
X175475D02*
D03*
X174975D02*
D03*
X174475D02*
D03*
X173975D02*
D03*
Y46450D02*
D03*
X174475D02*
D03*
X174975D02*
D03*
X175475D02*
D03*
X175975D02*
D03*
X176475D02*
D03*
X176975D02*
D03*
X177475D02*
D03*
X177975D02*
D03*
X178475D02*
D03*
X178975D02*
D03*
X179475D02*
D03*
X159475Y54700D02*
D03*
X158975D02*
D03*
X158475D02*
D03*
X157975D02*
D03*
X157475D02*
D03*
X156975D02*
D03*
X156475D02*
D03*
X155975D02*
D03*
X155475D02*
D03*
X154975D02*
D03*
X154475D02*
D03*
X153975D02*
D03*
Y46450D02*
D03*
X154475D02*
D03*
X154975D02*
D03*
X155475D02*
D03*
X155975D02*
D03*
X156475D02*
D03*
X156975D02*
D03*
X157475D02*
D03*
X157975D02*
D03*
X158475D02*
D03*
X158975D02*
D03*
X159475D02*
D03*
X131975Y54700D02*
D03*
X131475D02*
D03*
X130975D02*
D03*
X130475D02*
D03*
X129975D02*
D03*
X129475D02*
D03*
X128975D02*
D03*
X128475D02*
D03*
X127975D02*
D03*
X127475D02*
D03*
X126975D02*
D03*
X126475D02*
D03*
Y46450D02*
D03*
X126975D02*
D03*
X127475D02*
D03*
X127975D02*
D03*
X128475D02*
D03*
X128975D02*
D03*
X129475D02*
D03*
X129975D02*
D03*
X130475D02*
D03*
X130975D02*
D03*
X131475D02*
D03*
X131975D02*
D03*
X111975Y54700D02*
D03*
X111475D02*
D03*
X110975D02*
D03*
X110475D02*
D03*
X109975D02*
D03*
X109475D02*
D03*
X108975D02*
D03*
X108475D02*
D03*
X107975D02*
D03*
X107475D02*
D03*
X106975D02*
D03*
X106475D02*
D03*
Y46450D02*
D03*
X106975D02*
D03*
X107475D02*
D03*
X107975D02*
D03*
X108475D02*
D03*
X108975D02*
D03*
X109475D02*
D03*
X109975D02*
D03*
X110475D02*
D03*
X110975D02*
D03*
X111475D02*
D03*
X111975D02*
D03*
D17*
X129762Y61925D02*
D03*
X131562D02*
D03*
X31525Y28350D02*
D03*
X29725D02*
D03*
X19575D02*
D03*
X17775D02*
D03*
X195025Y55825D02*
D03*
X196825D02*
D03*
X69706Y39698D02*
D03*
X67906D02*
D03*
X68381Y28325D02*
D03*
X66581D02*
D03*
X224500Y54825D02*
D03*
X226300D02*
D03*
X220750Y68950D02*
D03*
X222550D02*
D03*
X229225Y65750D02*
D03*
X227425D02*
D03*
X229625Y58450D02*
D03*
X227825D02*
D03*
X226700Y70775D02*
D03*
X228500D02*
D03*
X226675Y68725D02*
D03*
X228475D02*
D03*
X195357Y64375D02*
D03*
X197157D02*
D03*
X195357Y66450D02*
D03*
X197157D02*
D03*
X195075Y58850D02*
D03*
X196875D02*
D03*
X195025Y53850D02*
D03*
X196825D02*
D03*
X195025Y51887D02*
D03*
X196825D02*
D03*
X53325Y82975D02*
D03*
X55125D02*
D03*
X78336Y82725D02*
D03*
X76536D02*
D03*
X78336Y80100D02*
D03*
X76536D02*
D03*
X88625Y28325D02*
D03*
X86825D02*
D03*
X78825D02*
D03*
X77025D02*
D03*
X62350D02*
D03*
X60550D02*
D03*
X40475Y28350D02*
D03*
X38675D02*
D03*
X50375Y28325D02*
D03*
X48575D02*
D03*
X24525Y16600D02*
D03*
X22725D02*
D03*
X106825Y61925D02*
D03*
X108625D02*
D03*
X106825Y59800D02*
D03*
X108625D02*
D03*
X110200D02*
D03*
X112000D02*
D03*
X113600Y61925D02*
D03*
X115400D02*
D03*
X113575Y59800D02*
D03*
X115375D02*
D03*
X126350Y61925D02*
D03*
X128150D02*
D03*
X126400Y59800D02*
D03*
X128200D02*
D03*
X129788D02*
D03*
X131587D02*
D03*
X133175Y61925D02*
D03*
X134975D02*
D03*
X133175Y59800D02*
D03*
X134975D02*
D03*
X154525Y61925D02*
D03*
X156325D02*
D03*
X154525Y59800D02*
D03*
X156325D02*
D03*
X157887D02*
D03*
X159687D02*
D03*
X161275Y61925D02*
D03*
X163075D02*
D03*
X161250Y59800D02*
D03*
X163050D02*
D03*
X174050Y61925D02*
D03*
X175850D02*
D03*
X174050Y59800D02*
D03*
X175850D02*
D03*
X177475D02*
D03*
X179275D02*
D03*
X180900Y61925D02*
D03*
X182700D02*
D03*
X180900Y59800D02*
D03*
X182700D02*
D03*
X105600Y108400D02*
D03*
X107400D02*
D03*
X105600Y106250D02*
D03*
X107400D02*
D03*
X108975Y106250D02*
D03*
X110775D02*
D03*
X112350Y108400D02*
D03*
X114150D02*
D03*
X112350Y106250D02*
D03*
X114150D02*
D03*
X127575Y108550D02*
D03*
X129375D02*
D03*
X127575Y106400D02*
D03*
X129375D02*
D03*
X131050Y108550D02*
D03*
X132850D02*
D03*
X131050Y106400D02*
D03*
X132850D02*
D03*
X134550Y108550D02*
D03*
X136350D02*
D03*
X134550Y106400D02*
D03*
X136350D02*
D03*
X155125Y108550D02*
D03*
X156925D02*
D03*
X155125Y106400D02*
D03*
X156925D02*
D03*
X158625Y108550D02*
D03*
X160425D02*
D03*
X158625Y106400D02*
D03*
X160425D02*
D03*
X163950Y108550D02*
D03*
X162150D02*
D03*
X163950Y106400D02*
D03*
X162150D02*
D03*
X174050Y108550D02*
D03*
X175850D02*
D03*
X174050Y106400D02*
D03*
X175850D02*
D03*
X177475Y108550D02*
D03*
X179275D02*
D03*
X177475Y106400D02*
D03*
X179275D02*
D03*
X182700Y108550D02*
D03*
X180900D02*
D03*
X182700Y106400D02*
D03*
X180900D02*
D03*
X51236Y92400D02*
D03*
X53436D02*
D03*
X51236Y90137D02*
D03*
X53436D02*
D03*
X76786Y92400D02*
D03*
X78986D02*
D03*
X76786Y90137D02*
D03*
X78986D02*
D03*
X76786Y87875D02*
D03*
X78986D02*
D03*
X76786Y85612D02*
D03*
X78986D02*
D03*
X51236Y87875D02*
D03*
X53436D02*
D03*
X51236Y85612D02*
D03*
X53436D02*
D03*
X52925Y80850D02*
D03*
X55125D02*
D03*
X52925Y78775D02*
D03*
X55125D02*
D03*
X76511Y72225D02*
D03*
X78711D02*
D03*
Y70200D02*
D03*
X76511D02*
D03*
X78736Y78025D02*
D03*
X76536D02*
D03*
X191675Y10800D02*
D03*
X193875D02*
D03*
X191675Y13370D02*
D03*
X193875D02*
D03*
X191675Y15950D02*
D03*
X193875D02*
D03*
X191675Y18450D02*
D03*
X193875D02*
D03*
X191675Y20975D02*
D03*
X193875D02*
D03*
X191675Y23550D02*
D03*
X193875D02*
D03*
X191675Y26075D02*
D03*
X193875D02*
D03*
X191675Y28610D02*
D03*
X193875D02*
D03*
X98325Y97375D02*
D03*
X100525D02*
D03*
X98325Y99525D02*
D03*
X100525D02*
D03*
X20825Y52275D02*
D03*
X18625D02*
D03*
X98325Y95225D02*
D03*
X100525D02*
D03*
X98325Y101675D02*
D03*
X100525D02*
D03*
X186200Y54300D02*
D03*
X184000D02*
D03*
X186200Y52175D02*
D03*
X184000D02*
D03*
X186200Y50100D02*
D03*
X184000D02*
D03*
X186200Y48025D02*
D03*
X184000D02*
D03*
X108975Y108400D02*
D03*
X110775D02*
D03*
X177475Y61925D02*
D03*
X179275D02*
D03*
X157900D02*
D03*
X159700D02*
D03*
X110212D02*
D03*
X112012D02*
D03*
D18*
X19650Y63825D02*
D03*
Y61525D02*
D03*
Y66125D02*
D03*
D19*
X13450Y63825D02*
D03*
D20*
X28300Y53475D02*
D03*
X28950D02*
D03*
X29600D02*
D03*
X30250D02*
D03*
X28300Y57875D02*
D03*
X28950D02*
D03*
X29600D02*
D03*
X30250D02*
D03*
D21*
X220675Y52475D02*
D03*
Y54275D02*
D03*
X215625Y51650D02*
D03*
Y53450D02*
D03*
X222725Y52475D02*
D03*
Y54275D02*
D03*
X205600Y70775D02*
D03*
Y68975D02*
D03*
X211875Y51650D02*
D03*
Y53450D02*
D03*
X224450Y70525D02*
D03*
Y68725D02*
D03*
X207675Y70775D02*
D03*
Y68975D02*
D03*
X203550Y70775D02*
D03*
Y68975D02*
D03*
X201500Y70775D02*
D03*
Y68975D02*
D03*
X209825Y51650D02*
D03*
Y53450D02*
D03*
X199425Y70775D02*
D03*
Y68975D02*
D03*
X74511Y70425D02*
D03*
Y72225D02*
D03*
X72361Y70425D02*
D03*
Y72225D02*
D03*
X68336Y70425D02*
D03*
Y72225D02*
D03*
X66061Y70425D02*
D03*
Y72225D02*
D03*
X83000Y38325D02*
D03*
Y36525D02*
D03*
X72975Y38325D02*
D03*
Y36525D02*
D03*
X25700Y38425D02*
D03*
Y36625D02*
D03*
X56375Y38325D02*
D03*
Y36525D02*
D03*
X13740Y38340D02*
D03*
Y36540D02*
D03*
X34650Y38340D02*
D03*
Y36540D02*
D03*
X44515Y38340D02*
D03*
Y36540D02*
D03*
X22775Y12275D02*
D03*
Y14475D02*
D03*
X57761Y95000D02*
D03*
Y97200D02*
D03*
X59939Y95000D02*
D03*
Y97200D02*
D03*
X62118Y95000D02*
D03*
Y97200D02*
D03*
X64296Y95000D02*
D03*
Y97200D02*
D03*
X66475Y95000D02*
D03*
Y97200D02*
D03*
X68654Y95000D02*
D03*
Y97200D02*
D03*
X70832Y95000D02*
D03*
Y97200D02*
D03*
X73011Y95000D02*
D03*
Y97200D02*
D03*
X56911Y70000D02*
D03*
Y72200D02*
D03*
X59052Y70000D02*
D03*
Y72200D02*
D03*
X61194Y70000D02*
D03*
Y72200D02*
D03*
X63336Y70000D02*
D03*
Y72200D02*
D03*
X54275Y38725D02*
D03*
Y36525D02*
D03*
X207800Y50975D02*
D03*
Y53175D02*
D03*
X205775Y50975D02*
D03*
Y53175D02*
D03*
X203725Y50975D02*
D03*
Y53175D02*
D03*
X198775Y50975D02*
D03*
Y53175D02*
D03*
X11640Y42525D02*
D03*
Y40325D02*
D03*
Y38740D02*
D03*
Y36540D02*
D03*
X54275Y42600D02*
D03*
Y40400D02*
D03*
X23600Y38825D02*
D03*
Y36625D02*
D03*
Y42425D02*
D03*
Y40225D02*
D03*
X23075Y54475D02*
D03*
Y52275D02*
D03*
D22*
X70486Y70850D02*
D03*
Y72250D02*
D03*
D23*
X19625Y57900D02*
D03*
Y55200D02*
D03*
X18675Y57900D02*
D03*
X20575D02*
D03*
Y55200D02*
D03*
X18675D02*
D03*
D24*
X69161Y36473D02*
D03*
X67891D02*
D03*
X66621D02*
D03*
X65351D02*
D03*
X69161Y31273D02*
D03*
X67891D02*
D03*
X66621D02*
D03*
X65351D02*
D03*
D25*
X139125Y76500D02*
D03*
Y75850D02*
D03*
Y75200D02*
D03*
Y74550D02*
D03*
Y73900D02*
D03*
Y73250D02*
D03*
Y72600D02*
D03*
Y71950D02*
D03*
X144875Y76500D02*
D03*
Y75850D02*
D03*
Y75200D02*
D03*
Y74550D02*
D03*
Y73900D02*
D03*
Y73250D02*
D03*
Y72600D02*
D03*
Y71950D02*
D03*
D26*
X65236Y82625D02*
D03*
D27*
X63486Y85025D02*
D03*
X63986D02*
D03*
X64486D02*
D03*
X64986D02*
D03*
X65486D02*
D03*
X65986D02*
D03*
X66486D02*
D03*
X66986D02*
D03*
Y80225D02*
D03*
X66486D02*
D03*
X65986D02*
D03*
X65486D02*
D03*
X64986D02*
D03*
X64486D02*
D03*
X63986D02*
D03*
X63486D02*
D03*
D28*
X67636Y84375D02*
D03*
Y83875D02*
D03*
Y83375D02*
D03*
Y82875D02*
D03*
Y82375D02*
D03*
Y81875D02*
D03*
Y81375D02*
D03*
Y80875D02*
D03*
X62836D02*
D03*
Y81375D02*
D03*
Y81875D02*
D03*
Y82375D02*
D03*
Y82875D02*
D03*
Y83375D02*
D03*
Y83875D02*
D03*
Y84375D02*
D03*
D29*
X201550Y65975D02*
D03*
X202350D02*
D03*
X203150D02*
D03*
X203950D02*
D03*
X204750D02*
D03*
X205550D02*
D03*
X206350D02*
D03*
X207150D02*
D03*
X207950D02*
D03*
X208750D02*
D03*
X209550D02*
D03*
X210350D02*
D03*
X211150D02*
D03*
X211950D02*
D03*
X212750D02*
D03*
X213550D02*
D03*
X214350D02*
D03*
X215150D02*
D03*
X215950D02*
D03*
X216750D02*
D03*
X217550D02*
D03*
X218350D02*
D03*
X219150D02*
D03*
X219950D02*
D03*
X220750D02*
D03*
X221550D02*
D03*
X222350D02*
D03*
X201550Y65175D02*
D03*
X202350D02*
D03*
X203150D02*
D03*
X203950D02*
D03*
X204750D02*
D03*
X205550D02*
D03*
X206350D02*
D03*
X207150D02*
D03*
X207950D02*
D03*
X208750D02*
D03*
X209550D02*
D03*
X210350D02*
D03*
X211150D02*
D03*
X211950D02*
D03*
X212750D02*
D03*
X213550D02*
D03*
X214350D02*
D03*
X215150D02*
D03*
X215950D02*
D03*
X216750D02*
D03*
X217550D02*
D03*
X218350D02*
D03*
X219150D02*
D03*
X219950D02*
D03*
X220750D02*
D03*
X221550D02*
D03*
X222350D02*
D03*
X201550Y64375D02*
D03*
X202350D02*
D03*
X203150D02*
D03*
X203950D02*
D03*
X204750D02*
D03*
X205550D02*
D03*
X206350D02*
D03*
X207150D02*
D03*
X207950D02*
D03*
X208750D02*
D03*
X209550D02*
D03*
X210350D02*
D03*
X211150D02*
D03*
X211950D02*
D03*
X212750D02*
D03*
X213550D02*
D03*
X214350D02*
D03*
X215150D02*
D03*
X215950D02*
D03*
X216750D02*
D03*
X217550D02*
D03*
X218350D02*
D03*
X219150D02*
D03*
X219950D02*
D03*
X220750D02*
D03*
X221550D02*
D03*
X222350D02*
D03*
X201550Y63575D02*
D03*
X202350D02*
D03*
X203150D02*
D03*
X203950D02*
D03*
X204750D02*
D03*
X205550D02*
D03*
X206350D02*
D03*
X207150D02*
D03*
X207950D02*
D03*
X208750D02*
D03*
X209550D02*
D03*
X210350D02*
D03*
X211150D02*
D03*
X211950D02*
D03*
X212750D02*
D03*
X213550D02*
D03*
X214350D02*
D03*
X215150D02*
D03*
X215950D02*
D03*
X216750D02*
D03*
X217550D02*
D03*
X218350D02*
D03*
X219150D02*
D03*
X219950D02*
D03*
X220750D02*
D03*
X221550D02*
D03*
X222350D02*
D03*
X223150Y65975D02*
D03*
Y65175D02*
D03*
Y64375D02*
D03*
Y63575D02*
D03*
Y57975D02*
D03*
X222350Y57175D02*
D03*
X221550D02*
D03*
X220750D02*
D03*
X219950D02*
D03*
X219150D02*
D03*
X218350D02*
D03*
X217550D02*
D03*
X216750D02*
D03*
X215950D02*
D03*
X215150D02*
D03*
X214350D02*
D03*
X213550D02*
D03*
X212750D02*
D03*
X211950D02*
D03*
X211150D02*
D03*
X210350D02*
D03*
X209550D02*
D03*
X208750D02*
D03*
X207950D02*
D03*
X207150D02*
D03*
X206350D02*
D03*
X205550D02*
D03*
X204750D02*
D03*
X203950D02*
D03*
X203150D02*
D03*
X202350D02*
D03*
X201550D02*
D03*
X223150D02*
D03*
Y58775D02*
D03*
Y59575D02*
D03*
Y60375D02*
D03*
Y61175D02*
D03*
Y61975D02*
D03*
Y62775D02*
D03*
X222350Y57975D02*
D03*
X221550D02*
D03*
X220750D02*
D03*
X219950D02*
D03*
X219150D02*
D03*
X218350D02*
D03*
X217550D02*
D03*
X216750D02*
D03*
X215950D02*
D03*
X215150D02*
D03*
X214350D02*
D03*
X213550D02*
D03*
X212750D02*
D03*
X211950D02*
D03*
X211150D02*
D03*
X210350D02*
D03*
X209550D02*
D03*
X208750D02*
D03*
X207950D02*
D03*
X207150D02*
D03*
X206350D02*
D03*
X205550D02*
D03*
X204750D02*
D03*
X203950D02*
D03*
X203150D02*
D03*
X202350D02*
D03*
X201550D02*
D03*
X222350Y58775D02*
D03*
X221550D02*
D03*
X220750D02*
D03*
X219950D02*
D03*
X219150D02*
D03*
X218350D02*
D03*
X217550D02*
D03*
X216750D02*
D03*
X215950D02*
D03*
X215150D02*
D03*
X214350D02*
D03*
X213550D02*
D03*
X212750D02*
D03*
X211950D02*
D03*
X211150D02*
D03*
X210350D02*
D03*
X209550D02*
D03*
X208750D02*
D03*
X207950D02*
D03*
X207150D02*
D03*
X206350D02*
D03*
X205550D02*
D03*
X204750D02*
D03*
X203950D02*
D03*
X203150D02*
D03*
X202350D02*
D03*
X201550D02*
D03*
X222350Y59575D02*
D03*
X221550D02*
D03*
X220750D02*
D03*
X219950D02*
D03*
X219150D02*
D03*
X218350D02*
D03*
X217550D02*
D03*
X216750D02*
D03*
X215950D02*
D03*
X215150D02*
D03*
X214350D02*
D03*
X213550D02*
D03*
X212750D02*
D03*
X211950D02*
D03*
X211150D02*
D03*
X210350D02*
D03*
X209550D02*
D03*
X208750D02*
D03*
X207950D02*
D03*
X207150D02*
D03*
X206350D02*
D03*
X205550D02*
D03*
X204750D02*
D03*
X203950D02*
D03*
X203150D02*
D03*
X202350D02*
D03*
X201550D02*
D03*
X222350Y60375D02*
D03*
X221550D02*
D03*
X220750D02*
D03*
X219950D02*
D03*
X219150D02*
D03*
X218350D02*
D03*
X217550D02*
D03*
X216750D02*
D03*
X215950D02*
D03*
X215150D02*
D03*
X214350D02*
D03*
X213550D02*
D03*
X212750D02*
D03*
X211950D02*
D03*
X211150D02*
D03*
X210350D02*
D03*
X209550D02*
D03*
X208750D02*
D03*
X207950D02*
D03*
X207150D02*
D03*
X206350D02*
D03*
X205550D02*
D03*
X204750D02*
D03*
X203950D02*
D03*
X203150D02*
D03*
X202350D02*
D03*
X201550D02*
D03*
X222350Y61175D02*
D03*
X221550D02*
D03*
X220750D02*
D03*
X219950D02*
D03*
X219150D02*
D03*
X218350D02*
D03*
X217550D02*
D03*
X216750D02*
D03*
X215950D02*
D03*
X215150D02*
D03*
X214350D02*
D03*
X213550D02*
D03*
X212750D02*
D03*
X211950D02*
D03*
X211150D02*
D03*
X210350D02*
D03*
X209550D02*
D03*
X208750D02*
D03*
X207950D02*
D03*
X207150D02*
D03*
X206350D02*
D03*
X205550D02*
D03*
X204750D02*
D03*
X203950D02*
D03*
X203150D02*
D03*
X202350D02*
D03*
X201550D02*
D03*
X222350Y61975D02*
D03*
X221550D02*
D03*
X220750D02*
D03*
X219950D02*
D03*
X219150D02*
D03*
X218350D02*
D03*
X217550D02*
D03*
X216750D02*
D03*
X215950D02*
D03*
X215150D02*
D03*
X214350D02*
D03*
X213550D02*
D03*
X212750D02*
D03*
X211950D02*
D03*
X211150D02*
D03*
X210350D02*
D03*
X209550D02*
D03*
X208750D02*
D03*
X207950D02*
D03*
X207150D02*
D03*
X206350D02*
D03*
X205550D02*
D03*
X204750D02*
D03*
X203950D02*
D03*
X203150D02*
D03*
X202350D02*
D03*
X201550D02*
D03*
X222350Y62775D02*
D03*
X221550D02*
D03*
X220750D02*
D03*
X219950D02*
D03*
X219150D02*
D03*
X218350D02*
D03*
X217550D02*
D03*
X216750D02*
D03*
X215950D02*
D03*
X215150D02*
D03*
X214350D02*
D03*
X213550D02*
D03*
X212750D02*
D03*
X211950D02*
D03*
X211150D02*
D03*
X210350D02*
D03*
X209550D02*
D03*
X208750D02*
D03*
X207950D02*
D03*
X207150D02*
D03*
X206350D02*
D03*
X205550D02*
D03*
X204750D02*
D03*
X203950D02*
D03*
X203150D02*
D03*
X202350D02*
D03*
X201550D02*
D03*
D35*
X108825Y26025D02*
D03*
X174825Y15025D02*
D03*
Y26025D02*
D03*
X108825Y15025D02*
D03*
D36*
X117825Y14825D02*
D03*
X119425D02*
D03*
X121025D02*
D03*
X122625D02*
D03*
X124225D02*
D03*
X125825D02*
D03*
X127425D02*
D03*
X129025D02*
D03*
X130625D02*
D03*
X132225D02*
D03*
X133825D02*
D03*
X135425D02*
D03*
X137025D02*
D03*
X138625D02*
D03*
X140225D02*
D03*
X141825D02*
D03*
X143425D02*
D03*
X145025D02*
D03*
X146625D02*
D03*
X148225D02*
D03*
X149825D02*
D03*
X151425D02*
D03*
X153025D02*
D03*
X154625D02*
D03*
X156225D02*
D03*
X157825D02*
D03*
X159425D02*
D03*
X161025D02*
D03*
X162625D02*
D03*
X164225D02*
D03*
X165825D02*
D03*
X167425D02*
D03*
X116225D02*
D03*
X118625Y15875D02*
D03*
X120225D02*
D03*
X121825D02*
D03*
X123425D02*
D03*
X125025D02*
D03*
X126625D02*
D03*
X128225D02*
D03*
X129825D02*
D03*
X131425D02*
D03*
X133025D02*
D03*
X134625D02*
D03*
X136225D02*
D03*
X137825D02*
D03*
X139425D02*
D03*
X141025D02*
D03*
X142625D02*
D03*
X144225D02*
D03*
X145825D02*
D03*
X147425D02*
D03*
X149025D02*
D03*
X150625D02*
D03*
X152225D02*
D03*
X153825D02*
D03*
X155425D02*
D03*
X157025D02*
D03*
X158625D02*
D03*
X160225D02*
D03*
X161825D02*
D03*
X163425D02*
D03*
X165025D02*
D03*
X166625D02*
D03*
X116225Y16975D02*
D03*
X117025Y15875D02*
D03*
X167425Y16975D02*
D03*
X165825D02*
D03*
X164225D02*
D03*
X162625D02*
D03*
X161025D02*
D03*
X159425D02*
D03*
X157825D02*
D03*
X156225D02*
D03*
X154625D02*
D03*
X153025D02*
D03*
X151425D02*
D03*
X149825D02*
D03*
X148225D02*
D03*
X146625D02*
D03*
X145025D02*
D03*
X143425D02*
D03*
X141825D02*
D03*
X140225D02*
D03*
X138625D02*
D03*
X137025D02*
D03*
X135425D02*
D03*
X133825D02*
D03*
X132225D02*
D03*
X130625D02*
D03*
X129025D02*
D03*
X127425D02*
D03*
X125825D02*
D03*
X124225D02*
D03*
X122625D02*
D03*
X121025D02*
D03*
X119425D02*
D03*
X117825D02*
D03*
X117025Y18025D02*
D03*
X166625D02*
D03*
X165025D02*
D03*
X163425D02*
D03*
X161825D02*
D03*
X160225D02*
D03*
X158625D02*
D03*
X157025D02*
D03*
X155425D02*
D03*
X153825D02*
D03*
X152225D02*
D03*
X150625D02*
D03*
X149025D02*
D03*
X147425D02*
D03*
X145825D02*
D03*
X144225D02*
D03*
X142625D02*
D03*
X141025D02*
D03*
X139425D02*
D03*
X137825D02*
D03*
X136225D02*
D03*
X134625D02*
D03*
X133025D02*
D03*
X131425D02*
D03*
X129825D02*
D03*
X128225D02*
D03*
X126625D02*
D03*
X125025D02*
D03*
X123425D02*
D03*
X121825D02*
D03*
X120225D02*
D03*
X118625D02*
D03*
Y23025D02*
D03*
X120225D02*
D03*
X121825D02*
D03*
X123425D02*
D03*
X125025D02*
D03*
X126625D02*
D03*
X128225D02*
D03*
X129825D02*
D03*
X131425D02*
D03*
X133025D02*
D03*
X134625D02*
D03*
X136225D02*
D03*
X137825D02*
D03*
X139425D02*
D03*
X141025D02*
D03*
X142625D02*
D03*
X144225D02*
D03*
X145825D02*
D03*
X147425D02*
D03*
X149025D02*
D03*
X150625D02*
D03*
X152225D02*
D03*
X153825D02*
D03*
X155425D02*
D03*
X157025D02*
D03*
X158625D02*
D03*
X160225D02*
D03*
X161825D02*
D03*
X163425D02*
D03*
X165025D02*
D03*
X166625D02*
D03*
X117025D02*
D03*
X117825Y24075D02*
D03*
X119425D02*
D03*
X121025D02*
D03*
X122625D02*
D03*
X124225D02*
D03*
X125825D02*
D03*
X127425D02*
D03*
X129025D02*
D03*
X130625D02*
D03*
X132225D02*
D03*
X133825D02*
D03*
X135425D02*
D03*
X137025D02*
D03*
X138625D02*
D03*
X140225D02*
D03*
X141825D02*
D03*
X143425D02*
D03*
X145025D02*
D03*
X146625D02*
D03*
X148225D02*
D03*
X149825D02*
D03*
X151425D02*
D03*
X153025D02*
D03*
X154625D02*
D03*
X156225D02*
D03*
X157825D02*
D03*
X159425D02*
D03*
X161025D02*
D03*
X162625D02*
D03*
X164225D02*
D03*
X165825D02*
D03*
X167425D02*
D03*
X117025Y25175D02*
D03*
X116225Y24075D02*
D03*
X166625Y25175D02*
D03*
X165025D02*
D03*
X163425D02*
D03*
X161825D02*
D03*
X160225D02*
D03*
X158625D02*
D03*
X157025D02*
D03*
X155425D02*
D03*
X153825D02*
D03*
X152225D02*
D03*
X150625D02*
D03*
X149025D02*
D03*
X147425D02*
D03*
X145825D02*
D03*
X144225D02*
D03*
X142625D02*
D03*
X141025D02*
D03*
X139425D02*
D03*
X137825D02*
D03*
X136225D02*
D03*
X134625D02*
D03*
X133025D02*
D03*
X131425D02*
D03*
X129825D02*
D03*
X128225D02*
D03*
X126625D02*
D03*
X125025D02*
D03*
X123425D02*
D03*
X121825D02*
D03*
X120225D02*
D03*
X118625D02*
D03*
X116225Y26225D02*
D03*
X167425D02*
D03*
X165825D02*
D03*
X164225D02*
D03*
X162625D02*
D03*
X161025D02*
D03*
X159425D02*
D03*
X157825D02*
D03*
X156225D02*
D03*
X154625D02*
D03*
X153025D02*
D03*
X151425D02*
D03*
X149825D02*
D03*
X148225D02*
D03*
X146625D02*
D03*
X145025D02*
D03*
X143425D02*
D03*
X141825D02*
D03*
X140225D02*
D03*
X138625D02*
D03*
X137025D02*
D03*
X135425D02*
D03*
X133825D02*
D03*
X132225D02*
D03*
X130625D02*
D03*
X129025D02*
D03*
X127425D02*
D03*
X125825D02*
D03*
X124225D02*
D03*
X122625D02*
D03*
X121025D02*
D03*
X119425D02*
D03*
X117825D02*
D03*
D37*
X242475Y89696D02*
D03*
X239425Y35314D02*
D03*
D38*
X50521Y120150D02*
D03*
Y117610D02*
D03*
X47981Y120150D02*
D03*
Y117610D02*
D03*
X45441Y120150D02*
D03*
Y117610D02*
D03*
X32741Y120150D02*
D03*
X35281Y117610D02*
D03*
Y120150D02*
D03*
X37821Y117610D02*
D03*
Y120150D02*
D03*
X40361Y117610D02*
D03*
Y120150D02*
D03*
X42901Y117610D02*
D03*
Y120150D02*
D03*
X90111Y119975D02*
D03*
Y117435D02*
D03*
X87571Y119975D02*
D03*
Y117435D02*
D03*
X85031Y119975D02*
D03*
Y117435D02*
D03*
X82491Y119975D02*
D03*
Y117435D02*
D03*
X79951Y119975D02*
D03*
X92651Y117435D02*
D03*
Y119975D02*
D03*
X95191Y117435D02*
D03*
Y119975D02*
D03*
X97731Y117435D02*
D03*
Y119975D02*
D03*
X189175Y13370D02*
D03*
Y31150D02*
D03*
Y28610D02*
D03*
Y26070D02*
D03*
Y23530D02*
D03*
Y20990D02*
D03*
Y18450D02*
D03*
Y15910D02*
D03*
X208215Y2125D02*
D03*
X210755D02*
D03*
X213295D02*
D03*
X199645D02*
D03*
X197105D02*
D03*
X194565D02*
D03*
X248050Y30760D02*
D03*
Y10440D02*
D03*
Y28220D02*
D03*
Y25680D02*
D03*
Y23140D02*
D03*
Y20600D02*
D03*
Y18060D02*
D03*
Y15520D02*
D03*
Y12980D02*
D03*
X197475Y122350D02*
D03*
X200015D02*
D03*
X208715D02*
D03*
X211255D02*
D03*
X213795D02*
D03*
X206175D02*
D03*
X203635D02*
D03*
X86436Y75730D02*
D03*
Y78270D02*
D03*
Y80810D02*
D03*
Y73190D02*
D03*
Y70650D02*
D03*
X49118Y82382D02*
D03*
Y77302D02*
D03*
Y74762D02*
D03*
Y67142D02*
D03*
Y69682D02*
D03*
Y72222D02*
D03*
Y79842D02*
D03*
X43140Y52300D02*
D03*
X63460D02*
D03*
X45680D02*
D03*
X48220D02*
D03*
X50760D02*
D03*
X53300D02*
D03*
X55840D02*
D03*
X58380D02*
D03*
X60920D02*
D03*
D39*
X32741Y117610D02*
D03*
X79951Y117435D02*
D03*
X205675Y2125D02*
D03*
X202185D02*
D03*
X194935Y122350D02*
D03*
X216335D02*
D03*
X66000Y52300D02*
D03*
D40*
X189175Y10830D02*
D03*
X248050Y7900D02*
D03*
X86436Y83350D02*
D03*
X49118Y64602D02*
D03*
D41*
X86825Y33985D02*
D03*
Y36525D02*
D03*
X77000Y33985D02*
D03*
Y36525D02*
D03*
X29725Y34085D02*
D03*
Y36625D02*
D03*
X60400Y33985D02*
D03*
Y36525D02*
D03*
X38675Y33985D02*
D03*
Y36525D02*
D03*
X17765Y33985D02*
D03*
Y36525D02*
D03*
X48540Y33985D02*
D03*
Y36525D02*
D03*
D42*
X86825Y39065D02*
D03*
X77000D02*
D03*
X29725Y39165D02*
D03*
X60400Y39065D02*
D03*
X38675Y39065D02*
D03*
X17765D02*
D03*
X48540D02*
D03*
D43*
X13000Y122000D02*
D03*
X247000D02*
D03*
Y3000D02*
D03*
X13000D02*
D03*
X27750Y5050D02*
D03*
X224275Y5125D02*
D03*
X236150D02*
D03*
X143600Y120075D02*
D03*
D44*
X22750Y5050D02*
D03*
X219275Y5125D02*
D03*
X231150D02*
D03*
X148600Y120075D02*
D03*
D45*
X185975Y78510D02*
D03*
X183435D02*
D03*
X185975Y81050D02*
D03*
X183435D02*
D03*
X185975Y83590D02*
D03*
X183435D02*
D03*
X185975Y86130D02*
D03*
X183435D02*
D03*
X185975Y88670D02*
D03*
X183435Y75970D02*
D03*
X185975D02*
D03*
X183435Y73430D02*
D03*
X185975D02*
D03*
X183435Y70890D02*
D03*
X185975D02*
D03*
X183435Y68350D02*
D03*
X185975D02*
D03*
X183435Y65810D02*
D03*
X185975D02*
D03*
D46*
X183435Y88670D02*
D03*
D47*
X29645Y62625D02*
D03*
X30820Y47875D02*
D03*
D48*
X27105Y62625D02*
D03*
X28280Y47875D02*
D03*
D49*
X36800Y7975D02*
D03*
Y14275D02*
D03*
D50*
X41800Y11275D02*
D03*
M02*
