G04 Layer_Color=32768*
%FSLAX43Y43*%
%MOMM*%
G71*
G01*
G75*
%ADD58C,0.100*%
%ADD101C,0.050*%
D58*
X227700Y55725D02*
X228700D01*
X228200Y55225D02*
Y56225D01*
X225400Y54325D02*
Y55325D01*
X224900Y54825D02*
X225900D01*
X114375Y93050D02*
Y103350D01*
X104075Y93050D02*
Y103350D01*
Y93050D02*
X114375D01*
X104075Y103350D02*
X114375D01*
X108725Y98200D02*
X109725D01*
X109225Y97700D02*
Y98700D01*
X130662Y61425D02*
Y62425D01*
X130163Y61925D02*
X131163D01*
X30625Y27850D02*
Y28850D01*
X30125Y28350D02*
X31125D01*
X18675Y27850D02*
Y28850D01*
X18175Y28350D02*
X19175D01*
X146725Y73000D02*
X147725D01*
X147225Y72500D02*
Y73500D01*
X144575Y73000D02*
X145575D01*
X145075Y72500D02*
Y73500D01*
X195925Y55325D02*
Y56325D01*
X195425Y55825D02*
X196425D01*
X28775Y55675D02*
X29775D01*
X29275Y55175D02*
Y56175D01*
X68806Y39198D02*
Y40198D01*
X68306Y39698D02*
X69306D01*
X67481Y27825D02*
Y28825D01*
X66981Y28325D02*
X67981D01*
X225400Y54325D02*
Y55325D01*
X224900Y54825D02*
X225900D01*
X221650Y68450D02*
Y69450D01*
X221150Y68950D02*
X222150D01*
X228325Y65250D02*
Y66250D01*
X227825Y65750D02*
X228825D01*
X228725Y57950D02*
Y58950D01*
X228225Y58450D02*
X229225D01*
X227600Y70275D02*
Y71275D01*
X227100Y70775D02*
X228100D01*
X227575Y68225D02*
Y69225D01*
X227075Y68725D02*
X228075D01*
X220175Y53375D02*
X221175D01*
X220675Y52875D02*
Y53875D01*
X215125Y52550D02*
X216125D01*
X215625Y52050D02*
Y53050D01*
X222225Y53375D02*
X223225D01*
X222725Y52875D02*
Y53875D01*
X205100Y69875D02*
X206100D01*
X205600Y69375D02*
Y70375D01*
X211375Y52550D02*
X212375D01*
X211875Y52050D02*
Y53050D01*
X223950Y69625D02*
X224950D01*
X224450Y69125D02*
Y70125D01*
X207175Y69875D02*
X208175D01*
X207675Y69375D02*
Y70375D01*
X203050Y69875D02*
X204050D01*
X203550Y69375D02*
Y70375D01*
X201000Y69875D02*
X202000D01*
X201500Y69375D02*
Y70375D01*
X209325Y52550D02*
X210325D01*
X209825Y52050D02*
Y53050D01*
X196257Y63875D02*
Y64875D01*
X195757Y64375D02*
X196757D01*
X196257Y65950D02*
Y66950D01*
X195757Y66450D02*
X196757D01*
X195975Y58350D02*
Y59350D01*
X195475Y58850D02*
X196475D01*
X198925Y69875D02*
X199925D01*
X199425Y69375D02*
Y70375D01*
X195925Y53350D02*
Y54350D01*
X195425Y53850D02*
X196425D01*
X195925Y51387D02*
Y52387D01*
X195425Y51887D02*
X196425D01*
X54225Y82475D02*
Y83475D01*
X53725Y82975D02*
X54725D01*
X77436Y82225D02*
Y83225D01*
X76936Y82725D02*
X77936D01*
X77436Y79600D02*
Y80600D01*
X76936Y80100D02*
X77936D01*
X74011Y71325D02*
X75011D01*
X74511Y70825D02*
Y71825D01*
X71861Y71325D02*
X72861D01*
X72361Y70825D02*
Y71825D01*
X67836Y71325D02*
X68836D01*
X68336Y70825D02*
Y71825D01*
X65561Y71325D02*
X66561D01*
X66061Y70825D02*
Y71825D01*
X82500Y37425D02*
X83500D01*
X83000Y36925D02*
Y37925D01*
X87725Y27825D02*
Y28825D01*
X87225Y28325D02*
X88225D01*
X72475Y37425D02*
X73475D01*
X72975Y36925D02*
Y37925D01*
X77925Y27825D02*
Y28825D01*
X77425Y28325D02*
X78425D01*
X25200Y37525D02*
X26200D01*
X25700Y37025D02*
Y38025D01*
X55875Y37425D02*
X56875D01*
X56375Y36925D02*
Y37925D01*
X61450Y27825D02*
Y28825D01*
X60950Y28325D02*
X61950D01*
X13240Y37440D02*
X14240D01*
X13740Y36940D02*
Y37940D01*
X34150Y37440D02*
X35150D01*
X34650Y36940D02*
Y37940D01*
X39575Y27850D02*
Y28850D01*
X39075Y28350D02*
X40075D01*
X44015Y37440D02*
X45015D01*
X44515Y36940D02*
Y37940D01*
X49475Y27825D02*
Y28825D01*
X48975Y28325D02*
X49975D01*
X64550Y29924D02*
X69950D01*
X64550Y37754D02*
X69950D01*
X64550Y29924D02*
Y37754D01*
X69950Y29924D02*
Y37754D01*
X67250Y33375D02*
Y34375D01*
X66750Y33875D02*
X67750D01*
X23625Y16100D02*
Y17100D01*
X23125Y16600D02*
X24125D01*
X22775Y12875D02*
Y13875D01*
X22275Y13375D02*
X23275D01*
X107725Y61425D02*
Y62425D01*
X107225Y61925D02*
X108225D01*
X107725Y59300D02*
Y60300D01*
X107225Y59800D02*
X108225D01*
X111100Y59300D02*
Y60300D01*
X110600Y59800D02*
X111600D01*
X114500Y61425D02*
Y62425D01*
X114000Y61925D02*
X115000D01*
X114475Y59300D02*
Y60300D01*
X113975Y59800D02*
X114975D01*
X127250Y61425D02*
Y62425D01*
X126750Y61925D02*
X127750D01*
X127300Y59300D02*
Y60300D01*
X126800Y59800D02*
X127800D01*
X130687Y59300D02*
Y60300D01*
X130187Y59800D02*
X131187D01*
X134075Y61425D02*
Y62425D01*
X133575Y61925D02*
X134575D01*
X134075Y59300D02*
Y60300D01*
X133575Y59800D02*
X134575D01*
X155425Y61425D02*
Y62425D01*
X154925Y61925D02*
X155925D01*
X155425Y59300D02*
Y60300D01*
X154925Y59800D02*
X155925D01*
X158787Y59300D02*
Y60300D01*
X158287Y59800D02*
X159287D01*
X162175Y61425D02*
Y62425D01*
X161675Y61925D02*
X162675D01*
X162150Y59300D02*
Y60300D01*
X161650Y59800D02*
X162650D01*
X174950Y61425D02*
Y62425D01*
X174450Y61925D02*
X175450D01*
X174950Y59300D02*
Y60300D01*
X174450Y59800D02*
X175450D01*
X178375Y59300D02*
Y60300D01*
X177875Y59800D02*
X178875D01*
X181800Y61425D02*
Y62425D01*
X181300Y61925D02*
X182300D01*
X181800Y59300D02*
Y60300D01*
X181300Y59800D02*
X182300D01*
X106500Y107900D02*
Y108900D01*
X106000Y108400D02*
X107000D01*
X106500Y105750D02*
Y106750D01*
X106000Y106250D02*
X107000D01*
X109875Y105750D02*
Y106750D01*
X109375Y106250D02*
X110375D01*
X113250Y107900D02*
Y108900D01*
X112750Y108400D02*
X113750D01*
X113250Y105750D02*
Y106750D01*
X112750Y106250D02*
X113750D01*
X128475Y108050D02*
Y109050D01*
X127975Y108550D02*
X128975D01*
X128475Y105900D02*
Y106900D01*
X127975Y106400D02*
X128975D01*
X131950Y108050D02*
Y109050D01*
X131450Y108550D02*
X132450D01*
X131950Y105900D02*
Y106900D01*
X131450Y106400D02*
X132450D01*
X135450Y108050D02*
Y109050D01*
X134950Y108550D02*
X135950D01*
X135450Y105900D02*
Y106900D01*
X134950Y106400D02*
X135950D01*
X138100Y71425D02*
Y77025D01*
X145900Y71425D02*
Y77025D01*
X138100D02*
X145900D01*
X138100Y71425D02*
X145900D01*
X141500Y74225D02*
X142500D01*
X142000Y73725D02*
Y74725D01*
X156025Y108050D02*
Y109050D01*
X155525Y108550D02*
X156525D01*
X156025Y105900D02*
Y106900D01*
X155525Y106400D02*
X156525D01*
X159525Y108050D02*
Y109050D01*
X159025Y108550D02*
X160025D01*
X159525Y105900D02*
Y106900D01*
X159025Y106400D02*
X160025D01*
X163050Y108050D02*
Y109050D01*
X162550Y108550D02*
X163550D01*
X163050Y105900D02*
Y106900D01*
X162550Y106400D02*
X163550D01*
X174950Y108050D02*
Y109050D01*
X174450Y108550D02*
X175450D01*
X174950Y105900D02*
Y106900D01*
X174450Y106400D02*
X175450D01*
X178375Y108050D02*
Y109050D01*
X177875Y108550D02*
X178875D01*
X178375Y105900D02*
Y106900D01*
X177875Y106400D02*
X178875D01*
X181800Y108050D02*
Y109050D01*
X181300Y108550D02*
X182300D01*
X181800Y105900D02*
Y106900D01*
X181300Y106400D02*
X182300D01*
X181875Y93050D02*
Y103350D01*
X171575Y93050D02*
Y103350D01*
Y93050D02*
X181875D01*
X171575Y103350D02*
X181875D01*
X176225Y98200D02*
X177225D01*
X176725Y97700D02*
Y98700D01*
X161875Y93050D02*
Y103350D01*
X151575Y93050D02*
Y103350D01*
Y93050D02*
X161875D01*
X151575Y103350D02*
X161875D01*
X156225Y98200D02*
X157225D01*
X156725Y97700D02*
Y98700D01*
X134375Y93050D02*
Y103350D01*
X124075Y93050D02*
Y103350D01*
Y93050D02*
X134375D01*
X124075Y103350D02*
X134375D01*
X128725Y98200D02*
X129725D01*
X129225Y97700D02*
Y98700D01*
X181875Y45425D02*
Y55725D01*
X171575Y45425D02*
Y55725D01*
Y45425D02*
X181875D01*
X171575Y55725D02*
X181875D01*
X176225Y50575D02*
X177225D01*
X176725Y50075D02*
Y51075D01*
X161875Y45425D02*
Y55725D01*
X151575Y45425D02*
Y55725D01*
Y45425D02*
X161875D01*
X151575Y55725D02*
X161875D01*
X156225Y50575D02*
X157225D01*
X156725Y50075D02*
Y51075D01*
X134375Y45425D02*
Y55725D01*
X124075Y45425D02*
Y55725D01*
Y45425D02*
X134375D01*
X124075Y55725D02*
X134375D01*
X128725Y50575D02*
X129725D01*
X129225Y50075D02*
Y51075D01*
X114375Y45425D02*
Y55725D01*
X104075Y45425D02*
Y55725D01*
Y45425D02*
X114375D01*
X104075Y55725D02*
X114375D01*
X108725Y50575D02*
X109725D01*
X109225Y50075D02*
Y51075D01*
X51836Y92400D02*
X52836D01*
X52336Y91900D02*
Y92900D01*
X51836Y90137D02*
X52836D01*
X52336Y89637D02*
Y90637D01*
X57761Y95600D02*
Y96600D01*
X57261Y96100D02*
X58261D01*
X59939Y95600D02*
Y96600D01*
X59439Y96100D02*
X60439D01*
X62118Y95600D02*
Y96600D01*
X61618Y96100D02*
X62618D01*
X64296Y95600D02*
Y96600D01*
X63796Y96100D02*
X64796D01*
X66475Y95600D02*
Y96600D01*
X65975Y96100D02*
X66975D01*
X68654Y95600D02*
Y96600D01*
X68154Y96100D02*
X69154D01*
X70832Y95600D02*
Y96600D01*
X70332Y96100D02*
X71332D01*
X73011Y95600D02*
Y96600D01*
X72511Y96100D02*
X73511D01*
X77386Y92400D02*
X78386D01*
X77886Y91900D02*
Y92900D01*
X77386Y90137D02*
X78386D01*
X77886Y89637D02*
Y90637D01*
X77386Y87875D02*
X78386D01*
X77886Y87375D02*
Y88375D01*
X77386Y85612D02*
X78386D01*
X77886Y85112D02*
Y86112D01*
X51836Y87875D02*
X52836D01*
X52336Y87375D02*
Y88375D01*
X51836Y85612D02*
X52836D01*
X52336Y85112D02*
Y86112D01*
X53525Y80850D02*
X54525D01*
X54025Y80350D02*
Y81350D01*
X53525Y78775D02*
X54525D01*
X54025Y78275D02*
Y79275D01*
X56911Y70600D02*
Y71600D01*
X56411Y71100D02*
X57411D01*
X59052Y70600D02*
Y71600D01*
X58552Y71100D02*
X59552D01*
X61194Y70600D02*
Y71600D01*
X60694Y71100D02*
X61694D01*
X63336Y70600D02*
Y71600D01*
X62836Y71100D02*
X63836D01*
X54275Y37125D02*
Y38125D01*
X53775Y37625D02*
X54775D01*
X207800Y51575D02*
Y52575D01*
X207300Y52075D02*
X208300D01*
X205775Y51575D02*
Y52575D01*
X205275Y52075D02*
X206275D01*
X203725Y51575D02*
Y52575D01*
X203225Y52075D02*
X204225D01*
X198775Y51575D02*
Y52575D01*
X198275Y52075D02*
X199275D01*
X11640Y40925D02*
Y41925D01*
X11140Y41425D02*
X12140D01*
X11640Y37140D02*
Y38140D01*
X11140Y37640D02*
X12140D01*
X54275Y41000D02*
Y42000D01*
X53775Y41500D02*
X54775D01*
X77111Y72225D02*
X78111D01*
X77611Y71725D02*
Y72725D01*
X77111Y70200D02*
X78111D01*
X77611Y69700D02*
Y70700D01*
X77136Y78025D02*
X78136D01*
X77636Y77525D02*
Y78525D01*
X23600Y37225D02*
Y38225D01*
X23100Y37725D02*
X24100D01*
X23600Y40825D02*
Y41825D01*
X23100Y41325D02*
X24100D01*
X192275Y10800D02*
X193275D01*
X192775Y10300D02*
Y11300D01*
X192275Y13370D02*
X193275D01*
X192775Y12870D02*
Y13870D01*
X192275Y15950D02*
X193275D01*
X192775Y15450D02*
Y16450D01*
X192275Y18450D02*
X193275D01*
X192775Y17950D02*
Y18950D01*
X192275Y20975D02*
X193275D01*
X192775Y20475D02*
Y21475D01*
X192275Y23550D02*
X193275D01*
X192775Y23050D02*
Y24050D01*
X192275Y26075D02*
X193275D01*
X192775Y25575D02*
Y26575D01*
X192275Y28610D02*
X193275D01*
X192775Y28110D02*
Y29110D01*
X98925Y97375D02*
X99925D01*
X99425Y96875D02*
Y97875D01*
X98925Y99525D02*
X99925D01*
X99425Y99025D02*
Y100025D01*
X19225Y52275D02*
X20225D01*
X19725Y51775D02*
Y52775D01*
X23075Y52875D02*
Y53875D01*
X22575Y53375D02*
X23575D01*
X98925Y95225D02*
X99925D01*
X99425Y94725D02*
Y95725D01*
X98925Y101675D02*
X99925D01*
X99425Y101175D02*
Y102175D01*
X184600Y54300D02*
X185600D01*
X185100Y53800D02*
Y54800D01*
X184600Y52175D02*
X185600D01*
X185100Y51675D02*
Y52675D01*
X184600Y50100D02*
X185600D01*
X185100Y49600D02*
Y50600D01*
X184600Y48025D02*
X185600D01*
X185100Y47525D02*
Y48525D01*
X109875Y107900D02*
Y108900D01*
X109375Y108400D02*
X110375D01*
X178375Y61425D02*
Y62425D01*
X177875Y61925D02*
X178875D01*
X158800Y61425D02*
Y62425D01*
X158300Y61925D02*
X159300D01*
X111112Y61425D02*
Y62425D01*
X110612Y61925D02*
X111612D01*
X65236Y82125D02*
Y83125D01*
X64736Y82625D02*
X65736D01*
X62136Y79525D02*
X68336D01*
X62136Y85725D02*
X68336D01*
Y79525D02*
Y85725D01*
X62136Y79525D02*
Y85725D01*
D101*
X231835Y34365D02*
Y90645D01*
Y34365D02*
X238415D01*
Y33475D02*
Y34365D01*
Y33475D02*
X240435D01*
Y34365D01*
X247015D01*
Y90645D01*
X231835D02*
X247015D01*
X27475Y52525D02*
Y58825D01*
X31075Y52525D02*
Y58825D01*
X27475Y52525D02*
X31075D01*
X27475Y58825D02*
X31075D01*
M02*
