G04 Layer_Color=16711935*
%FSLAX43Y43*%
%MOMM*%
G71*
G01*
G75*
%ADD13C,0.200*%
%ADD32C,0.150*%
%ADD58C,0.100*%
D13*
X232085Y34615D02*
Y90395D01*
Y34615D02*
X238665D01*
X240185D01*
X246765D01*
Y90395D01*
X232085D02*
X246765D01*
X238665Y33725D02*
Y34615D01*
Y33725D02*
X240185D01*
Y34615D01*
X232085D02*
Y90395D01*
Y34615D02*
X238665D01*
X240185D01*
X246765D01*
Y90395D01*
X232085D02*
X246765D01*
X238665Y33725D02*
Y34615D01*
Y33725D02*
X240185D01*
Y34615D01*
X41800Y475D02*
Y14275D01*
D32*
X228825Y55725D02*
Y56725D01*
X227575D02*
X228825D01*
X227575Y54725D02*
Y56725D01*
Y54725D02*
X228825D01*
Y55725D01*
X224400Y55450D02*
X225400D01*
X224400Y54200D02*
Y55450D01*
Y54200D02*
X226400D01*
Y55450D01*
X225400D02*
X226400D01*
X129662Y61300D02*
X130662D01*
X129662D02*
Y62550D01*
X131662D01*
Y61300D02*
Y62550D01*
X130662Y61300D02*
X131662D01*
X30625Y28975D02*
X31625D01*
Y27725D02*
Y28975D01*
X29625Y27725D02*
X31625D01*
X29625D02*
Y28975D01*
X30625D01*
X18675D02*
X19675D01*
Y27725D02*
Y28975D01*
X17675Y27725D02*
X19675D01*
X17675D02*
Y28975D01*
X18675D01*
X147850Y73000D02*
Y74000D01*
X146600D02*
X147850D01*
X146600Y72000D02*
Y74000D01*
Y72000D02*
X147850D01*
Y73000D01*
X145700D02*
Y74000D01*
X144450D02*
X145700D01*
X144450Y72000D02*
Y74000D01*
Y72000D02*
X145700D01*
Y73000D01*
X194925Y55200D02*
X195925D01*
X194925D02*
Y56450D01*
X196925D01*
Y55200D02*
Y56450D01*
X195925Y55200D02*
X196925D01*
X68806Y40323D02*
X69806D01*
Y39073D02*
Y40323D01*
X67806Y39073D02*
X69806D01*
X67806D02*
Y40323D01*
X68806D01*
X67481Y28950D02*
X68481D01*
Y27700D02*
Y28950D01*
X66481Y27700D02*
X68481D01*
X66481D02*
Y28950D01*
X67481D01*
X224400Y54200D02*
X225400D01*
X224400D02*
Y55450D01*
X226400D01*
Y54200D02*
Y55450D01*
X225400Y54200D02*
X226400D01*
X220650Y68325D02*
X221650D01*
X220650D02*
Y69575D01*
X222650D01*
Y68325D02*
Y69575D01*
X221650Y68325D02*
X222650D01*
X228325Y66375D02*
X229325D01*
Y65125D02*
Y66375D01*
X227325Y65125D02*
X229325D01*
X227325D02*
Y66375D01*
X228325D01*
X228725Y59075D02*
X229725D01*
Y57825D02*
Y59075D01*
X227725Y57825D02*
X229725D01*
X227725D02*
Y59075D01*
X228725D01*
X226600Y70150D02*
X227600D01*
X226600D02*
Y71400D01*
X228600D01*
Y70150D02*
Y71400D01*
X227600Y70150D02*
X228600D01*
X226575Y68100D02*
X227575D01*
X226575D02*
Y69350D01*
X228575D01*
Y68100D02*
Y69350D01*
X227575Y68100D02*
X228575D01*
X221300Y52375D02*
Y53375D01*
X220050Y52375D02*
X221300D01*
X220050D02*
Y54375D01*
X221300D01*
Y53375D02*
Y54375D01*
X216250Y51550D02*
Y52550D01*
X215000Y51550D02*
X216250D01*
X215000D02*
Y53550D01*
X216250D01*
Y52550D02*
Y53550D01*
X223350Y52375D02*
Y53375D01*
X222100Y52375D02*
X223350D01*
X222100D02*
Y54375D01*
X223350D01*
Y53375D02*
Y54375D01*
X204975Y69875D02*
Y70875D01*
X206225D01*
Y68875D02*
Y70875D01*
X204975Y68875D02*
X206225D01*
X204975D02*
Y69875D01*
X212500Y51550D02*
Y52550D01*
X211250Y51550D02*
X212500D01*
X211250D02*
Y53550D01*
X212500D01*
Y52550D02*
Y53550D01*
X223825Y69625D02*
Y70625D01*
X225075D01*
Y68625D02*
Y70625D01*
X223825Y68625D02*
X225075D01*
X223825D02*
Y69625D01*
X207050Y69875D02*
Y70875D01*
X208300D01*
Y68875D02*
Y70875D01*
X207050Y68875D02*
X208300D01*
X207050D02*
Y69875D01*
X202925D02*
Y70875D01*
X204175D01*
Y68875D02*
Y70875D01*
X202925Y68875D02*
X204175D01*
X202925D02*
Y69875D01*
X200875D02*
Y70875D01*
X202125D01*
Y68875D02*
Y70875D01*
X200875Y68875D02*
X202125D01*
X200875D02*
Y69875D01*
X210450Y51550D02*
Y52550D01*
X209200Y51550D02*
X210450D01*
X209200D02*
Y53550D01*
X210450D01*
Y52550D02*
Y53550D01*
X195257Y63750D02*
X196257D01*
X195257D02*
Y65000D01*
X197257D01*
Y63750D02*
Y65000D01*
X196257Y63750D02*
X197257D01*
X195257Y65825D02*
X196257D01*
X195257D02*
Y67075D01*
X197257D01*
Y65825D02*
Y67075D01*
X196257Y65825D02*
X197257D01*
X194975Y58225D02*
X195975D01*
X194975D02*
Y59475D01*
X196975D01*
Y58225D02*
Y59475D01*
X195975Y58225D02*
X196975D01*
X198800Y69875D02*
Y70875D01*
X200050D01*
Y68875D02*
Y70875D01*
X198800Y68875D02*
X200050D01*
X198800D02*
Y69875D01*
X194925Y53225D02*
X195925D01*
X194925D02*
Y54475D01*
X196925D01*
Y53225D02*
Y54475D01*
X195925Y53225D02*
X196925D01*
X194925Y51262D02*
X195925D01*
X194925D02*
Y52512D01*
X196925D01*
Y51262D02*
Y52512D01*
X195925Y51262D02*
X196925D01*
X53225Y82350D02*
X54225D01*
X53225D02*
Y83600D01*
X55225D01*
Y82350D02*
Y83600D01*
X54225Y82350D02*
X55225D01*
X77436Y83350D02*
X78436D01*
Y82100D02*
Y83350D01*
X76436Y82100D02*
X78436D01*
X76436D02*
Y83350D01*
X77436D01*
Y80725D02*
X78436D01*
Y79475D02*
Y80725D01*
X76436Y79475D02*
X78436D01*
X76436D02*
Y80725D01*
X77436D01*
X75136Y70325D02*
Y71325D01*
X73886Y70325D02*
X75136D01*
X73886D02*
Y72325D01*
X75136D01*
Y71325D02*
Y72325D01*
X72986Y70325D02*
Y71325D01*
X71736Y70325D02*
X72986D01*
X71736D02*
Y72325D01*
X72986D01*
Y71325D02*
Y72325D01*
X68961Y70325D02*
Y71325D01*
X67711Y70325D02*
X68961D01*
X67711D02*
Y72325D01*
X68961D01*
Y71325D02*
Y72325D01*
X66686Y70325D02*
Y71325D01*
X65436Y70325D02*
X66686D01*
X65436D02*
Y72325D01*
X66686D01*
Y71325D02*
Y72325D01*
X82375Y37425D02*
Y38425D01*
X83625D01*
Y36425D02*
Y38425D01*
X82375Y36425D02*
X83625D01*
X82375D02*
Y37425D01*
X87725Y28950D02*
X88725D01*
Y27700D02*
Y28950D01*
X86725Y27700D02*
X88725D01*
X86725D02*
Y28950D01*
X87725D01*
X72350Y37425D02*
Y38425D01*
X73600D01*
Y36425D02*
Y38425D01*
X72350Y36425D02*
X73600D01*
X72350D02*
Y37425D01*
X77925Y28950D02*
X78925D01*
Y27700D02*
Y28950D01*
X76925Y27700D02*
X78925D01*
X76925D02*
Y28950D01*
X77925D01*
X25075Y37525D02*
Y38525D01*
X26325D01*
Y36525D02*
Y38525D01*
X25075Y36525D02*
X26325D01*
X25075D02*
Y37525D01*
X55750Y37425D02*
Y38425D01*
X57000D01*
Y36425D02*
Y38425D01*
X55750Y36425D02*
X57000D01*
X55750D02*
Y37425D01*
X61450Y28950D02*
X62450D01*
Y27700D02*
Y28950D01*
X60450Y27700D02*
X62450D01*
X60450D02*
Y28950D01*
X61450D01*
X13115Y37440D02*
Y38440D01*
X14365D01*
Y36440D02*
Y38440D01*
X13115Y36440D02*
X14365D01*
X13115D02*
Y37440D01*
X34025D02*
Y38440D01*
X35275D01*
Y36440D02*
Y38440D01*
X34025Y36440D02*
X35275D01*
X34025D02*
Y37440D01*
X39575Y28975D02*
X40575D01*
Y27725D02*
Y28975D01*
X38575Y27725D02*
X40575D01*
X38575D02*
Y28975D01*
X39575D01*
X43890Y37440D02*
Y38440D01*
X45140D01*
Y36440D02*
Y38440D01*
X43890Y36440D02*
X45140D01*
X43890D02*
Y37440D01*
X49475Y28950D02*
X50475D01*
Y27700D02*
Y28950D01*
X48475Y27700D02*
X50475D01*
X48475D02*
Y28950D01*
X49475D01*
X23625Y17225D02*
X24625D01*
Y15975D02*
Y17225D01*
X22625Y15975D02*
X24625D01*
X22625D02*
Y17225D01*
X23625D01*
X106725Y61300D02*
X107725D01*
X106725D02*
Y62550D01*
X108725D01*
Y61300D02*
Y62550D01*
X107725Y61300D02*
X108725D01*
X106725Y59175D02*
X107725D01*
X106725D02*
Y60425D01*
X108725D01*
Y59175D02*
Y60425D01*
X107725Y59175D02*
X108725D01*
X110100D02*
X111100D01*
X110100D02*
Y60425D01*
X112100D01*
Y59175D02*
Y60425D01*
X111100Y59175D02*
X112100D01*
X113500Y61300D02*
X114500D01*
X113500D02*
Y62550D01*
X115500D01*
Y61300D02*
Y62550D01*
X114500Y61300D02*
X115500D01*
X113475Y59175D02*
X114475D01*
X113475D02*
Y60425D01*
X115475D01*
Y59175D02*
Y60425D01*
X114475Y59175D02*
X115475D01*
X126250Y61300D02*
X127250D01*
X126250D02*
Y62550D01*
X128250D01*
Y61300D02*
Y62550D01*
X127250Y61300D02*
X128250D01*
X126300Y59175D02*
X127300D01*
X126300D02*
Y60425D01*
X128300D01*
Y59175D02*
Y60425D01*
X127300Y59175D02*
X128300D01*
X129687D02*
X130687D01*
X129687D02*
Y60425D01*
X131687D01*
Y59175D02*
Y60425D01*
X130687Y59175D02*
X131687D01*
X133075Y61300D02*
X134075D01*
X133075D02*
Y62550D01*
X135075D01*
Y61300D02*
Y62550D01*
X134075Y61300D02*
X135075D01*
X133075Y59175D02*
X134075D01*
X133075D02*
Y60425D01*
X135075D01*
Y59175D02*
Y60425D01*
X134075Y59175D02*
X135075D01*
X154425Y61300D02*
X155425D01*
X154425D02*
Y62550D01*
X156425D01*
Y61300D02*
Y62550D01*
X155425Y61300D02*
X156425D01*
X154425Y59175D02*
X155425D01*
X154425D02*
Y60425D01*
X156425D01*
Y59175D02*
Y60425D01*
X155425Y59175D02*
X156425D01*
X157787D02*
X158787D01*
X157787D02*
Y60425D01*
X159787D01*
Y59175D02*
Y60425D01*
X158787Y59175D02*
X159787D01*
X161175Y61300D02*
X162175D01*
X161175D02*
Y62550D01*
X163175D01*
Y61300D02*
Y62550D01*
X162175Y61300D02*
X163175D01*
X161150Y59175D02*
X162150D01*
X161150D02*
Y60425D01*
X163150D01*
Y59175D02*
Y60425D01*
X162150Y59175D02*
X163150D01*
X173950Y61300D02*
X174950D01*
X173950D02*
Y62550D01*
X175950D01*
Y61300D02*
Y62550D01*
X174950Y61300D02*
X175950D01*
X173950Y59175D02*
X174950D01*
X173950D02*
Y60425D01*
X175950D01*
Y59175D02*
Y60425D01*
X174950Y59175D02*
X175950D01*
X177375D02*
X178375D01*
X177375D02*
Y60425D01*
X179375D01*
Y59175D02*
Y60425D01*
X178375Y59175D02*
X179375D01*
X180800Y61300D02*
X181800D01*
X180800D02*
Y62550D01*
X182800D01*
Y61300D02*
Y62550D01*
X181800Y61300D02*
X182800D01*
X180800Y59175D02*
X181800D01*
X180800D02*
Y60425D01*
X182800D01*
Y59175D02*
Y60425D01*
X181800Y59175D02*
X182800D01*
X105500Y107775D02*
X106500D01*
X105500D02*
Y109025D01*
X107500D01*
Y107775D02*
Y109025D01*
X106500Y107775D02*
X107500D01*
X105500Y105625D02*
X106500D01*
X105500D02*
Y106875D01*
X107500D01*
Y105625D02*
Y106875D01*
X106500Y105625D02*
X107500D01*
X108875Y105625D02*
X109875D01*
X108875D02*
Y106875D01*
X110875D01*
Y105625D02*
Y106875D01*
X109875Y105625D02*
X110875D01*
X112250Y107775D02*
X113250D01*
X112250D02*
Y109025D01*
X114250D01*
Y107775D02*
Y109025D01*
X113250Y107775D02*
X114250D01*
X112250Y105625D02*
X113250D01*
X112250D02*
Y106875D01*
X114250D01*
Y105625D02*
Y106875D01*
X113250Y105625D02*
X114250D01*
X127475Y107925D02*
X128475D01*
X127475D02*
Y109175D01*
X129475D01*
Y107925D02*
Y109175D01*
X128475Y107925D02*
X129475D01*
X127475Y105775D02*
X128475D01*
X127475D02*
Y107025D01*
X129475D01*
Y105775D02*
Y107025D01*
X128475Y105775D02*
X129475D01*
X130950Y107925D02*
X131950D01*
X130950D02*
Y109175D01*
X132950D01*
Y107925D02*
Y109175D01*
X131950Y107925D02*
X132950D01*
X130950Y105775D02*
X131950D01*
X130950D02*
Y107025D01*
X132950D01*
Y105775D02*
Y107025D01*
X131950Y105775D02*
X132950D01*
X134450Y107925D02*
X135450D01*
X134450D02*
Y109175D01*
X136450D01*
Y107925D02*
Y109175D01*
X135450Y107925D02*
X136450D01*
X134450Y105775D02*
X135450D01*
X134450D02*
Y107025D01*
X136450D01*
Y105775D02*
Y107025D01*
X135450Y105775D02*
X136450D01*
X155025Y107925D02*
X156025D01*
X155025D02*
Y109175D01*
X157025D01*
Y107925D02*
Y109175D01*
X156025Y107925D02*
X157025D01*
X155025Y105775D02*
X156025D01*
X155025D02*
Y107025D01*
X157025D01*
Y105775D02*
Y107025D01*
X156025Y105775D02*
X157025D01*
X158525Y107925D02*
X159525D01*
X158525D02*
Y109175D01*
X160525D01*
Y107925D02*
Y109175D01*
X159525Y107925D02*
X160525D01*
X158525Y105775D02*
X159525D01*
X158525D02*
Y107025D01*
X160525D01*
Y105775D02*
Y107025D01*
X159525Y105775D02*
X160525D01*
X163050Y109175D02*
X164050D01*
Y107925D02*
Y109175D01*
X162050Y107925D02*
X164050D01*
X162050D02*
Y109175D01*
X163050D01*
X163050Y107025D02*
X164050D01*
Y105775D02*
Y107025D01*
X162050Y105775D02*
X164050D01*
X162050D02*
Y107025D01*
X163050D01*
X173950Y107925D02*
X174950D01*
X173950D02*
Y109175D01*
X175950D01*
Y107925D02*
Y109175D01*
X174950Y107925D02*
X175950D01*
X173950Y105775D02*
X174950D01*
X173950D02*
Y107025D01*
X175950D01*
Y105775D02*
Y107025D01*
X174950Y105775D02*
X175950D01*
X177375Y107925D02*
X178375D01*
X177375D02*
Y109175D01*
X179375D01*
Y107925D02*
Y109175D01*
X178375Y107925D02*
X179375D01*
X177375Y105775D02*
X178375D01*
X177375D02*
Y107025D01*
X179375D01*
Y105775D02*
Y107025D01*
X178375Y105775D02*
X179375D01*
X181800Y109175D02*
X182800D01*
Y107925D02*
Y109175D01*
X180800Y107925D02*
X182800D01*
X180800D02*
Y109175D01*
X181800D01*
Y107025D02*
X182800D01*
Y105775D02*
Y107025D01*
X180800Y105775D02*
X182800D01*
X180800D02*
Y107025D01*
X181800D01*
X108875Y107775D02*
X109875D01*
X108875D02*
Y109025D01*
X110875D01*
Y107775D02*
Y109025D01*
X109875Y107775D02*
X110875D01*
X177375Y61300D02*
X178375D01*
X177375D02*
Y62550D01*
X179375D01*
Y61300D02*
Y62550D01*
X178375Y61300D02*
X179375D01*
X157800D02*
X158800D01*
X157800D02*
Y62550D01*
X159800D01*
Y61300D02*
Y62550D01*
X158800Y61300D02*
X159800D01*
X110112D02*
X111112D01*
X110112D02*
Y62550D01*
X112112D01*
Y61300D02*
Y62550D01*
X111112Y61300D02*
X112112D01*
D58*
X112275Y95650D02*
G03*
X112275Y95650I-500J0D01*
G01*
X30425Y56325D02*
G03*
X30425Y56325I-500J0D01*
G01*
X66250Y32875D02*
G03*
X66250Y32875I-500J0D01*
G01*
X141200Y75825D02*
G03*
X141200Y75825I-500J0D01*
G01*
X179775Y95650D02*
G03*
X179775Y95650I-500J0D01*
G01*
X159775D02*
G03*
X159775Y95650I-500J0D01*
G01*
X132275D02*
G03*
X132275Y95650I-500J0D01*
G01*
X179775Y48025D02*
G03*
X179775Y48025I-500J0D01*
G01*
X159775D02*
G03*
X159775Y48025I-500J0D01*
G01*
X132275D02*
G03*
X132275Y48025I-500J0D01*
G01*
X112275D02*
G03*
X112275Y48025I-500J0D01*
G01*
X64186Y84175D02*
G03*
X64186Y84175I-500J0D01*
G01*
X112725Y94700D02*
Y101700D01*
X105725Y94700D02*
Y101700D01*
Y94700D02*
X112725D01*
X105725Y101700D02*
X112725D01*
X20200Y60475D02*
Y67175D01*
X12900Y60475D02*
X20200D01*
X12900Y67175D02*
X20200Y67175D01*
X12900Y60475D02*
Y67175D01*
X27725Y54125D02*
Y57225D01*
X30825Y54125D02*
Y57225D01*
X27725Y54125D02*
X30825D01*
X27725Y57225D02*
X30825D01*
X64800Y31699D02*
X69700D01*
X64800Y36033D02*
X69700D01*
X64800Y31699D02*
Y36033D01*
X69700Y31699D02*
Y36033D01*
X22075Y12300D02*
X23475D01*
X22075Y14450D02*
X23475D01*
X22075Y12300D02*
Y14450D01*
X23475Y12300D02*
Y14450D01*
X139750Y71675D02*
Y76775D01*
X144250Y71675D02*
Y76775D01*
X139750D02*
X144250D01*
X139750Y71675D02*
X144250D01*
X180225Y94700D02*
Y101700D01*
X173225Y94700D02*
Y101700D01*
Y94700D02*
X180225D01*
X173225Y101700D02*
X180225D01*
X160225Y94700D02*
Y101700D01*
X153225Y94700D02*
Y101700D01*
Y94700D02*
X160225D01*
X153225Y101700D02*
X160225D01*
X132725Y94700D02*
Y101700D01*
X125725Y94700D02*
Y101700D01*
Y94700D02*
X132725D01*
X125725Y101700D02*
X132725D01*
X180225Y47075D02*
Y54075D01*
X173225Y47075D02*
Y54075D01*
Y47075D02*
X180225D01*
X173225Y54075D02*
X180225D01*
X160225Y47075D02*
Y54075D01*
X153225Y47075D02*
Y54075D01*
Y47075D02*
X160225D01*
X153225Y54075D02*
X160225D01*
X132725Y47075D02*
Y54075D01*
X125725Y47075D02*
Y54075D01*
Y47075D02*
X132725D01*
X125725Y54075D02*
X132725D01*
X112725Y47075D02*
Y54075D01*
X105725Y47075D02*
Y54075D01*
Y47075D02*
X112725D01*
X105725Y54075D02*
X112725D01*
X51261Y91700D02*
Y93100D01*
X53411Y91700D02*
Y93100D01*
X51261D02*
X53411D01*
X51261Y91700D02*
X53411D01*
X51261Y89437D02*
Y90837D01*
X53411Y89437D02*
Y90837D01*
X51261D02*
X53411D01*
X51261Y89437D02*
X53411D01*
X57061Y95025D02*
X58461D01*
X57061Y97175D02*
X58461D01*
X57061Y95025D02*
Y97175D01*
X58461Y95025D02*
Y97175D01*
X59239Y95025D02*
X60639D01*
X59239Y97175D02*
X60639D01*
X59239Y95025D02*
Y97175D01*
X60639Y95025D02*
Y97175D01*
X61418Y95025D02*
X62818D01*
X61418Y97175D02*
X62818D01*
X61418Y95025D02*
Y97175D01*
X62818Y95025D02*
Y97175D01*
X63596Y95025D02*
X64996D01*
X63596Y97175D02*
X64996D01*
X63596Y95025D02*
Y97175D01*
X64996Y95025D02*
Y97175D01*
X65775Y95025D02*
X67175D01*
X65775Y97175D02*
X67175D01*
X65775Y95025D02*
Y97175D01*
X67175Y95025D02*
Y97175D01*
X67954Y95025D02*
X69354D01*
X67954Y97175D02*
X69354D01*
X67954Y95025D02*
Y97175D01*
X69354Y95025D02*
Y97175D01*
X70132Y95025D02*
X71532D01*
X70132Y97175D02*
X71532D01*
X70132Y95025D02*
Y97175D01*
X71532Y95025D02*
Y97175D01*
X72311Y95025D02*
X73711D01*
X72311Y97175D02*
X73711D01*
X72311Y95025D02*
Y97175D01*
X73711Y95025D02*
Y97175D01*
X76811Y91700D02*
Y93100D01*
X78961Y91700D02*
Y93100D01*
X76811D02*
X78961D01*
X76811Y91700D02*
X78961D01*
X76811Y89437D02*
Y90837D01*
X78961Y89437D02*
Y90837D01*
X76811D02*
X78961D01*
X76811Y89437D02*
X78961D01*
X76811Y87175D02*
Y88575D01*
X78961Y87175D02*
Y88575D01*
X76811D02*
X78961D01*
X76811Y87175D02*
X78961D01*
X76811Y84912D02*
Y86312D01*
X78961Y84912D02*
Y86312D01*
X76811D02*
X78961D01*
X76811Y84912D02*
X78961D01*
X51261Y87175D02*
Y88575D01*
X53411Y87175D02*
Y88575D01*
X51261D02*
X53411D01*
X51261Y87175D02*
X53411D01*
X51261Y84912D02*
Y86312D01*
X53411Y84912D02*
Y86312D01*
X51261D02*
X53411D01*
X51261Y84912D02*
X53411D01*
X52950Y80150D02*
Y81550D01*
X55100Y80150D02*
Y81550D01*
X52950D02*
X55100D01*
X52950Y80150D02*
X55100D01*
X52950Y78075D02*
Y79475D01*
X55100Y78075D02*
Y79475D01*
X52950D02*
X55100D01*
X52950Y78075D02*
X55100D01*
X56211Y70025D02*
X57611D01*
X56211Y72175D02*
X57611D01*
X56211Y70025D02*
Y72175D01*
X57611Y70025D02*
Y72175D01*
X58352Y70025D02*
X59752D01*
X58352Y72175D02*
X59752D01*
X58352Y70025D02*
Y72175D01*
X59752Y70025D02*
Y72175D01*
X60494Y70025D02*
X61894D01*
X60494Y72175D02*
X61894D01*
X60494Y70025D02*
Y72175D01*
X61894Y70025D02*
Y72175D01*
X62636Y70025D02*
X64036D01*
X62636Y72175D02*
X64036D01*
X62636Y70025D02*
Y72175D01*
X64036Y70025D02*
Y72175D01*
X53575Y38700D02*
X54975D01*
X53575Y36550D02*
X54975D01*
Y38700D01*
X53575Y36550D02*
Y38700D01*
X207100Y51000D02*
X208500D01*
X207100Y53150D02*
X208500D01*
X207100Y51000D02*
Y53150D01*
X208500Y51000D02*
Y53150D01*
X205075Y51000D02*
X206475D01*
X205075Y53150D02*
X206475D01*
X205075Y51000D02*
Y53150D01*
X206475Y51000D02*
Y53150D01*
X203025Y51000D02*
X204425D01*
X203025Y53150D02*
X204425D01*
X203025Y51000D02*
Y53150D01*
X204425Y51000D02*
Y53150D01*
X198075Y51000D02*
X199475D01*
X198075Y53150D02*
X199475D01*
X198075Y51000D02*
Y53150D01*
X199475Y51000D02*
Y53150D01*
X10940Y42500D02*
X12340D01*
X10940Y40350D02*
X12340D01*
Y42500D01*
X10940Y40350D02*
Y42500D01*
Y38715D02*
X12340D01*
X10940Y36565D02*
X12340D01*
Y38715D01*
X10940Y36565D02*
Y38715D01*
X53575Y42575D02*
X54975D01*
X53575Y40425D02*
X54975D01*
Y42575D01*
X53575Y40425D02*
Y42575D01*
X76536Y71525D02*
Y72925D01*
X78686Y71525D02*
Y72925D01*
X76536D02*
X78686D01*
X76536Y71525D02*
X78686D01*
X78686Y69500D02*
Y70900D01*
X76536Y69500D02*
Y70900D01*
Y69500D02*
X78686D01*
X76536Y70900D02*
X78686D01*
X78711Y77325D02*
Y78725D01*
X76561Y77325D02*
Y78725D01*
Y77325D02*
X78711D01*
X76561Y78725D02*
X78711D01*
X22900Y38800D02*
X24300D01*
X22900Y36650D02*
X24300D01*
Y38800D01*
X22900Y36650D02*
Y38800D01*
Y42400D02*
X24300D01*
X22900Y40250D02*
X24300D01*
Y42400D01*
X22900Y40250D02*
Y42400D01*
X191700Y10100D02*
Y11500D01*
X193850Y10100D02*
Y11500D01*
X191700D02*
X193850D01*
X191700Y10100D02*
X193850D01*
X191700Y12670D02*
Y14070D01*
X193850Y12670D02*
Y14070D01*
X191700D02*
X193850D01*
X191700Y12670D02*
X193850D01*
X191700Y15250D02*
Y16650D01*
X193850Y15250D02*
Y16650D01*
X191700D02*
X193850D01*
X191700Y15250D02*
X193850D01*
X191700Y17750D02*
Y19150D01*
X193850Y17750D02*
Y19150D01*
X191700D02*
X193850D01*
X191700Y17750D02*
X193850D01*
X191700Y20275D02*
Y21675D01*
X193850Y20275D02*
Y21675D01*
X191700D02*
X193850D01*
X191700Y20275D02*
X193850D01*
X191700Y22850D02*
Y24250D01*
X193850Y22850D02*
Y24250D01*
X191700D02*
X193850D01*
X191700Y22850D02*
X193850D01*
X191700Y25375D02*
Y26775D01*
X193850Y25375D02*
Y26775D01*
X191700D02*
X193850D01*
X191700Y25375D02*
X193850D01*
X191700Y27910D02*
Y29310D01*
X193850Y27910D02*
Y29310D01*
X191700D02*
X193850D01*
X191700Y27910D02*
X193850D01*
X98350Y96675D02*
Y98075D01*
X100500Y96675D02*
Y98075D01*
X98350D02*
X100500D01*
X98350Y96675D02*
X100500D01*
X98350Y98825D02*
Y100225D01*
X100500Y98825D02*
Y100225D01*
X98350D02*
X100500D01*
X98350Y98825D02*
X100500D01*
X20800Y51575D02*
Y52975D01*
X18650Y51575D02*
Y52975D01*
Y51575D02*
X20800D01*
X18650Y52975D02*
X20800D01*
X22375Y54450D02*
X23775D01*
X22375Y52300D02*
X23775D01*
Y54450D01*
X22375Y52300D02*
Y54450D01*
X98350Y94525D02*
Y95925D01*
X100500Y94525D02*
Y95925D01*
X98350D02*
X100500D01*
X98350Y94525D02*
X100500D01*
X98350Y100975D02*
Y102375D01*
X100500Y100975D02*
Y102375D01*
X98350D02*
X100500D01*
X98350Y100975D02*
X100500D01*
X186175Y53600D02*
Y55000D01*
X184025Y53600D02*
Y55000D01*
Y53600D02*
X186175D01*
X184025Y55000D02*
X186175D01*
Y51475D02*
Y52875D01*
X184025Y51475D02*
Y52875D01*
Y51475D02*
X186175D01*
X184025Y52875D02*
X186175D01*
Y49400D02*
Y50800D01*
X184025Y49400D02*
Y50800D01*
Y49400D02*
X186175D01*
X184025Y50800D02*
X186175D01*
Y47325D02*
Y48725D01*
X184025Y47325D02*
Y48725D01*
Y47325D02*
X186175D01*
X184025Y48725D02*
X186175D01*
X62736Y80125D02*
X67736D01*
X62736Y85125D02*
X67736D01*
Y80125D02*
Y85125D01*
X62736Y80125D02*
Y85125D01*
M02*
