G04 Layer_Color=255*
%FSLAX43Y43*%
%MOMM*%
G71*
G01*
G75*
%ADD17R,1.000X1.500*%
%ADD21R,1.500X1.000*%
%ADD35C,3.150*%
%ADD36C,1.000*%
%ADD37C,1.270*%
%ADD38C,2.000*%
%ADD39R,2.000X2.000*%
%ADD40R,2.000X2.000*%
%ADD41O,3.000X2.000*%
%ADD42R,3.000X2.000*%
%ADD43C,3.000*%
%ADD44R,3.000X3.000*%
%ADD45C,1.600*%
%ADD46R,1.600X1.600*%
%ADD47R,1.700X1.700*%
%ADD48C,1.700*%
%ADD49R,6.200X2.000*%
%ADD50R,2.000X6.200*%
%ADD56C,0.640*%
D17*
X224500Y54825D02*
D03*
X226300D02*
D03*
D21*
X228200Y56625D02*
D03*
Y54825D02*
D03*
X147225Y73900D02*
D03*
Y72100D02*
D03*
X145075Y73900D02*
D03*
Y72100D02*
D03*
D35*
X108825Y26025D02*
D03*
X174825Y15025D02*
D03*
Y26025D02*
D03*
X108825Y15025D02*
D03*
D36*
X117825Y14825D02*
D03*
X119425D02*
D03*
X121025D02*
D03*
X122625D02*
D03*
X124225D02*
D03*
X125825D02*
D03*
X127425D02*
D03*
X129025D02*
D03*
X130625D02*
D03*
X132225D02*
D03*
X133825D02*
D03*
X135425D02*
D03*
X137025D02*
D03*
X138625D02*
D03*
X140225D02*
D03*
X141825D02*
D03*
X143425D02*
D03*
X145025D02*
D03*
X146625D02*
D03*
X148225D02*
D03*
X149825D02*
D03*
X151425D02*
D03*
X153025D02*
D03*
X154625D02*
D03*
X156225D02*
D03*
X157825D02*
D03*
X159425D02*
D03*
X161025D02*
D03*
X162625D02*
D03*
X164225D02*
D03*
X165825D02*
D03*
X167425D02*
D03*
X116225D02*
D03*
X118625Y15875D02*
D03*
X120225D02*
D03*
X121825D02*
D03*
X123425D02*
D03*
X125025D02*
D03*
X126625D02*
D03*
X128225D02*
D03*
X129825D02*
D03*
X131425D02*
D03*
X133025D02*
D03*
X134625D02*
D03*
X136225D02*
D03*
X137825D02*
D03*
X139425D02*
D03*
X141025D02*
D03*
X142625D02*
D03*
X144225D02*
D03*
X145825D02*
D03*
X147425D02*
D03*
X149025D02*
D03*
X150625D02*
D03*
X152225D02*
D03*
X153825D02*
D03*
X155425D02*
D03*
X157025D02*
D03*
X158625D02*
D03*
X160225D02*
D03*
X161825D02*
D03*
X163425D02*
D03*
X165025D02*
D03*
X166625D02*
D03*
X116225Y16975D02*
D03*
X117025Y15875D02*
D03*
X167425Y16975D02*
D03*
X165825D02*
D03*
X164225D02*
D03*
X162625D02*
D03*
X161025D02*
D03*
X159425D02*
D03*
X157825D02*
D03*
X156225D02*
D03*
X154625D02*
D03*
X153025D02*
D03*
X151425D02*
D03*
X149825D02*
D03*
X148225D02*
D03*
X146625D02*
D03*
X145025D02*
D03*
X143425D02*
D03*
X141825D02*
D03*
X140225D02*
D03*
X138625D02*
D03*
X137025D02*
D03*
X135425D02*
D03*
X133825D02*
D03*
X132225D02*
D03*
X130625D02*
D03*
X129025D02*
D03*
X127425D02*
D03*
X125825D02*
D03*
X124225D02*
D03*
X122625D02*
D03*
X121025D02*
D03*
X119425D02*
D03*
X117825D02*
D03*
X117025Y18025D02*
D03*
X166625D02*
D03*
X165025D02*
D03*
X163425D02*
D03*
X161825D02*
D03*
X160225D02*
D03*
X158625D02*
D03*
X157025D02*
D03*
X155425D02*
D03*
X153825D02*
D03*
X152225D02*
D03*
X150625D02*
D03*
X149025D02*
D03*
X147425D02*
D03*
X145825D02*
D03*
X144225D02*
D03*
X142625D02*
D03*
X141025D02*
D03*
X139425D02*
D03*
X137825D02*
D03*
X136225D02*
D03*
X134625D02*
D03*
X133025D02*
D03*
X131425D02*
D03*
X129825D02*
D03*
X128225D02*
D03*
X126625D02*
D03*
X125025D02*
D03*
X123425D02*
D03*
X121825D02*
D03*
X120225D02*
D03*
X118625D02*
D03*
Y23025D02*
D03*
X120225D02*
D03*
X121825D02*
D03*
X123425D02*
D03*
X125025D02*
D03*
X126625D02*
D03*
X128225D02*
D03*
X129825D02*
D03*
X131425D02*
D03*
X133025D02*
D03*
X134625D02*
D03*
X136225D02*
D03*
X137825D02*
D03*
X139425D02*
D03*
X141025D02*
D03*
X142625D02*
D03*
X144225D02*
D03*
X145825D02*
D03*
X147425D02*
D03*
X149025D02*
D03*
X150625D02*
D03*
X152225D02*
D03*
X153825D02*
D03*
X155425D02*
D03*
X157025D02*
D03*
X158625D02*
D03*
X160225D02*
D03*
X161825D02*
D03*
X163425D02*
D03*
X165025D02*
D03*
X166625D02*
D03*
X117025D02*
D03*
X117825Y24075D02*
D03*
X119425D02*
D03*
X121025D02*
D03*
X122625D02*
D03*
X124225D02*
D03*
X125825D02*
D03*
X127425D02*
D03*
X129025D02*
D03*
X130625D02*
D03*
X132225D02*
D03*
X133825D02*
D03*
X135425D02*
D03*
X137025D02*
D03*
X138625D02*
D03*
X140225D02*
D03*
X141825D02*
D03*
X143425D02*
D03*
X145025D02*
D03*
X146625D02*
D03*
X148225D02*
D03*
X149825D02*
D03*
X151425D02*
D03*
X153025D02*
D03*
X154625D02*
D03*
X156225D02*
D03*
X157825D02*
D03*
X159425D02*
D03*
X161025D02*
D03*
X162625D02*
D03*
X164225D02*
D03*
X165825D02*
D03*
X167425D02*
D03*
X117025Y25175D02*
D03*
X116225Y24075D02*
D03*
X166625Y25175D02*
D03*
X165025D02*
D03*
X163425D02*
D03*
X161825D02*
D03*
X160225D02*
D03*
X158625D02*
D03*
X157025D02*
D03*
X155425D02*
D03*
X153825D02*
D03*
X152225D02*
D03*
X150625D02*
D03*
X149025D02*
D03*
X147425D02*
D03*
X145825D02*
D03*
X144225D02*
D03*
X142625D02*
D03*
X141025D02*
D03*
X139425D02*
D03*
X137825D02*
D03*
X136225D02*
D03*
X134625D02*
D03*
X133025D02*
D03*
X131425D02*
D03*
X129825D02*
D03*
X128225D02*
D03*
X126625D02*
D03*
X125025D02*
D03*
X123425D02*
D03*
X121825D02*
D03*
X120225D02*
D03*
X118625D02*
D03*
X116225Y26225D02*
D03*
X167425D02*
D03*
X165825D02*
D03*
X164225D02*
D03*
X162625D02*
D03*
X161025D02*
D03*
X159425D02*
D03*
X157825D02*
D03*
X156225D02*
D03*
X154625D02*
D03*
X153025D02*
D03*
X151425D02*
D03*
X149825D02*
D03*
X148225D02*
D03*
X146625D02*
D03*
X145025D02*
D03*
X143425D02*
D03*
X141825D02*
D03*
X140225D02*
D03*
X138625D02*
D03*
X137025D02*
D03*
X135425D02*
D03*
X133825D02*
D03*
X132225D02*
D03*
X130625D02*
D03*
X129025D02*
D03*
X127425D02*
D03*
X125825D02*
D03*
X124225D02*
D03*
X122625D02*
D03*
X121025D02*
D03*
X119425D02*
D03*
X117825D02*
D03*
D37*
X242475Y89696D02*
D03*
X239425Y35314D02*
D03*
D38*
X50521Y120150D02*
D03*
Y117610D02*
D03*
X47981Y120150D02*
D03*
Y117610D02*
D03*
X45441Y120150D02*
D03*
Y117610D02*
D03*
X32741Y120150D02*
D03*
X35281Y117610D02*
D03*
Y120150D02*
D03*
X37821Y117610D02*
D03*
Y120150D02*
D03*
X40361Y117610D02*
D03*
Y120150D02*
D03*
X42901Y117610D02*
D03*
Y120150D02*
D03*
X90111Y119975D02*
D03*
Y117435D02*
D03*
X87571Y119975D02*
D03*
Y117435D02*
D03*
X85031Y119975D02*
D03*
Y117435D02*
D03*
X82491Y119975D02*
D03*
Y117435D02*
D03*
X79951Y119975D02*
D03*
X92651Y117435D02*
D03*
Y119975D02*
D03*
X95191Y117435D02*
D03*
Y119975D02*
D03*
X97731Y117435D02*
D03*
Y119975D02*
D03*
X189175Y13370D02*
D03*
Y31150D02*
D03*
Y28610D02*
D03*
Y26070D02*
D03*
Y23530D02*
D03*
Y20990D02*
D03*
Y18450D02*
D03*
Y15910D02*
D03*
X208215Y2125D02*
D03*
X210755D02*
D03*
X213295D02*
D03*
X199645D02*
D03*
X197105D02*
D03*
X194565D02*
D03*
X248050Y30760D02*
D03*
Y10440D02*
D03*
Y28220D02*
D03*
Y25680D02*
D03*
Y23140D02*
D03*
Y20600D02*
D03*
Y18060D02*
D03*
Y15520D02*
D03*
Y12980D02*
D03*
X197475Y122350D02*
D03*
X200015D02*
D03*
X208715D02*
D03*
X211255D02*
D03*
X213795D02*
D03*
X206175D02*
D03*
X203635D02*
D03*
X86436Y75730D02*
D03*
Y78270D02*
D03*
Y80810D02*
D03*
Y73190D02*
D03*
Y70650D02*
D03*
X49118Y82382D02*
D03*
Y77302D02*
D03*
Y74762D02*
D03*
Y67142D02*
D03*
Y69682D02*
D03*
Y72222D02*
D03*
Y79842D02*
D03*
X43140Y52300D02*
D03*
X63460D02*
D03*
X45680D02*
D03*
X48220D02*
D03*
X50760D02*
D03*
X53300D02*
D03*
X55840D02*
D03*
X58380D02*
D03*
X60920D02*
D03*
D39*
X32741Y117610D02*
D03*
X79951Y117435D02*
D03*
X205675Y2125D02*
D03*
X202185D02*
D03*
X194935Y122350D02*
D03*
X216335D02*
D03*
X66000Y52300D02*
D03*
D40*
X189175Y10830D02*
D03*
X248050Y7900D02*
D03*
X86436Y83350D02*
D03*
X49118Y64602D02*
D03*
D41*
X86825Y33985D02*
D03*
Y36525D02*
D03*
X77000Y33985D02*
D03*
Y36525D02*
D03*
X29725Y34085D02*
D03*
Y36625D02*
D03*
X60400Y33985D02*
D03*
Y36525D02*
D03*
X38675Y33985D02*
D03*
Y36525D02*
D03*
X17765Y33985D02*
D03*
Y36525D02*
D03*
X48540Y33985D02*
D03*
Y36525D02*
D03*
D42*
X86825Y39065D02*
D03*
X77000D02*
D03*
X29725Y39165D02*
D03*
X60400Y39065D02*
D03*
X38675Y39065D02*
D03*
X17765D02*
D03*
X48540D02*
D03*
D43*
X13000Y122000D02*
D03*
X247000D02*
D03*
Y3000D02*
D03*
X13000D02*
D03*
X27750Y5050D02*
D03*
X224275Y5125D02*
D03*
X236150D02*
D03*
X143600Y120075D02*
D03*
D44*
X22750Y5050D02*
D03*
X219275Y5125D02*
D03*
X231150D02*
D03*
X148600Y120075D02*
D03*
D45*
X185975Y78510D02*
D03*
X183435D02*
D03*
X185975Y81050D02*
D03*
X183435D02*
D03*
X185975Y83590D02*
D03*
X183435D02*
D03*
X185975Y86130D02*
D03*
X183435D02*
D03*
X185975Y88670D02*
D03*
X183435Y75970D02*
D03*
X185975D02*
D03*
X183435Y73430D02*
D03*
X185975D02*
D03*
X183435Y70890D02*
D03*
X185975D02*
D03*
X183435Y68350D02*
D03*
X185975D02*
D03*
X183435Y65810D02*
D03*
X185975D02*
D03*
D46*
X183435Y88670D02*
D03*
D47*
X29645Y62625D02*
D03*
X30820Y47875D02*
D03*
D48*
X27105Y62625D02*
D03*
X28280Y47875D02*
D03*
D49*
X36800Y7975D02*
D03*
Y14275D02*
D03*
D50*
X41800Y11275D02*
D03*
D56*
X245140Y87270D02*
D03*
X243870D02*
D03*
X242600D02*
D03*
X241330D02*
D03*
X240060D02*
D03*
X238790D02*
D03*
X237520D02*
D03*
X236250D02*
D03*
X234980D02*
D03*
X233710D02*
D03*
X245140Y86000D02*
D03*
X243870D02*
D03*
X242600D02*
D03*
X241330D02*
D03*
X240060D02*
D03*
X238790D02*
D03*
X237520D02*
D03*
X236250D02*
D03*
X234980D02*
D03*
X233710D02*
D03*
X245140Y84730D02*
D03*
X243870D02*
D03*
X242600D02*
D03*
X241330D02*
D03*
X240060D02*
D03*
X238790D02*
D03*
X237520D02*
D03*
X236250D02*
D03*
X234980D02*
D03*
X233710D02*
D03*
X245140Y83460D02*
D03*
X243870D02*
D03*
X242600D02*
D03*
X241330D02*
D03*
X240060D02*
D03*
X238790D02*
D03*
X237520D02*
D03*
X236250D02*
D03*
X234980D02*
D03*
X233710D02*
D03*
X245140Y82190D02*
D03*
X243870D02*
D03*
X242600D02*
D03*
X241330D02*
D03*
X240060D02*
D03*
X238790D02*
D03*
X237520D02*
D03*
X236250D02*
D03*
X234980D02*
D03*
X233710D02*
D03*
X245140Y80920D02*
D03*
X243870D02*
D03*
X242600D02*
D03*
X241330D02*
D03*
X240060D02*
D03*
X238790D02*
D03*
X237520D02*
D03*
X236250D02*
D03*
X234980D02*
D03*
X233710D02*
D03*
X245140Y79650D02*
D03*
X243870D02*
D03*
X242600D02*
D03*
X241330D02*
D03*
X240060D02*
D03*
X238790D02*
D03*
X237520D02*
D03*
X236250D02*
D03*
X234980D02*
D03*
X233710D02*
D03*
X245140Y78380D02*
D03*
X243870D02*
D03*
X242600D02*
D03*
X241330D02*
D03*
X240060D02*
D03*
X238790D02*
D03*
X237520D02*
D03*
X236250D02*
D03*
X234980D02*
D03*
X233710D02*
D03*
X245140Y77110D02*
D03*
X243870D02*
D03*
X242600D02*
D03*
X241330D02*
D03*
X240060D02*
D03*
X238790D02*
D03*
X237520D02*
D03*
X236250D02*
D03*
X234980D02*
D03*
X233710D02*
D03*
X245140Y75840D02*
D03*
X243870D02*
D03*
X242600D02*
D03*
X241330D02*
D03*
X240060D02*
D03*
X238790D02*
D03*
X237520D02*
D03*
X236250D02*
D03*
X234980D02*
D03*
X233710D02*
D03*
X245140Y74570D02*
D03*
X243870D02*
D03*
X242600D02*
D03*
X241330D02*
D03*
X240060D02*
D03*
X238790D02*
D03*
X237520D02*
D03*
X236250D02*
D03*
X234980D02*
D03*
X233710D02*
D03*
X245140Y73300D02*
D03*
X243870D02*
D03*
X242600D02*
D03*
X241330D02*
D03*
X240060D02*
D03*
X238790D02*
D03*
X237520D02*
D03*
X236250D02*
D03*
X234980D02*
D03*
X233710D02*
D03*
X245140Y72030D02*
D03*
X243870D02*
D03*
X242600D02*
D03*
X241330D02*
D03*
X240060D02*
D03*
X238790D02*
D03*
X237520D02*
D03*
X236250D02*
D03*
X234980D02*
D03*
X233710D02*
D03*
X245140Y70760D02*
D03*
X243870D02*
D03*
X242600D02*
D03*
X241330D02*
D03*
X240060D02*
D03*
X238790D02*
D03*
X237520D02*
D03*
X236250D02*
D03*
X234980D02*
D03*
X233710D02*
D03*
X245140Y69490D02*
D03*
X243870D02*
D03*
X242600D02*
D03*
X241330D02*
D03*
X240060D02*
D03*
X238790D02*
D03*
X237520D02*
D03*
X236250D02*
D03*
X234980D02*
D03*
X233710D02*
D03*
X245140Y68220D02*
D03*
X243870D02*
D03*
X242600D02*
D03*
X241330D02*
D03*
X240060D02*
D03*
X238790D02*
D03*
X237520D02*
D03*
X236250D02*
D03*
X234980D02*
D03*
X233710D02*
D03*
X245140Y66950D02*
D03*
X243870D02*
D03*
X242600D02*
D03*
X241330D02*
D03*
X240060D02*
D03*
X238790D02*
D03*
X237520D02*
D03*
X236250D02*
D03*
X234980D02*
D03*
X233710D02*
D03*
X245140Y65680D02*
D03*
X243870D02*
D03*
X242600D02*
D03*
X241330D02*
D03*
X240060D02*
D03*
X238790D02*
D03*
X237520D02*
D03*
X236250D02*
D03*
X234980D02*
D03*
X233710D02*
D03*
X245140Y64410D02*
D03*
X243870D02*
D03*
X242600D02*
D03*
X241330D02*
D03*
X240060D02*
D03*
X238790D02*
D03*
X237520D02*
D03*
X236250D02*
D03*
X234980D02*
D03*
X233710D02*
D03*
X245140Y63140D02*
D03*
X243870D02*
D03*
X242600D02*
D03*
X241330D02*
D03*
X240060D02*
D03*
X238790D02*
D03*
X237520D02*
D03*
X236250D02*
D03*
X234980D02*
D03*
X233710D02*
D03*
X245140Y61870D02*
D03*
X243870D02*
D03*
X242600D02*
D03*
X241330D02*
D03*
X240060D02*
D03*
X238790D02*
D03*
X237520D02*
D03*
X236250D02*
D03*
X234980D02*
D03*
X233710D02*
D03*
X245140Y60600D02*
D03*
X243870D02*
D03*
X242600D02*
D03*
X241330D02*
D03*
X240060D02*
D03*
X238790D02*
D03*
X237520D02*
D03*
X236250D02*
D03*
X234980D02*
D03*
X233710D02*
D03*
X245140Y59330D02*
D03*
X243870D02*
D03*
X242600D02*
D03*
X241330D02*
D03*
X240060D02*
D03*
X238790D02*
D03*
X237520D02*
D03*
X236250D02*
D03*
X234980D02*
D03*
X233710D02*
D03*
X245140Y58060D02*
D03*
X243870D02*
D03*
X242600D02*
D03*
X241330D02*
D03*
X240060D02*
D03*
X238790D02*
D03*
X237520D02*
D03*
X236250D02*
D03*
X234980D02*
D03*
X233710D02*
D03*
X245140Y56790D02*
D03*
X243870D02*
D03*
X242600D02*
D03*
X241330D02*
D03*
X240060D02*
D03*
X238790D02*
D03*
X237520D02*
D03*
X236250D02*
D03*
X234980D02*
D03*
X233710D02*
D03*
X245140Y55520D02*
D03*
X243870D02*
D03*
X242600D02*
D03*
X241330D02*
D03*
X240060D02*
D03*
X238790D02*
D03*
X237520D02*
D03*
X236250D02*
D03*
X234980D02*
D03*
X233710D02*
D03*
X245140Y54250D02*
D03*
X243870D02*
D03*
X242600D02*
D03*
X241330D02*
D03*
X240060D02*
D03*
X238790D02*
D03*
X237520D02*
D03*
X236250D02*
D03*
X234980D02*
D03*
X233710D02*
D03*
X245140Y52980D02*
D03*
X243870D02*
D03*
X242600D02*
D03*
X241330D02*
D03*
X240060D02*
D03*
X238790D02*
D03*
X237520D02*
D03*
X236250D02*
D03*
X234980D02*
D03*
X233710D02*
D03*
X245140Y51710D02*
D03*
X243870D02*
D03*
X242600D02*
D03*
X241330D02*
D03*
X240060D02*
D03*
X238790D02*
D03*
X237520D02*
D03*
X236250D02*
D03*
X234980D02*
D03*
X233710D02*
D03*
X245140Y50440D02*
D03*
X243870D02*
D03*
X242600D02*
D03*
X241330D02*
D03*
X240060D02*
D03*
X238790D02*
D03*
X237520D02*
D03*
X236250D02*
D03*
X234980D02*
D03*
X233710D02*
D03*
X245140Y49170D02*
D03*
X243870D02*
D03*
X242600D02*
D03*
X241330D02*
D03*
X240060D02*
D03*
X238790D02*
D03*
X237520D02*
D03*
X236250D02*
D03*
X234980D02*
D03*
X233710D02*
D03*
X245140Y47900D02*
D03*
X243870D02*
D03*
X242600D02*
D03*
X241330D02*
D03*
X240060D02*
D03*
X238790D02*
D03*
X237520D02*
D03*
X236250D02*
D03*
X234980D02*
D03*
X233710D02*
D03*
X245140Y46630D02*
D03*
X243870D02*
D03*
X242600D02*
D03*
X241330D02*
D03*
X240060D02*
D03*
X238790D02*
D03*
X237520D02*
D03*
X236250D02*
D03*
X234980D02*
D03*
X233710D02*
D03*
X245140Y45360D02*
D03*
X243870D02*
D03*
X242600D02*
D03*
X241330D02*
D03*
X240060D02*
D03*
X238790D02*
D03*
X237520D02*
D03*
X236250D02*
D03*
X234980D02*
D03*
X233710D02*
D03*
X245140Y44090D02*
D03*
X243870D02*
D03*
X242600D02*
D03*
X241330D02*
D03*
X240060D02*
D03*
X238790D02*
D03*
X237520D02*
D03*
X236250D02*
D03*
X234980D02*
D03*
X233710D02*
D03*
X245140Y42820D02*
D03*
X243870D02*
D03*
X242600D02*
D03*
X241330D02*
D03*
X240060D02*
D03*
X238790D02*
D03*
X237520D02*
D03*
X236250D02*
D03*
X234980D02*
D03*
X233710D02*
D03*
X245140Y41550D02*
D03*
X243870D02*
D03*
X242600D02*
D03*
X241330D02*
D03*
X240060D02*
D03*
X238790D02*
D03*
X237520D02*
D03*
X236250D02*
D03*
X234980D02*
D03*
X233710D02*
D03*
X245140Y40280D02*
D03*
X243870D02*
D03*
X242600D02*
D03*
X241330D02*
D03*
X240060D02*
D03*
X238790D02*
D03*
X237520D02*
D03*
X236250D02*
D03*
X234980D02*
D03*
X233710D02*
D03*
X245140Y39010D02*
D03*
X243870D02*
D03*
X242600D02*
D03*
X241330D02*
D03*
X240060D02*
D03*
X238790D02*
D03*
X237520D02*
D03*
X236250D02*
D03*
X234980D02*
D03*
X233710D02*
D03*
X245140Y37740D02*
D03*
X243870D02*
D03*
X242600D02*
D03*
X241330D02*
D03*
X240060D02*
D03*
X238790D02*
D03*
X237520D02*
D03*
X236250D02*
D03*
X234980D02*
D03*
X233710D02*
D03*
M02*
