G04 Layer_Color=128*
%FSLAX43Y43*%
%MOMM*%
G71*
G01*
G75*
%ADD60C,0.051*%
D60*
X107250Y26025D02*
X110400D01*
X108825Y24450D02*
Y27600D01*
X173250Y15025D02*
X176400D01*
X174825Y13450D02*
Y16600D01*
X173250Y26025D02*
X176400D01*
X174825Y24450D02*
Y27600D01*
X117525Y14825D02*
X118125D01*
X117825Y14525D02*
Y15125D01*
X119125Y14825D02*
X119725D01*
X119425Y14525D02*
Y15125D01*
X120725Y14825D02*
X121325D01*
X121025Y14525D02*
Y15125D01*
X122325Y14825D02*
X122925D01*
X122625Y14525D02*
Y15125D01*
X123925Y14825D02*
X124525D01*
X124225Y14525D02*
Y15125D01*
X125525Y14825D02*
X126125D01*
X125825Y14525D02*
Y15125D01*
X127125Y14825D02*
X127725D01*
X127425Y14525D02*
Y15125D01*
X128725Y14825D02*
X129325D01*
X129025Y14525D02*
Y15125D01*
X130325Y14825D02*
X130925D01*
X130625Y14525D02*
Y15125D01*
X131925Y14825D02*
X132525D01*
X132225Y14525D02*
Y15125D01*
X133525Y14825D02*
X134125D01*
X133825Y14525D02*
Y15125D01*
X135125Y14825D02*
X135725D01*
X135425Y14525D02*
Y15125D01*
X136725Y14825D02*
X137325D01*
X137025Y14525D02*
Y15125D01*
X138325Y14825D02*
X138925D01*
X138625Y14525D02*
Y15125D01*
X139925Y14825D02*
X140525D01*
X140225Y14525D02*
Y15125D01*
X141525Y14825D02*
X142125D01*
X141825Y14525D02*
Y15125D01*
X143125Y14825D02*
X143725D01*
X143425Y14525D02*
Y15125D01*
X144725Y14825D02*
X145325D01*
X145025Y14525D02*
Y15125D01*
X146325Y14825D02*
X146925D01*
X146625Y14525D02*
Y15125D01*
X147925Y14825D02*
X148525D01*
X148225Y14525D02*
Y15125D01*
X149525Y14825D02*
X150125D01*
X149825Y14525D02*
Y15125D01*
X151125Y14825D02*
X151725D01*
X151425Y14525D02*
Y15125D01*
X152725Y14825D02*
X153325D01*
X153025Y14525D02*
Y15125D01*
X154325Y14825D02*
X154925D01*
X154625Y14525D02*
Y15125D01*
X155925Y14825D02*
X156525D01*
X156225Y14525D02*
Y15125D01*
X157525Y14825D02*
X158125D01*
X157825Y14525D02*
Y15125D01*
X159125Y14825D02*
X159725D01*
X159425Y14525D02*
Y15125D01*
X160725Y14825D02*
X161325D01*
X161025Y14525D02*
Y15125D01*
X162325Y14825D02*
X162925D01*
X162625Y14525D02*
Y15125D01*
X163925Y14825D02*
X164525D01*
X164225Y14525D02*
Y15125D01*
X165525Y14825D02*
X166125D01*
X165825Y14525D02*
Y15125D01*
X167125Y14825D02*
X167725D01*
X167425Y14525D02*
Y15125D01*
X115925Y14825D02*
X116525D01*
X116225Y14525D02*
Y15125D01*
X118325Y15875D02*
X118925D01*
X118625Y15575D02*
Y16175D01*
X119925Y15875D02*
X120525D01*
X120225Y15575D02*
Y16175D01*
X121525Y15875D02*
X122125D01*
X121825Y15575D02*
Y16175D01*
X123125Y15875D02*
X123725D01*
X123425Y15575D02*
Y16175D01*
X124725Y15875D02*
X125325D01*
X125025Y15575D02*
Y16175D01*
X126325Y15875D02*
X126925D01*
X126625Y15575D02*
Y16175D01*
X127925Y15875D02*
X128525D01*
X128225Y15575D02*
Y16175D01*
X129525Y15875D02*
X130125D01*
X129825Y15575D02*
Y16175D01*
X131125Y15875D02*
X131725D01*
X131425Y15575D02*
Y16175D01*
X132725Y15875D02*
X133325D01*
X133025Y15575D02*
Y16175D01*
X134325Y15875D02*
X134925D01*
X134625Y15575D02*
Y16175D01*
X135925Y15875D02*
X136525D01*
X136225Y15575D02*
Y16175D01*
X137525Y15875D02*
X138125D01*
X137825Y15575D02*
Y16175D01*
X139125Y15875D02*
X139725D01*
X139425Y15575D02*
Y16175D01*
X140725Y15875D02*
X141325D01*
X141025Y15575D02*
Y16175D01*
X142325Y15875D02*
X142925D01*
X142625Y15575D02*
Y16175D01*
X143925Y15875D02*
X144525D01*
X144225Y15575D02*
Y16175D01*
X145525Y15875D02*
X146125D01*
X145825Y15575D02*
Y16175D01*
X147125Y15875D02*
X147725D01*
X147425Y15575D02*
Y16175D01*
X148725Y15875D02*
X149325D01*
X149025Y15575D02*
Y16175D01*
X150325Y15875D02*
X150925D01*
X150625Y15575D02*
Y16175D01*
X151925Y15875D02*
X152525D01*
X152225Y15575D02*
Y16175D01*
X153525Y15875D02*
X154125D01*
X153825Y15575D02*
Y16175D01*
X155125Y15875D02*
X155725D01*
X155425Y15575D02*
Y16175D01*
X156725Y15875D02*
X157325D01*
X157025Y15575D02*
Y16175D01*
X158325Y15875D02*
X158925D01*
X158625Y15575D02*
Y16175D01*
X159925Y15875D02*
X160525D01*
X160225Y15575D02*
Y16175D01*
X161525Y15875D02*
X162125D01*
X161825Y15575D02*
Y16175D01*
X163125Y15875D02*
X163725D01*
X163425Y15575D02*
Y16175D01*
X164725Y15875D02*
X165325D01*
X165025Y15575D02*
Y16175D01*
X166325Y15875D02*
X166925D01*
X166625Y15575D02*
Y16175D01*
X115925Y16975D02*
X116525D01*
X116225Y16675D02*
Y17275D01*
X116725Y15875D02*
X117325D01*
X117025Y15575D02*
Y16175D01*
X167125Y16975D02*
X167725D01*
X167425Y16675D02*
Y17275D01*
X165525Y16975D02*
X166125D01*
X165825Y16675D02*
Y17275D01*
X163925Y16975D02*
X164525D01*
X164225Y16675D02*
Y17275D01*
X162325Y16975D02*
X162925D01*
X162625Y16675D02*
Y17275D01*
X160725Y16975D02*
X161325D01*
X161025Y16675D02*
Y17275D01*
X159125Y16975D02*
X159725D01*
X159425Y16675D02*
Y17275D01*
X157525Y16975D02*
X158125D01*
X157825Y16675D02*
Y17275D01*
X155925Y16975D02*
X156525D01*
X156225Y16675D02*
Y17275D01*
X154325Y16975D02*
X154925D01*
X154625Y16675D02*
Y17275D01*
X152725Y16975D02*
X153325D01*
X153025Y16675D02*
Y17275D01*
X151125Y16975D02*
X151725D01*
X151425Y16675D02*
Y17275D01*
X149525Y16975D02*
X150125D01*
X149825Y16675D02*
Y17275D01*
X147925Y16975D02*
X148525D01*
X148225Y16675D02*
Y17275D01*
X146325Y16975D02*
X146925D01*
X146625Y16675D02*
Y17275D01*
X144725Y16975D02*
X145325D01*
X145025Y16675D02*
Y17275D01*
X143125Y16975D02*
X143725D01*
X143425Y16675D02*
Y17275D01*
X141525Y16975D02*
X142125D01*
X141825Y16675D02*
Y17275D01*
X139925Y16975D02*
X140525D01*
X140225Y16675D02*
Y17275D01*
X138325Y16975D02*
X138925D01*
X138625Y16675D02*
Y17275D01*
X136725Y16975D02*
X137325D01*
X137025Y16675D02*
Y17275D01*
X135125Y16975D02*
X135725D01*
X135425Y16675D02*
Y17275D01*
X133525Y16975D02*
X134125D01*
X133825Y16675D02*
Y17275D01*
X131925Y16975D02*
X132525D01*
X132225Y16675D02*
Y17275D01*
X130325Y16975D02*
X130925D01*
X130625Y16675D02*
Y17275D01*
X128725Y16975D02*
X129325D01*
X129025Y16675D02*
Y17275D01*
X127125Y16975D02*
X127725D01*
X127425Y16675D02*
Y17275D01*
X125525Y16975D02*
X126125D01*
X125825Y16675D02*
Y17275D01*
X123925Y16975D02*
X124525D01*
X124225Y16675D02*
Y17275D01*
X122325Y16975D02*
X122925D01*
X122625Y16675D02*
Y17275D01*
X120725Y16975D02*
X121325D01*
X121025Y16675D02*
Y17275D01*
X119125Y16975D02*
X119725D01*
X119425Y16675D02*
Y17275D01*
X117525Y16975D02*
X118125D01*
X117825Y16675D02*
Y17275D01*
X116725Y18025D02*
X117325D01*
X117025Y17725D02*
Y18325D01*
X166325Y18025D02*
X166925D01*
X166625Y17725D02*
Y18325D01*
X164725Y18025D02*
X165325D01*
X165025Y17725D02*
Y18325D01*
X163125Y18025D02*
X163725D01*
X163425Y17725D02*
Y18325D01*
X161525Y18025D02*
X162125D01*
X161825Y17725D02*
Y18325D01*
X159925Y18025D02*
X160525D01*
X160225Y17725D02*
Y18325D01*
X158325Y18025D02*
X158925D01*
X158625Y17725D02*
Y18325D01*
X156725Y18025D02*
X157325D01*
X157025Y17725D02*
Y18325D01*
X155125Y18025D02*
X155725D01*
X155425Y17725D02*
Y18325D01*
X153525Y18025D02*
X154125D01*
X153825Y17725D02*
Y18325D01*
X151925Y18025D02*
X152525D01*
X152225Y17725D02*
Y18325D01*
X150325Y18025D02*
X150925D01*
X150625Y17725D02*
Y18325D01*
X148725Y18025D02*
X149325D01*
X149025Y17725D02*
Y18325D01*
X147125Y18025D02*
X147725D01*
X147425Y17725D02*
Y18325D01*
X145525Y18025D02*
X146125D01*
X145825Y17725D02*
Y18325D01*
X143925Y18025D02*
X144525D01*
X144225Y17725D02*
Y18325D01*
X142325Y18025D02*
X142925D01*
X142625Y17725D02*
Y18325D01*
X140725Y18025D02*
X141325D01*
X141025Y17725D02*
Y18325D01*
X139125Y18025D02*
X139725D01*
X139425Y17725D02*
Y18325D01*
X137525Y18025D02*
X138125D01*
X137825Y17725D02*
Y18325D01*
X135925Y18025D02*
X136525D01*
X136225Y17725D02*
Y18325D01*
X134325Y18025D02*
X134925D01*
X134625Y17725D02*
Y18325D01*
X132725Y18025D02*
X133325D01*
X133025Y17725D02*
Y18325D01*
X131125Y18025D02*
X131725D01*
X131425Y17725D02*
Y18325D01*
X129525Y18025D02*
X130125D01*
X129825Y17725D02*
Y18325D01*
X127925Y18025D02*
X128525D01*
X128225Y17725D02*
Y18325D01*
X126325Y18025D02*
X126925D01*
X126625Y17725D02*
Y18325D01*
X124725Y18025D02*
X125325D01*
X125025Y17725D02*
Y18325D01*
X123125Y18025D02*
X123725D01*
X123425Y17725D02*
Y18325D01*
X121525Y18025D02*
X122125D01*
X121825Y17725D02*
Y18325D01*
X119925Y18025D02*
X120525D01*
X120225Y17725D02*
Y18325D01*
X118325Y18025D02*
X118925D01*
X118625Y17725D02*
Y18325D01*
X118325Y23025D02*
X118925D01*
X118625Y22725D02*
Y23325D01*
X119925Y23025D02*
X120525D01*
X120225Y22725D02*
Y23325D01*
X121525Y23025D02*
X122125D01*
X121825Y22725D02*
Y23325D01*
X123125Y23025D02*
X123725D01*
X123425Y22725D02*
Y23325D01*
X124725Y23025D02*
X125325D01*
X125025Y22725D02*
Y23325D01*
X126325Y23025D02*
X126925D01*
X126625Y22725D02*
Y23325D01*
X127925Y23025D02*
X128525D01*
X128225Y22725D02*
Y23325D01*
X129525Y23025D02*
X130125D01*
X129825Y22725D02*
Y23325D01*
X131125Y23025D02*
X131725D01*
X131425Y22725D02*
Y23325D01*
X132725Y23025D02*
X133325D01*
X133025Y22725D02*
Y23325D01*
X134325Y23025D02*
X134925D01*
X134625Y22725D02*
Y23325D01*
X135925Y23025D02*
X136525D01*
X136225Y22725D02*
Y23325D01*
X137525Y23025D02*
X138125D01*
X137825Y22725D02*
Y23325D01*
X139125Y23025D02*
X139725D01*
X139425Y22725D02*
Y23325D01*
X140725Y23025D02*
X141325D01*
X141025Y22725D02*
Y23325D01*
X142325Y23025D02*
X142925D01*
X142625Y22725D02*
Y23325D01*
X143925Y23025D02*
X144525D01*
X144225Y22725D02*
Y23325D01*
X145525Y23025D02*
X146125D01*
X145825Y22725D02*
Y23325D01*
X147125Y23025D02*
X147725D01*
X147425Y22725D02*
Y23325D01*
X148725Y23025D02*
X149325D01*
X149025Y22725D02*
Y23325D01*
X150325Y23025D02*
X150925D01*
X150625Y22725D02*
Y23325D01*
X151925Y23025D02*
X152525D01*
X152225Y22725D02*
Y23325D01*
X153525Y23025D02*
X154125D01*
X153825Y22725D02*
Y23325D01*
X155125Y23025D02*
X155725D01*
X155425Y22725D02*
Y23325D01*
X156725Y23025D02*
X157325D01*
X157025Y22725D02*
Y23325D01*
X158325Y23025D02*
X158925D01*
X158625Y22725D02*
Y23325D01*
X159925Y23025D02*
X160525D01*
X160225Y22725D02*
Y23325D01*
X161525Y23025D02*
X162125D01*
X161825Y22725D02*
Y23325D01*
X163125Y23025D02*
X163725D01*
X163425Y22725D02*
Y23325D01*
X164725Y23025D02*
X165325D01*
X165025Y22725D02*
Y23325D01*
X166325Y23025D02*
X166925D01*
X166625Y22725D02*
Y23325D01*
X116725Y23025D02*
X117325D01*
X117025Y22725D02*
Y23325D01*
X117525Y24075D02*
X118125D01*
X117825Y23775D02*
Y24375D01*
X119125Y24075D02*
X119725D01*
X119425Y23775D02*
Y24375D01*
X120725Y24075D02*
X121325D01*
X121025Y23775D02*
Y24375D01*
X122325Y24075D02*
X122925D01*
X122625Y23775D02*
Y24375D01*
X123925Y24075D02*
X124525D01*
X124225Y23775D02*
Y24375D01*
X125525Y24075D02*
X126125D01*
X125825Y23775D02*
Y24375D01*
X127125Y24075D02*
X127725D01*
X127425Y23775D02*
Y24375D01*
X128725Y24075D02*
X129325D01*
X129025Y23775D02*
Y24375D01*
X130325Y24075D02*
X130925D01*
X130625Y23775D02*
Y24375D01*
X131925Y24075D02*
X132525D01*
X132225Y23775D02*
Y24375D01*
X133525Y24075D02*
X134125D01*
X133825Y23775D02*
Y24375D01*
X135125Y24075D02*
X135725D01*
X135425Y23775D02*
Y24375D01*
X136725Y24075D02*
X137325D01*
X137025Y23775D02*
Y24375D01*
X138325Y24075D02*
X138925D01*
X138625Y23775D02*
Y24375D01*
X139925Y24075D02*
X140525D01*
X140225Y23775D02*
Y24375D01*
X141525Y24075D02*
X142125D01*
X141825Y23775D02*
Y24375D01*
X143125Y24075D02*
X143725D01*
X143425Y23775D02*
Y24375D01*
X144725Y24075D02*
X145325D01*
X145025Y23775D02*
Y24375D01*
X146325Y24075D02*
X146925D01*
X146625Y23775D02*
Y24375D01*
X147925Y24075D02*
X148525D01*
X148225Y23775D02*
Y24375D01*
X149525Y24075D02*
X150125D01*
X149825Y23775D02*
Y24375D01*
X151125Y24075D02*
X151725D01*
X151425Y23775D02*
Y24375D01*
X152725Y24075D02*
X153325D01*
X153025Y23775D02*
Y24375D01*
X154325Y24075D02*
X154925D01*
X154625Y23775D02*
Y24375D01*
X155925Y24075D02*
X156525D01*
X156225Y23775D02*
Y24375D01*
X157525Y24075D02*
X158125D01*
X157825Y23775D02*
Y24375D01*
X159125Y24075D02*
X159725D01*
X159425Y23775D02*
Y24375D01*
X160725Y24075D02*
X161325D01*
X161025Y23775D02*
Y24375D01*
X162325Y24075D02*
X162925D01*
X162625Y23775D02*
Y24375D01*
X163925Y24075D02*
X164525D01*
X164225Y23775D02*
Y24375D01*
X165525Y24075D02*
X166125D01*
X165825Y23775D02*
Y24375D01*
X167125Y24075D02*
X167725D01*
X167425Y23775D02*
Y24375D01*
X116725Y25175D02*
X117325D01*
X117025Y24875D02*
Y25475D01*
X115925Y24075D02*
X116525D01*
X116225Y23775D02*
Y24375D01*
X166325Y25175D02*
X166925D01*
X166625Y24875D02*
Y25475D01*
X164725Y25175D02*
X165325D01*
X165025Y24875D02*
Y25475D01*
X163125Y25175D02*
X163725D01*
X163425Y24875D02*
Y25475D01*
X161525Y25175D02*
X162125D01*
X161825Y24875D02*
Y25475D01*
X159925Y25175D02*
X160525D01*
X160225Y24875D02*
Y25475D01*
X158325Y25175D02*
X158925D01*
X158625Y24875D02*
Y25475D01*
X156725Y25175D02*
X157325D01*
X157025Y24875D02*
Y25475D01*
X155125Y25175D02*
X155725D01*
X155425Y24875D02*
Y25475D01*
X153525Y25175D02*
X154125D01*
X153825Y24875D02*
Y25475D01*
X151925Y25175D02*
X152525D01*
X152225Y24875D02*
Y25475D01*
X150325Y25175D02*
X150925D01*
X150625Y24875D02*
Y25475D01*
X148725Y25175D02*
X149325D01*
X149025Y24875D02*
Y25475D01*
X147125Y25175D02*
X147725D01*
X147425Y24875D02*
Y25475D01*
X145525Y25175D02*
X146125D01*
X145825Y24875D02*
Y25475D01*
X143925Y25175D02*
X144525D01*
X144225Y24875D02*
Y25475D01*
X142325Y25175D02*
X142925D01*
X142625Y24875D02*
Y25475D01*
X140725Y25175D02*
X141325D01*
X141025Y24875D02*
Y25475D01*
X139125Y25175D02*
X139725D01*
X139425Y24875D02*
Y25475D01*
X137525Y25175D02*
X138125D01*
X137825Y24875D02*
Y25475D01*
X135925Y25175D02*
X136525D01*
X136225Y24875D02*
Y25475D01*
X134325Y25175D02*
X134925D01*
X134625Y24875D02*
Y25475D01*
X132725Y25175D02*
X133325D01*
X133025Y24875D02*
Y25475D01*
X131125Y25175D02*
X131725D01*
X131425Y24875D02*
Y25475D01*
X129525Y25175D02*
X130125D01*
X129825Y24875D02*
Y25475D01*
X127925Y25175D02*
X128525D01*
X128225Y24875D02*
Y25475D01*
X126325Y25175D02*
X126925D01*
X126625Y24875D02*
Y25475D01*
X124725Y25175D02*
X125325D01*
X125025Y24875D02*
Y25475D01*
X123125Y25175D02*
X123725D01*
X123425Y24875D02*
Y25475D01*
X121525Y25175D02*
X122125D01*
X121825Y24875D02*
Y25475D01*
X119925Y25175D02*
X120525D01*
X120225Y24875D02*
Y25475D01*
X118325Y25175D02*
X118925D01*
X118625Y24875D02*
Y25475D01*
X115925Y26225D02*
X116525D01*
X116225Y25925D02*
Y26525D01*
X167125Y26225D02*
X167725D01*
X167425Y25925D02*
Y26525D01*
X165525Y26225D02*
X166125D01*
X165825Y25925D02*
Y26525D01*
X163925Y26225D02*
X164525D01*
X164225Y25925D02*
Y26525D01*
X162325Y26225D02*
X162925D01*
X162625Y25925D02*
Y26525D01*
X160725Y26225D02*
X161325D01*
X161025Y25925D02*
Y26525D01*
X159125Y26225D02*
X159725D01*
X159425Y25925D02*
Y26525D01*
X157525Y26225D02*
X158125D01*
X157825Y25925D02*
Y26525D01*
X155925Y26225D02*
X156525D01*
X156225Y25925D02*
Y26525D01*
X154325Y26225D02*
X154925D01*
X154625Y25925D02*
Y26525D01*
X152725Y26225D02*
X153325D01*
X153025Y25925D02*
Y26525D01*
X151125Y26225D02*
X151725D01*
X151425Y25925D02*
Y26525D01*
X149525Y26225D02*
X150125D01*
X149825Y25925D02*
Y26525D01*
X147925Y26225D02*
X148525D01*
X148225Y25925D02*
Y26525D01*
X146325Y26225D02*
X146925D01*
X146625Y25925D02*
Y26525D01*
X144725Y26225D02*
X145325D01*
X145025Y25925D02*
Y26525D01*
X143125Y26225D02*
X143725D01*
X143425Y25925D02*
Y26525D01*
X141525Y26225D02*
X142125D01*
X141825Y25925D02*
Y26525D01*
X139925Y26225D02*
X140525D01*
X140225Y25925D02*
Y26525D01*
X138325Y26225D02*
X138925D01*
X138625Y25925D02*
Y26525D01*
X136725Y26225D02*
X137325D01*
X137025Y25925D02*
Y26525D01*
X135125Y26225D02*
X135725D01*
X135425Y25925D02*
Y26525D01*
X133525Y26225D02*
X134125D01*
X133825Y25925D02*
Y26525D01*
X131925Y26225D02*
X132525D01*
X132225Y25925D02*
Y26525D01*
X130325Y26225D02*
X130925D01*
X130625Y25925D02*
Y26525D01*
X128725Y26225D02*
X129325D01*
X129025Y25925D02*
Y26525D01*
X127125Y26225D02*
X127725D01*
X127425Y25925D02*
Y26525D01*
X125525Y26225D02*
X126125D01*
X125825Y25925D02*
Y26525D01*
X123925Y26225D02*
X124525D01*
X124225Y25925D02*
Y26525D01*
X122325Y26225D02*
X122925D01*
X122625Y25925D02*
Y26525D01*
X120725Y26225D02*
X121325D01*
X121025Y25925D02*
Y26525D01*
X119125Y26225D02*
X119725D01*
X119425Y25925D02*
Y26525D01*
X117525Y26225D02*
X118125D01*
X117825Y25925D02*
Y26525D01*
X107250Y15025D02*
X110400D01*
X108825Y13450D02*
Y16600D01*
X241840Y89696D02*
X243110D01*
X242475Y89061D02*
Y90331D01*
X238790Y35314D02*
X240060D01*
X239425Y34679D02*
Y35949D01*
X49971Y120150D02*
X51071D01*
X50521Y119600D02*
Y120700D01*
X49971Y117610D02*
X51071D01*
X50521Y117060D02*
Y118160D01*
X47431Y120150D02*
X48531D01*
X47981Y119600D02*
Y120700D01*
X47431Y117610D02*
X48531D01*
X47981Y117060D02*
Y118160D01*
X44891Y120150D02*
X45991D01*
X45441Y119600D02*
Y120700D01*
X44891Y117610D02*
X45991D01*
X45441Y117060D02*
Y118160D01*
X32191Y117610D02*
X33291D01*
X32741Y117060D02*
Y118160D01*
X32191Y120150D02*
X33291D01*
X32741Y119600D02*
Y120700D01*
X34731Y117610D02*
X35831D01*
X35281Y117060D02*
Y118160D01*
X34731Y120150D02*
X35831D01*
X35281Y119600D02*
Y120700D01*
X37271Y117610D02*
X38371D01*
X37821Y117060D02*
Y118160D01*
X37271Y120150D02*
X38371D01*
X37821Y119600D02*
Y120700D01*
X39811Y117610D02*
X40911D01*
X40361Y117060D02*
Y118160D01*
X39811Y120150D02*
X40911D01*
X40361Y119600D02*
Y120700D01*
X42351Y117610D02*
X43451D01*
X42901Y117060D02*
Y118160D01*
X42351Y120150D02*
X43451D01*
X42901Y119600D02*
Y120700D01*
X89561Y119975D02*
X90661D01*
X90111Y119425D02*
Y120525D01*
X89561Y117435D02*
X90661D01*
X90111Y116885D02*
Y117985D01*
X87021Y119975D02*
X88121D01*
X87571Y119425D02*
Y120525D01*
X87021Y117435D02*
X88121D01*
X87571Y116885D02*
Y117985D01*
X84481Y119975D02*
X85581D01*
X85031Y119425D02*
Y120525D01*
X84481Y117435D02*
X85581D01*
X85031Y116885D02*
Y117985D01*
X81941Y119975D02*
X83041D01*
X82491Y119425D02*
Y120525D01*
X81941Y117435D02*
X83041D01*
X82491Y116885D02*
Y117985D01*
X79401Y119975D02*
X80501D01*
X79951Y119425D02*
Y120525D01*
X79401Y117435D02*
X80501D01*
X79951Y116885D02*
Y117985D01*
X92101Y117435D02*
X93201D01*
X92651Y116885D02*
Y117985D01*
X92101Y119975D02*
X93201D01*
X92651Y119425D02*
Y120525D01*
X94641Y117435D02*
X95741D01*
X95191Y116885D02*
Y117985D01*
X94641Y119975D02*
X95741D01*
X95191Y119425D02*
Y120525D01*
X97181Y117435D02*
X98281D01*
X97731Y116885D02*
Y117985D01*
X97181Y119975D02*
X98281D01*
X97731Y119425D02*
Y120525D01*
X188625Y13370D02*
X189725D01*
X189175Y12820D02*
Y13920D01*
X188625Y31150D02*
X189725D01*
X189175Y30600D02*
Y31700D01*
X188625Y28610D02*
X189725D01*
X189175Y28060D02*
Y29160D01*
X188625Y26070D02*
X189725D01*
X189175Y25520D02*
Y26620D01*
X188625Y23530D02*
X189725D01*
X189175Y22980D02*
Y24080D01*
X188625Y20990D02*
X189725D01*
X189175Y20440D02*
Y21540D01*
X188625Y18450D02*
X189725D01*
X189175Y17900D02*
Y19000D01*
X188625Y15910D02*
X189725D01*
X189175Y15360D02*
Y16460D01*
X188625Y10830D02*
X189725D01*
X189175Y10280D02*
Y11380D01*
X205125Y2125D02*
X206225D01*
X205675Y1575D02*
Y2675D01*
X207665Y2125D02*
X208765D01*
X208215Y1575D02*
Y2675D01*
X210205Y2125D02*
X211305D01*
X210755Y1575D02*
Y2675D01*
X212745Y2125D02*
X213845D01*
X213295Y1575D02*
Y2675D01*
X201635Y2125D02*
X202735D01*
X202185Y1575D02*
Y2675D01*
X199095Y2125D02*
X200195D01*
X199645Y1575D02*
Y2675D01*
X196555Y2125D02*
X197655D01*
X197105Y1575D02*
Y2675D01*
X194015Y2125D02*
X195115D01*
X194565Y1575D02*
Y2675D01*
X247500Y30760D02*
X248600D01*
X248050Y30210D02*
Y31310D01*
X247500Y10440D02*
X248600D01*
X248050Y9890D02*
Y10990D01*
X247500Y28220D02*
X248600D01*
X248050Y27670D02*
Y28770D01*
X247500Y25680D02*
X248600D01*
X248050Y25130D02*
Y26230D01*
X247500Y23140D02*
X248600D01*
X248050Y22590D02*
Y23690D01*
X247500Y20600D02*
X248600D01*
X248050Y20050D02*
Y21150D01*
X247500Y18060D02*
X248600D01*
X248050Y17510D02*
Y18610D01*
X247500Y15520D02*
X248600D01*
X248050Y14970D02*
Y16070D01*
X247500Y12980D02*
X248600D01*
X248050Y12430D02*
Y13530D01*
X247500Y7900D02*
X248600D01*
X248050Y7350D02*
Y8450D01*
X194385Y122350D02*
X195485D01*
X194935Y121800D02*
Y122900D01*
X196925Y122350D02*
X198025D01*
X197475Y121800D02*
Y122900D01*
X199465Y122350D02*
X200565D01*
X200015Y121800D02*
Y122900D01*
X208165Y122350D02*
X209265D01*
X208715Y121800D02*
Y122900D01*
X210705Y122350D02*
X211805D01*
X211255Y121800D02*
Y122900D01*
X213245Y122350D02*
X214345D01*
X213795Y121800D02*
Y122900D01*
X215785Y122350D02*
X216885D01*
X216335Y121800D02*
Y122900D01*
X205625Y122350D02*
X206725D01*
X206175Y121800D02*
Y122900D01*
X203085Y122350D02*
X204185D01*
X203635Y121800D02*
Y122900D01*
X85886Y75730D02*
X86986D01*
X86436Y75180D02*
Y76280D01*
X85886Y78270D02*
X86986D01*
X86436Y77720D02*
Y78820D01*
X85886Y80810D02*
X86986D01*
X86436Y80260D02*
Y81360D01*
X85886Y83350D02*
X86986D01*
X86436Y82800D02*
Y83900D01*
X85886Y73190D02*
X86986D01*
X86436Y72640D02*
Y73740D01*
X85886Y70650D02*
X86986D01*
X86436Y70100D02*
Y71200D01*
X48568Y82382D02*
X49668D01*
X49118Y81832D02*
Y82932D01*
X48568Y77302D02*
X49668D01*
X49118Y76752D02*
Y77852D01*
X48568Y74762D02*
X49668D01*
X49118Y74212D02*
Y75312D01*
X48568Y64602D02*
X49668D01*
X49118Y64052D02*
Y65152D01*
X48568Y67142D02*
X49668D01*
X49118Y66592D02*
Y67692D01*
X48568Y69682D02*
X49668D01*
X49118Y69132D02*
Y70232D01*
X48568Y72222D02*
X49668D01*
X49118Y71672D02*
Y72772D01*
X48568Y79842D02*
X49668D01*
X49118Y79292D02*
Y80392D01*
X86225Y33985D02*
X87425D01*
X86825Y33385D02*
Y34585D01*
X86225Y39065D02*
X87425D01*
X86825Y38465D02*
Y39665D01*
X86225Y36525D02*
X87425D01*
X86825Y35925D02*
Y37125D01*
X76400Y33985D02*
X77600D01*
X77000Y33385D02*
Y34585D01*
X76400Y39065D02*
X77600D01*
X77000Y38465D02*
Y39665D01*
X76400Y36525D02*
X77600D01*
X77000Y35925D02*
Y37125D01*
X29125Y34085D02*
X30325D01*
X29725Y33485D02*
Y34685D01*
X29125Y39165D02*
X30325D01*
X29725Y38565D02*
Y39765D01*
X29125Y36625D02*
X30325D01*
X29725Y36025D02*
Y37225D01*
X59800Y33985D02*
X61000D01*
X60400Y33385D02*
Y34585D01*
X59800Y39065D02*
X61000D01*
X60400Y38465D02*
Y39665D01*
X59800Y36525D02*
X61000D01*
X60400Y35925D02*
Y37125D01*
X38075Y33985D02*
X39275D01*
X38675Y33385D02*
Y34585D01*
X38075Y39065D02*
X39275D01*
X38675Y38465D02*
Y39665D01*
X38075Y36525D02*
X39275D01*
X38675Y35925D02*
Y37125D01*
X17165Y33985D02*
X18365D01*
X17765Y33385D02*
Y34585D01*
X17165Y39065D02*
X18365D01*
X17765Y38465D02*
Y39665D01*
X17165Y36525D02*
X18365D01*
X17765Y35925D02*
Y37125D01*
X47940Y33985D02*
X49140D01*
X48540Y33385D02*
Y34585D01*
X47940Y39065D02*
X49140D01*
X48540Y38465D02*
Y39665D01*
X47940Y36525D02*
X49140D01*
X48540Y35925D02*
Y37125D01*
X42590Y52300D02*
X43690D01*
X43140Y51750D02*
Y52850D01*
X62910Y52300D02*
X64010D01*
X63460Y51750D02*
Y52850D01*
X45130Y52300D02*
X46230D01*
X45680Y51750D02*
Y52850D01*
X47670Y52300D02*
X48770D01*
X48220Y51750D02*
Y52850D01*
X50210Y52300D02*
X51310D01*
X50760Y51750D02*
Y52850D01*
X52750Y52300D02*
X53850D01*
X53300Y51750D02*
Y52850D01*
X55290Y52300D02*
X56390D01*
X55840Y51750D02*
Y52850D01*
X57830Y52300D02*
X58930D01*
X58380Y51750D02*
Y52850D01*
X60370Y52300D02*
X61470D01*
X60920Y51750D02*
Y52850D01*
X65450Y52300D02*
X66550D01*
X66000Y51750D02*
Y52850D01*
X11500Y122000D02*
X14500D01*
X13000Y120500D02*
Y123500D01*
X245500Y122000D02*
X248500D01*
X247000Y120500D02*
Y123500D01*
X245500Y3000D02*
X248500D01*
X247000Y1500D02*
Y4500D01*
X11500Y3000D02*
X14500D01*
X13000Y1500D02*
Y4500D01*
X27000Y5050D02*
X28500D01*
X27750Y4300D02*
Y5800D01*
X22000Y5050D02*
X23500D01*
X22750Y4300D02*
Y5800D01*
X218525Y5125D02*
X220025D01*
X219275Y4375D02*
Y5875D01*
X223525Y5125D02*
X225025D01*
X224275Y4375D02*
Y5875D01*
X235400Y5125D02*
X236900D01*
X236150Y4375D02*
Y5875D01*
X230400Y5125D02*
X231900D01*
X231150Y4375D02*
Y5875D01*
X147850Y120075D02*
X149350D01*
X148600Y119325D02*
Y120825D01*
X142850Y120075D02*
X144350D01*
X143600Y119325D02*
Y120825D01*
X185425Y78510D02*
X186525D01*
X185975Y77960D02*
Y79060D01*
X182885Y78510D02*
X183985D01*
X183435Y77960D02*
Y79060D01*
X185425Y81050D02*
X186525D01*
X185975Y80500D02*
Y81600D01*
X182885Y81050D02*
X183985D01*
X183435Y80500D02*
Y81600D01*
X185425Y83590D02*
X186525D01*
X185975Y83040D02*
Y84140D01*
X182885Y83590D02*
X183985D01*
X183435Y83040D02*
Y84140D01*
X185425Y86130D02*
X186525D01*
X185975Y85580D02*
Y86680D01*
X182885Y86130D02*
X183985D01*
X183435Y85580D02*
Y86680D01*
X185425Y88670D02*
X186525D01*
X185975Y88120D02*
Y89220D01*
X182885Y88670D02*
X183985D01*
X183435Y88120D02*
Y89220D01*
X182885Y75970D02*
X183985D01*
X183435Y75420D02*
Y76520D01*
X185425Y75970D02*
X186525D01*
X185975Y75420D02*
Y76520D01*
X182885Y73430D02*
X183985D01*
X183435Y72880D02*
Y73980D01*
X185425Y73430D02*
X186525D01*
X185975Y72880D02*
Y73980D01*
X182885Y70890D02*
X183985D01*
X183435Y70340D02*
Y71440D01*
X185425Y70890D02*
X186525D01*
X185975Y70340D02*
Y71440D01*
X182885Y68350D02*
X183985D01*
X183435Y67800D02*
Y68900D01*
X185425Y68350D02*
X186525D01*
X185975Y67800D02*
Y68900D01*
X182885Y65810D02*
X183985D01*
X183435Y65260D02*
Y66360D01*
X185425Y65810D02*
X186525D01*
X185975Y65260D02*
Y66360D01*
X29145Y62625D02*
X30145D01*
X29645Y62125D02*
Y63125D01*
X26605Y62625D02*
X27605D01*
X27105Y62125D02*
Y63125D01*
X27780Y47875D02*
X28780D01*
X28280Y47375D02*
Y48375D01*
X30320Y47875D02*
X31320D01*
X30820Y47375D02*
Y48375D01*
X36300Y7975D02*
X37300D01*
X36800Y7475D02*
Y8475D01*
X36300Y14275D02*
X37300D01*
X36800Y13775D02*
Y14775D01*
X41300Y11275D02*
X42300D01*
X41800Y10775D02*
Y11775D01*
X113350Y12500D02*
X113650D01*
X113500Y12350D02*
Y12650D01*
X204187Y66788D02*
X204287D01*
X204237Y66738D02*
Y66838D01*
X203500Y65575D02*
X203600D01*
X203550Y65525D02*
Y65625D01*
X204300Y65575D02*
X204400D01*
X204350Y65525D02*
Y65625D01*
X113650Y104166D02*
X113950D01*
X113800Y104016D02*
Y104316D01*
X50221Y29975D02*
X50521D01*
X50371Y29825D02*
Y30125D01*
X57050Y43875D02*
X57350D01*
X57200Y43725D02*
Y44025D01*
X213400Y66925D02*
X213700D01*
X213550Y66775D02*
Y67075D01*
X203500Y62375D02*
X203600D01*
X203550Y62325D02*
Y62425D01*
X133900Y85725D02*
X134200D01*
X134050Y85575D02*
Y85875D01*
X138625Y86075D02*
X138925D01*
X138775Y85925D02*
Y86225D01*
X138150Y87781D02*
X138450D01*
X138300Y87631D02*
Y87931D01*
X138100Y102650D02*
X138400D01*
X138250Y102500D02*
Y102800D01*
X138175Y90700D02*
X138475D01*
X138325Y90550D02*
Y90850D01*
X137400Y89850D02*
X137700D01*
X137550Y89700D02*
Y90000D01*
X135219Y96600D02*
X135519D01*
X135369Y96450D02*
Y96750D01*
X135700Y79500D02*
X136000D01*
X135850Y79350D02*
Y79650D01*
X135700Y83725D02*
X136000D01*
X135850Y83575D02*
Y83875D01*
X132271Y65805D02*
X132571D01*
X132421Y65655D02*
Y65955D01*
X110950Y110750D02*
X111250D01*
X111100Y110600D02*
Y110900D01*
X169969Y59825D02*
X170269D01*
X170119Y59675D02*
Y59975D01*
X134539Y65150D02*
X134839D01*
X134689Y65000D02*
Y65300D01*
X135875Y59775D02*
X136175D01*
X136025Y59625D02*
Y59925D01*
X151225Y60775D02*
X151525D01*
X151375Y60625D02*
Y60925D01*
X18475Y48475D02*
X18775D01*
X18625Y48325D02*
Y48625D01*
X21850Y63825D02*
X22150D01*
X22000Y63675D02*
Y63975D01*
X191850Y30475D02*
X192150D01*
X192000Y30325D02*
Y30625D01*
X140379Y76150D02*
X140679D01*
X140529Y76000D02*
Y76300D01*
X147300Y75950D02*
X147600D01*
X147450Y75800D02*
Y76100D01*
X125375Y63462D02*
X125675D01*
X125525Y63312D02*
Y63612D01*
X107195Y63625D02*
X107495D01*
X107345Y63475D02*
Y63775D01*
X200300Y40325D02*
X200600D01*
X200450Y40175D02*
Y40475D01*
X202019Y26950D02*
X202319D01*
X202169Y26800D02*
Y27100D01*
X200300Y50962D02*
X200600D01*
X200450Y50812D02*
Y51112D01*
X163500Y52525D02*
X163800D01*
X163650Y52375D02*
Y52675D01*
X168900Y57300D02*
X169200D01*
X169050Y57150D02*
Y57450D01*
X112200Y109525D02*
X112500D01*
X112350Y109375D02*
Y109675D01*
X178525Y115525D02*
X178825D01*
X178675Y115375D02*
Y115675D01*
X111800Y63275D02*
X112100D01*
X111950Y63125D02*
Y63425D01*
X209100Y65575D02*
X209200D01*
X209150Y65525D02*
Y65625D01*
X194542Y102925D02*
X194842D01*
X194692Y102775D02*
Y103075D01*
X198450Y90100D02*
X198750D01*
X198600Y89950D02*
Y90250D01*
X209925Y69400D02*
X210225D01*
X210075Y69250D02*
Y69550D01*
X209225Y70125D02*
X209525D01*
X209375Y69975D02*
Y70275D01*
X208200Y67300D02*
X208500D01*
X208350Y67150D02*
Y67450D01*
X176325Y95400D02*
X176625D01*
X176475Y95250D02*
Y95550D01*
X174325Y95400D02*
X174625D01*
X174475Y95250D02*
Y95550D01*
X175325Y95400D02*
X175625D01*
X175475Y95250D02*
Y95550D01*
X149925Y91600D02*
X150225D01*
X150075Y91450D02*
Y91750D01*
X150750Y92350D02*
X151050D01*
X150900Y92200D02*
Y92500D01*
X99275Y88725D02*
X99575D01*
X99425Y88575D02*
Y88875D01*
X99100Y89675D02*
X99400D01*
X99250Y89525D02*
Y89825D01*
X215075Y54700D02*
X215375D01*
X215225Y54550D02*
Y54850D01*
X215500Y59175D02*
X215600D01*
X215550Y59125D02*
Y59225D01*
X217100Y59175D02*
X217200D01*
X217150Y59125D02*
Y59225D01*
X217100Y59975D02*
X217200D01*
X217150Y59925D02*
Y60025D01*
X215500Y59975D02*
X215600D01*
X215550Y59925D02*
Y60025D01*
X101100Y87175D02*
X101400D01*
X101250Y87025D02*
Y87325D01*
X121550Y87325D02*
X121850D01*
X121700Y87175D02*
Y87475D01*
Y84500D02*
X122000D01*
X121850Y84350D02*
Y84650D01*
X122375Y85300D02*
X122675D01*
X122525Y85150D02*
Y85450D01*
X157800Y91425D02*
X158100D01*
X157950Y91275D02*
Y91575D01*
X146325Y94825D02*
X146625D01*
X146475Y94675D02*
Y94975D01*
X156825Y92450D02*
X157125D01*
X156975Y92300D02*
Y92600D01*
X206850Y67450D02*
X206950D01*
X206900Y67400D02*
Y67500D01*
X206300Y66725D02*
X206400D01*
X206350Y66675D02*
Y66775D01*
X67741Y42025D02*
X68041D01*
X67891Y41875D02*
Y42175D01*
X215919Y55325D02*
X216219D01*
X216069Y55175D02*
Y55475D01*
X215775Y66925D02*
X216075D01*
X215925Y66775D02*
Y67075D01*
X215250Y67775D02*
X215550D01*
X215400Y67625D02*
Y67925D01*
X220600Y31750D02*
X220900D01*
X220750Y31600D02*
Y31900D01*
X218056Y22075D02*
X218356D01*
X218206Y21925D02*
Y22225D01*
X207500Y65575D02*
X207600D01*
X207550Y65525D02*
Y65625D01*
X220288Y57588D02*
X220387D01*
X220337Y57537D02*
Y57638D01*
X222600Y51375D02*
X222900D01*
X222750Y51225D02*
Y51525D01*
X209675Y54373D02*
X209975D01*
X209825Y54223D02*
Y54523D01*
X210775Y55500D02*
X211075D01*
X210925Y55350D02*
Y55650D01*
X220325Y55800D02*
X220625D01*
X220475Y55650D02*
Y55950D01*
X220050Y67562D02*
X220350D01*
X220200Y67412D02*
Y67713D01*
X214335Y34102D02*
X214635D01*
X214485Y33952D02*
Y34252D01*
X212650Y34175D02*
X212950D01*
X212800Y34025D02*
Y34325D01*
X212550Y30628D02*
X212850D01*
X212700Y30478D02*
Y30778D01*
X217950Y33575D02*
X218250D01*
X218100Y33425D02*
Y33725D01*
X216500Y31975D02*
X216800D01*
X216650Y31825D02*
Y32125D01*
X217150Y32825D02*
X217450D01*
X217300Y32675D02*
Y32975D01*
X218789Y34085D02*
X219089D01*
X218939Y33935D02*
Y34235D01*
X212350Y28450D02*
X212650D01*
X212500Y28300D02*
Y28600D01*
X212450Y27425D02*
X212750D01*
X212600Y27275D02*
Y27575D01*
X79786Y80100D02*
X80086D01*
X79936Y79950D02*
Y80250D01*
X212625Y25425D02*
X212925D01*
X212775Y25275D02*
Y25575D01*
X214200Y12980D02*
X214500D01*
X214350Y12830D02*
Y13130D01*
X212635Y29376D02*
X212935D01*
X212785Y29226D02*
Y29526D01*
X215625Y32425D02*
X215925D01*
X215775Y32275D02*
Y32575D01*
X212625Y26425D02*
X212925D01*
X212775Y26275D02*
Y26575D01*
X212625Y24425D02*
X212925D01*
X212775Y24275D02*
Y24575D01*
X201900Y57575D02*
X202000D01*
X201950Y57525D02*
Y57625D01*
X243185Y44725D02*
X243285D01*
X243235Y44675D02*
Y44775D01*
X229150Y39850D02*
X229250D01*
X229200Y39800D02*
Y39900D01*
X201100Y57575D02*
X201200D01*
X201150Y57525D02*
Y57625D01*
X243185Y45995D02*
X243285D01*
X243235Y45945D02*
Y46045D01*
X229150Y39050D02*
X229250D01*
X229200Y39000D02*
Y39100D01*
X225550Y57750D02*
X225850D01*
X225700Y57600D02*
Y57900D01*
X93075Y84075D02*
X93375D01*
X93225Y83925D02*
Y84225D01*
X102950Y48025D02*
X103250D01*
X103100Y47875D02*
Y48175D01*
X100948Y52525D02*
X101247D01*
X101098Y52375D02*
Y52675D01*
X103700Y73800D02*
X104000D01*
X103850Y73650D02*
Y73950D01*
X105800Y70875D02*
X106100D01*
X105950Y70725D02*
Y71025D01*
X117875Y70400D02*
X118175D01*
X118025Y70250D02*
Y70550D01*
X115700Y54300D02*
X116000D01*
X115850Y54150D02*
Y54450D01*
X108175Y72225D02*
X108475D01*
X108325Y72075D02*
Y72375D01*
X122275Y54025D02*
X122575D01*
X122425Y53875D02*
Y54175D01*
X121375Y54725D02*
X121675D01*
X121525Y54575D02*
Y54875D01*
X122588Y57200D02*
X122887D01*
X122738Y57050D02*
Y57350D01*
X121625Y57200D02*
X121925D01*
X121775Y57050D02*
Y57350D01*
X121625Y70825D02*
X121925D01*
X121775Y70675D02*
Y70975D01*
X122588Y69963D02*
X122887D01*
X122738Y69812D02*
Y70113D01*
X133200Y84450D02*
X133500D01*
X133350Y84300D02*
Y84600D01*
X132125Y84425D02*
X132425D01*
X132275Y84275D02*
Y84575D01*
X167325Y46000D02*
X167625D01*
X167475Y45850D02*
Y46150D01*
X167375Y47050D02*
X167675D01*
X167525Y46900D02*
Y47200D01*
X168125Y47875D02*
X168425D01*
X168275Y47725D02*
Y48025D01*
X175325Y47775D02*
X175625D01*
X175475Y47625D02*
Y47925D01*
X191450Y36125D02*
X191750D01*
X191600Y35975D02*
Y36275D01*
X204825Y27500D02*
X205125D01*
X204975Y27350D02*
Y27650D01*
X188750Y41825D02*
X189050D01*
X188900Y41675D02*
Y41975D01*
X190175Y42100D02*
X190475D01*
X190325Y41950D02*
Y42250D01*
X190950Y41275D02*
X191250D01*
X191100Y41125D02*
Y41425D01*
X191775Y41925D02*
X192075D01*
X191925Y41775D02*
Y42075D01*
X192450Y42925D02*
X192750D01*
X192600Y42775D02*
Y43075D01*
X193150Y43925D02*
X193450D01*
X193300Y43775D02*
Y44075D01*
X188600Y36225D02*
X188900D01*
X188750Y36075D02*
Y36375D01*
X189350Y35425D02*
X189650D01*
X189500Y35275D02*
Y35575D01*
X188550Y34575D02*
X188850D01*
X188700Y34425D02*
Y34725D01*
X188850Y33650D02*
X189150D01*
X189000Y33500D02*
Y33800D01*
X103625Y71250D02*
X103925D01*
X103775Y71100D02*
Y71400D01*
X103772Y54250D02*
X104073D01*
X103923Y54100D02*
Y54400D01*
X101762Y54412D02*
X102062D01*
X101912Y54263D02*
Y54562D01*
X101863Y55541D02*
X102163D01*
X102013Y55391D02*
Y55691D01*
X178900Y50325D02*
X179200D01*
X179050Y50175D02*
Y50475D01*
X142625Y51750D02*
X142925D01*
X142775Y51600D02*
Y51900D01*
X142625Y50075D02*
X142925D01*
X142775Y49925D02*
Y50225D01*
X139950Y52525D02*
X140250D01*
X140100Y52375D02*
Y52675D01*
X150525Y45350D02*
X150825D01*
X150675Y45200D02*
Y45500D01*
X139050Y40100D02*
X139350D01*
X139200Y39950D02*
Y40250D01*
X139950Y49550D02*
X140250D01*
X140100Y49400D02*
Y49700D01*
X121625Y51650D02*
X121925D01*
X121775Y51500D02*
Y51800D01*
X121625Y47025D02*
X121925D01*
X121775Y46875D02*
Y47175D01*
X120275Y51300D02*
X120575D01*
X120425Y51150D02*
Y51450D01*
X120275Y48200D02*
X120575D01*
X120425Y48050D02*
Y48350D01*
X106275Y52825D02*
X106575D01*
X106425Y52675D02*
Y52975D01*
X132000Y89025D02*
X132300D01*
X132150Y88875D02*
Y89175D01*
X110800Y74450D02*
X111100D01*
X110950Y74300D02*
Y74600D01*
X179375Y97950D02*
X179675D01*
X179525Y97800D02*
Y98100D01*
X166250Y97050D02*
X166550D01*
X166400Y96900D02*
Y97200D01*
X166225Y95400D02*
X166525D01*
X166375Y95250D02*
Y95550D01*
X158600Y99575D02*
X158900D01*
X158750Y99425D02*
Y99725D01*
X146325Y97550D02*
X146625D01*
X146475Y97400D02*
Y97700D01*
X147925Y97100D02*
X148225D01*
X148075Y96950D02*
Y97250D01*
X147925Y95400D02*
X148225D01*
X148075Y95250D02*
Y95550D01*
X119300Y97800D02*
X119600D01*
X119450Y97650D02*
Y97950D01*
X119300Y94075D02*
X119600D01*
X119450Y93925D02*
Y94225D01*
X120925Y97150D02*
X121225D01*
X121075Y97000D02*
Y97300D01*
X120925Y95000D02*
X121225D01*
X121075Y94850D02*
Y95150D01*
X126825Y95325D02*
X127125D01*
X126975Y95175D02*
Y95475D01*
X126475Y96625D02*
X126775D01*
X126625Y96475D02*
Y96775D01*
X98175Y103200D02*
X98475D01*
X98325Y103050D02*
Y103350D01*
X97050Y99200D02*
X97350D01*
X97200Y99050D02*
Y99350D01*
X96986Y97325D02*
X97286D01*
X97136Y97175D02*
Y97475D01*
X98175Y93625D02*
X98475D01*
X98325Y93475D02*
Y93775D01*
X142600Y48825D02*
X142900D01*
X142750Y48675D02*
Y48975D01*
X203125Y24200D02*
X203425D01*
X203275Y24050D02*
Y24350D01*
X204025Y25325D02*
X204325D01*
X204175Y25175D02*
Y25475D01*
X204625Y26300D02*
X204925D01*
X204775Y26150D02*
Y26450D01*
X212550Y23400D02*
X212850D01*
X212700Y23250D02*
Y23550D01*
X221900Y60775D02*
X222000D01*
X221950Y60725D02*
Y60825D01*
X222700Y62375D02*
X222800D01*
X222750Y62325D02*
Y62425D01*
X222700Y60775D02*
X222800D01*
X222750Y60725D02*
Y60825D01*
X224425Y53200D02*
X224725D01*
X224575Y53050D02*
Y53350D01*
X170725Y48275D02*
X171025D01*
X170875Y48125D02*
Y48425D01*
X159325Y47775D02*
X159625D01*
X159475Y47625D02*
Y47925D01*
X158325Y47775D02*
X158625D01*
X158475Y47625D02*
Y47925D01*
X135575Y48625D02*
X135875D01*
X135725Y48475D02*
Y48775D01*
X115100Y48725D02*
X115400D01*
X115250Y48575D02*
Y48875D01*
X157325Y47775D02*
X157625D01*
X157475Y47625D02*
Y47925D01*
X173775Y96450D02*
X174075D01*
X173925Y96300D02*
Y96600D01*
X178325Y95400D02*
X178625D01*
X178475Y95250D02*
Y95550D01*
X177325Y95400D02*
X177625D01*
X177475Y95250D02*
Y95550D01*
X179325Y95400D02*
X179625D01*
X179475Y95250D02*
Y95550D01*
X157325Y95400D02*
X157625D01*
X157475Y95250D02*
Y95550D01*
X106275Y96450D02*
X106575D01*
X106425Y96300D02*
Y96600D01*
X153775Y50825D02*
X154075D01*
X153925Y50675D02*
Y50975D01*
X127200Y48700D02*
X127500D01*
X127350Y48550D02*
Y48850D01*
X174325Y47775D02*
X174625D01*
X174475Y47625D02*
Y47925D01*
X159375Y50325D02*
X159675D01*
X159525Y50175D02*
Y50475D01*
X159375Y51325D02*
X159675D01*
X159525Y51175D02*
Y51475D01*
X153775Y51825D02*
X154075D01*
X153925Y51675D02*
Y51975D01*
X159375Y52325D02*
X159675D01*
X159525Y52175D02*
Y52475D01*
X182825Y96325D02*
X183125D01*
X182975Y96175D02*
Y96475D01*
X162500Y96725D02*
X162800D01*
X162650Y96575D02*
Y96875D01*
X115050Y96500D02*
X115350D01*
X115200Y96350D02*
Y96650D01*
X173783Y98405D02*
X174083D01*
X173933Y98255D02*
Y98555D01*
X173934Y99705D02*
X174233D01*
X174083Y99555D02*
Y99855D01*
X173925Y100625D02*
X174225D01*
X174075Y100475D02*
Y100775D01*
X180300Y56125D02*
X180600D01*
X180450Y55975D02*
Y56275D01*
X117900Y52750D02*
X118200D01*
X118050Y52600D02*
Y52900D01*
X115100Y101375D02*
X115400D01*
X115250Y101225D02*
Y101525D01*
X179375Y100950D02*
X179675D01*
X179525Y100800D02*
Y101100D01*
X159375Y97950D02*
X159675D01*
X159525Y97800D02*
Y98100D01*
X159375Y98950D02*
X159675D01*
X159525Y98800D02*
Y99100D01*
X131875Y97950D02*
X132175D01*
X132025Y97800D02*
Y98100D01*
X131875Y99950D02*
X132175D01*
X132025Y99800D02*
Y100100D01*
X148700Y100225D02*
X149000D01*
X148850Y100075D02*
Y100375D01*
X147975Y101200D02*
X148275D01*
X148125Y101050D02*
Y101350D01*
X153775Y98450D02*
X154075D01*
X153925Y98300D02*
Y98600D01*
X122225Y101675D02*
X122525D01*
X122375Y101525D02*
Y101825D01*
X123575Y102475D02*
X123875D01*
X123725Y102325D02*
Y102625D01*
X159375Y100950D02*
X159675D01*
X159525Y100800D02*
Y101100D01*
X173775Y52825D02*
X174075D01*
X173925Y52675D02*
Y52975D01*
X173775Y51825D02*
X174075D01*
X173925Y51675D02*
Y51975D01*
X173775Y50825D02*
X174075D01*
X173925Y50675D02*
Y50975D01*
X173775Y48825D02*
X174075D01*
X173925Y48675D02*
Y48975D01*
X176325Y47775D02*
X176625D01*
X176475Y47625D02*
Y47925D01*
X177325Y47775D02*
X177625D01*
X177475Y47625D02*
Y47925D01*
X178325Y47775D02*
X178625D01*
X178475Y47625D02*
Y47925D01*
X179325Y47775D02*
X179625D01*
X179475Y47625D02*
Y47925D01*
X179375Y51325D02*
X179675D01*
X179525Y51175D02*
Y51475D01*
X179375Y52325D02*
X179675D01*
X179525Y52175D02*
Y52475D01*
X153775Y52825D02*
X154075D01*
X153925Y52675D02*
Y52975D01*
X153775Y48825D02*
X154075D01*
X153925Y48675D02*
Y48975D01*
X154325Y47775D02*
X154625D01*
X154475Y47625D02*
Y47925D01*
X155325Y47775D02*
X155625D01*
X155475Y47625D02*
Y47925D01*
X156325Y47775D02*
X156625D01*
X156475Y47625D02*
Y47925D01*
X126275Y52825D02*
X126575D01*
X126425Y52675D02*
Y52975D01*
X126275Y51825D02*
X126575D01*
X126425Y51675D02*
Y51975D01*
X126275Y50825D02*
X126575D01*
X126425Y50675D02*
Y50975D01*
X126825Y47775D02*
X127125D01*
X126975Y47625D02*
Y47925D01*
X127825Y47775D02*
X128125D01*
X127975Y47625D02*
Y47925D01*
X128825Y47775D02*
X129125D01*
X128975Y47625D02*
Y47925D01*
X129825Y47775D02*
X130125D01*
X129975Y47625D02*
Y47925D01*
X130825Y47775D02*
X131125D01*
X130975Y47625D02*
Y47925D01*
X131825Y47775D02*
X132125D01*
X131975Y47625D02*
Y47925D01*
X131875Y50325D02*
X132175D01*
X132025Y50175D02*
Y50475D01*
X131875Y51325D02*
X132175D01*
X132025Y51175D02*
Y51475D01*
X131875Y52325D02*
X132175D01*
X132025Y52175D02*
Y52475D01*
X106275Y51825D02*
X106575D01*
X106425Y51675D02*
Y51975D01*
X106275Y50825D02*
X106575D01*
X106425Y50675D02*
Y50975D01*
X106275Y48825D02*
X106575D01*
X106425Y48675D02*
Y48975D01*
X106825Y47775D02*
X107125D01*
X106975Y47625D02*
Y47925D01*
X107825Y47775D02*
X108125D01*
X107975Y47625D02*
Y47925D01*
X108825Y47775D02*
X109125D01*
X108975Y47625D02*
Y47925D01*
X109825Y47775D02*
X110125D01*
X109975Y47625D02*
Y47925D01*
X110825Y47775D02*
X111125D01*
X110975Y47625D02*
Y47925D01*
X111825Y47775D02*
X112125D01*
X111975Y47625D02*
Y47925D01*
X111875Y50325D02*
X112175D01*
X112025Y50175D02*
Y50475D01*
X111875Y51325D02*
X112175D01*
X112025Y51175D02*
Y51475D01*
X111875Y52325D02*
X112175D01*
X112025Y52175D02*
Y52475D01*
X179375Y98950D02*
X179675D01*
X179525Y98800D02*
Y99100D01*
X179375Y99950D02*
X179675D01*
X179525Y99800D02*
Y100100D01*
X153775Y100450D02*
X154075D01*
X153925Y100300D02*
Y100600D01*
X153775Y99450D02*
X154075D01*
X153925Y99300D02*
Y99600D01*
X153775Y96450D02*
X154075D01*
X153925Y96300D02*
Y96600D01*
X154325Y95400D02*
X154625D01*
X154475Y95250D02*
Y95550D01*
X155325Y95400D02*
X155625D01*
X155475Y95250D02*
Y95550D01*
X156325Y95400D02*
X156625D01*
X156475Y95250D02*
Y95550D01*
X158325Y95400D02*
X158625D01*
X158475Y95250D02*
Y95550D01*
X159325Y95400D02*
X159625D01*
X159475Y95250D02*
Y95550D01*
X126275Y100450D02*
X126575D01*
X126425Y100300D02*
Y100600D01*
X126275Y99450D02*
X126575D01*
X126425Y99300D02*
Y99600D01*
X126275Y98450D02*
X126575D01*
X126425Y98300D02*
Y98600D01*
X127825Y95400D02*
X128125D01*
X127975Y95250D02*
Y95550D01*
X128825Y95400D02*
X129125D01*
X128975Y95250D02*
Y95550D01*
X129825Y95400D02*
X130125D01*
X129975Y95250D02*
Y95550D01*
X130825Y95400D02*
X131125D01*
X130975Y95250D02*
Y95550D01*
X131825Y95400D02*
X132125D01*
X131975Y95250D02*
Y95550D01*
X131875Y98950D02*
X132175D01*
X132025Y98800D02*
Y99100D01*
X108825Y101150D02*
X109125D01*
X108975Y101000D02*
Y101300D01*
X111875Y99950D02*
X112175D01*
X112025Y99800D02*
Y100100D01*
X111875Y98950D02*
X112175D01*
X112025Y98800D02*
Y99100D01*
X111875Y97950D02*
X112175D01*
X112025Y97800D02*
Y98100D01*
X111825Y95400D02*
X112125D01*
X111975Y95250D02*
Y95550D01*
X110825Y95400D02*
X111125D01*
X110975Y95250D02*
Y95550D01*
X109825Y95400D02*
X110125D01*
X109975Y95250D02*
Y95550D01*
X108825Y95400D02*
X109125D01*
X108975Y95250D02*
Y95550D01*
X107825Y95400D02*
X108125D01*
X107975Y95250D02*
Y95550D01*
X106825Y95400D02*
X107125D01*
X106975Y95250D02*
Y95550D01*
X106275Y98450D02*
X106575D01*
X106425Y98300D02*
Y98600D01*
X106275Y99450D02*
X106575D01*
X106425Y99300D02*
Y99600D01*
X106275Y100450D02*
X106575D01*
X106425Y100300D02*
Y100600D01*
X156875Y86870D02*
X157175D01*
X157025Y86720D02*
Y87020D01*
X141575Y86950D02*
X141875D01*
X141725Y86800D02*
Y87100D01*
X157025Y76450D02*
X157325D01*
X157175Y76300D02*
Y76600D01*
X156700Y71825D02*
X157000D01*
X156850Y71675D02*
Y71975D01*
X139800Y83975D02*
X140100D01*
X139950Y83825D02*
Y84125D01*
X142225Y85100D02*
X142525D01*
X142375Y84950D02*
Y85250D01*
X143175Y85132D02*
X143475D01*
X143325Y84982D02*
Y85282D01*
X143175Y101325D02*
X143475D01*
X143325Y101175D02*
Y101475D01*
X140256Y85075D02*
X140556D01*
X140406Y84925D02*
Y85225D01*
X142175Y102125D02*
X142475D01*
X142325Y101975D02*
Y102275D01*
X107475Y104725D02*
X107775D01*
X107625Y104575D02*
Y104875D01*
X195700Y40675D02*
X196000D01*
X195850Y40525D02*
Y40825D01*
X194475Y40775D02*
X194775D01*
X194625Y40625D02*
Y40925D01*
X230525Y58525D02*
X230825D01*
X230675Y58375D02*
Y58675D01*
X219125Y10725D02*
X219425D01*
X219275Y10575D02*
Y10875D01*
X217400Y20600D02*
X217700D01*
X217550Y20450D02*
Y20750D01*
X216575Y18060D02*
X216875D01*
X216725Y17910D02*
Y18210D01*
X215780Y15520D02*
X216080D01*
X215930Y15370D02*
Y15670D01*
X215250Y9875D02*
X215550D01*
X215400Y9725D02*
Y10025D01*
X207575Y54700D02*
X207875D01*
X207725Y54550D02*
Y54850D01*
X205550Y55725D02*
X205850D01*
X205700Y55575D02*
Y55875D01*
X206875Y56125D02*
X207175D01*
X207025Y55975D02*
Y56275D01*
X206625Y54787D02*
X206925D01*
X206775Y54637D02*
Y54937D01*
X205900Y56775D02*
X206000D01*
X205950Y56725D02*
Y56825D01*
X205900Y57575D02*
X206000D01*
X205950Y57525D02*
Y57625D01*
X206700Y57575D02*
X206800D01*
X206750Y57525D02*
Y57625D01*
X129625Y63900D02*
X129925D01*
X129775Y63750D02*
Y64050D01*
X151750Y79300D02*
X152050D01*
X151900Y79150D02*
Y79450D01*
X152750Y79900D02*
X153050D01*
X152900Y79750D02*
Y80050D01*
X152750Y76950D02*
X153050D01*
X152900Y76800D02*
Y77100D01*
X151750Y76700D02*
X152050D01*
X151900Y76550D02*
Y76850D01*
X146850Y68450D02*
X147150D01*
X147000Y68300D02*
Y68600D01*
X145825Y68300D02*
X146125D01*
X145975Y68150D02*
Y68450D01*
X128825Y53375D02*
X129125D01*
X128975Y53225D02*
Y53525D01*
X148025Y53750D02*
X148325D01*
X148175Y53600D02*
Y53900D01*
X151375Y102100D02*
X151675D01*
X151525Y101950D02*
Y102250D01*
X128825Y101000D02*
X129125D01*
X128975Y100850D02*
Y101150D01*
X121000Y100875D02*
X121300D01*
X121150Y100725D02*
Y101025D01*
X131650Y76275D02*
X131950D01*
X131800Y76125D02*
Y76425D01*
X130650Y75600D02*
X130950D01*
X130800Y75450D02*
Y75750D01*
X107000Y56575D02*
X107300D01*
X107150Y56425D02*
Y56725D01*
X107325Y57475D02*
X107625D01*
X107475Y57325D02*
Y57625D01*
X108325Y57775D02*
X108625D01*
X108475Y57625D02*
Y57925D01*
X145975Y65675D02*
X146275D01*
X146125Y65525D02*
Y65825D01*
X145075Y66775D02*
X145375D01*
X145225Y66625D02*
Y66925D01*
X144250Y67625D02*
X144550D01*
X144400Y67475D02*
Y67775D01*
X171736Y65950D02*
X172036D01*
X171886Y65800D02*
Y66100D01*
X182250Y102650D02*
X182550D01*
X182400Y102500D02*
Y102800D01*
X176325Y101000D02*
X176625D01*
X176475Y100850D02*
Y101150D01*
X111433Y66008D02*
X111733D01*
X111583Y65858D02*
Y66158D01*
X166800Y69725D02*
X167100D01*
X166950Y69575D02*
Y69875D01*
X128325Y84100D02*
X128625D01*
X128475Y83950D02*
Y84250D01*
X137650Y84350D02*
X137950D01*
X137800Y84200D02*
Y84500D01*
X144350Y86130D02*
X144650D01*
X144500Y85980D02*
Y86280D01*
X145000Y84860D02*
X145300D01*
X145150Y84710D02*
Y85010D01*
X144200Y101200D02*
X144500D01*
X144350Y101050D02*
Y101350D01*
X145475Y100225D02*
X145775D01*
X145625Y100075D02*
Y100375D01*
X167075Y88475D02*
X167375D01*
X167225Y88325D02*
Y88625D01*
X167079Y101650D02*
X167379D01*
X167229Y101500D02*
Y101800D01*
X168075Y88975D02*
X168375D01*
X168225Y88825D02*
Y89125D01*
X168075Y100875D02*
X168375D01*
X168225Y100725D02*
Y101025D01*
X169800Y100875D02*
X170100D01*
X169950Y100725D02*
Y101025D01*
X170700Y101650D02*
X171000D01*
X170850Y101500D02*
Y101800D01*
X171275Y102475D02*
X171575D01*
X171425Y102325D02*
Y102625D01*
X177125Y78500D02*
X177425D01*
X177275Y78350D02*
Y78650D01*
X178150Y77240D02*
X178450D01*
X178300Y77090D02*
Y77390D01*
X176875Y64000D02*
X177175D01*
X177025Y63850D02*
Y64150D01*
X177925Y63950D02*
X178225D01*
X178075Y63800D02*
Y64100D01*
X168910Y56200D02*
X169210D01*
X169060Y56050D02*
Y56350D01*
X181125Y64900D02*
X181425D01*
X181275Y64750D02*
Y65050D01*
X185600Y62550D02*
X185900D01*
X185750Y62400D02*
Y62700D01*
X179550Y66100D02*
X179850D01*
X179700Y65950D02*
Y66250D01*
X180325Y65450D02*
X180625D01*
X180475Y65300D02*
Y65600D01*
X178775Y64850D02*
X179075D01*
X178925Y64700D02*
Y65000D01*
X76386Y84125D02*
X76686D01*
X76536Y83975D02*
Y84275D01*
X203500Y63975D02*
X203600D01*
X203550Y63925D02*
Y64025D01*
X203500Y63175D02*
X203600D01*
X203550Y63125D02*
Y63225D01*
X204300Y63175D02*
X204400D01*
X204350Y63125D02*
Y63225D01*
X204300Y62375D02*
X204400D01*
X204350Y62325D02*
Y62425D01*
X133025Y58450D02*
X133325D01*
X133175Y58300D02*
Y58600D01*
X222700Y61575D02*
X222800D01*
X222750Y61525D02*
Y61625D01*
X221900Y61575D02*
X222000D01*
X221950Y61525D02*
Y61625D01*
X224325Y67575D02*
X224625D01*
X224475Y67425D02*
Y67725D01*
X225800Y67525D02*
X226100D01*
X225950Y67375D02*
Y67675D01*
X108025Y112825D02*
X108325D01*
X108175Y112675D02*
Y112975D01*
X101025Y67050D02*
X101325D01*
X101175Y66900D02*
Y67200D01*
X100981Y68219D02*
X101281D01*
X101131Y68069D02*
Y68369D01*
X100975Y69325D02*
X101275D01*
X101125Y69175D02*
Y69475D01*
X103850Y13275D02*
X104150D01*
X104000Y13125D02*
Y13425D01*
X102698Y13273D02*
X102997D01*
X102848Y13123D02*
Y13422D01*
X101850Y12425D02*
X102150D01*
X102000Y12275D02*
Y12575D01*
X138200Y39225D02*
X138500D01*
X138350Y39075D02*
Y39375D01*
X131325Y38450D02*
X131625D01*
X131475Y38300D02*
Y38600D01*
X130325Y37675D02*
X130625D01*
X130475Y37525D02*
Y37825D01*
X129875Y36675D02*
X130175D01*
X130025Y36525D02*
Y36825D01*
X124000Y35025D02*
X124300D01*
X124150Y34875D02*
Y35175D01*
X123475Y34150D02*
X123775D01*
X123625Y34000D02*
Y34300D01*
X122700Y33000D02*
X123000D01*
X122850Y32850D02*
Y33150D01*
X188175Y32775D02*
X188475D01*
X188325Y32625D02*
Y32925D01*
X178825Y89325D02*
X179125D01*
X178975Y89175D02*
Y89475D01*
X177825Y89975D02*
X178125D01*
X177975Y89825D02*
Y90125D01*
X176825Y90425D02*
X177125D01*
X176975Y90275D02*
Y90575D01*
X190075Y43425D02*
X190375D01*
X190225Y43275D02*
Y43575D01*
X165500Y90450D02*
X165800D01*
X165650Y90300D02*
Y90600D01*
X164625Y90900D02*
X164925D01*
X164775Y90750D02*
Y91050D01*
X184050Y59788D02*
X184350D01*
X184200Y59638D02*
Y59938D01*
X158800Y90775D02*
X159100D01*
X158950Y90625D02*
Y90925D01*
X193403Y55825D02*
X193703D01*
X193553Y55675D02*
Y55975D01*
X179125Y63325D02*
X179425D01*
X179275Y63175D02*
Y63475D01*
X177325Y58575D02*
X177625D01*
X177475Y58425D02*
Y58725D01*
X133025Y63150D02*
X133325D01*
X133175Y63000D02*
Y63300D01*
X113425Y58100D02*
X113725D01*
X113575Y57950D02*
Y58250D01*
X187050Y10000D02*
X187350D01*
X187200Y9850D02*
Y10150D01*
X151425Y93050D02*
X151725D01*
X151575Y92900D02*
Y93200D01*
X101125Y89500D02*
X101425D01*
X101275Y89350D02*
Y89650D01*
X101100Y88300D02*
X101400D01*
X101250Y88150D02*
Y88450D01*
X101125Y85950D02*
X101425D01*
X101275Y85800D02*
Y86100D01*
X130325Y88225D02*
X130625D01*
X130475Y88075D02*
Y88375D01*
X101125Y84550D02*
X101425D01*
X101275Y84400D02*
Y84700D01*
X101150Y83175D02*
X101450D01*
X101300Y83025D02*
Y83325D01*
X101100Y81825D02*
X101400D01*
X101250Y81675D02*
Y81975D01*
X72825Y40000D02*
X73125D01*
X72975Y39850D02*
Y40150D01*
X82850Y40000D02*
X83150D01*
X83000Y39850D02*
Y40150D01*
X101150Y80500D02*
X101450D01*
X101300Y80350D02*
Y80650D01*
X101150Y79150D02*
X101450D01*
X101300Y79000D02*
Y79300D01*
X23450Y44100D02*
X23750D01*
X23600Y43950D02*
Y44250D01*
X25562Y39500D02*
X25862D01*
X25712Y39350D02*
Y39650D01*
X32700Y28337D02*
X33000D01*
X32850Y28187D02*
Y28487D01*
X11490Y44250D02*
X11790D01*
X11640Y44100D02*
Y44400D01*
X13600Y39400D02*
X13900D01*
X13750Y39250D02*
Y39550D01*
X34500Y40015D02*
X34800D01*
X34650Y39865D02*
Y40165D01*
X41650Y28579D02*
X41950D01*
X41800Y28429D02*
Y28729D01*
X80000Y28325D02*
X80300D01*
X80150Y28175D02*
Y28475D01*
X63525Y28325D02*
X63825D01*
X63675Y28175D02*
Y28475D01*
X69556Y28325D02*
X69856D01*
X69706Y28175D02*
Y28475D01*
X20750Y28350D02*
X21050D01*
X20900Y28200D02*
Y28500D01*
X44365Y40015D02*
X44665D01*
X44515Y39865D02*
Y40165D01*
X117350Y77850D02*
X117650D01*
X117500Y77700D02*
Y78000D01*
X101150Y77850D02*
X101450D01*
X101300Y77700D02*
Y78000D01*
X116575Y76525D02*
X116875D01*
X116725Y76375D02*
Y76675D01*
X101125Y76525D02*
X101425D01*
X101275Y76375D02*
Y76675D01*
X214225Y43500D02*
X214525D01*
X214375Y43350D02*
Y43650D01*
X212200Y43625D02*
X212500D01*
X212350Y43475D02*
Y43775D01*
X210725Y43625D02*
X211025D01*
X210875Y43475D02*
Y43775D01*
X209225Y43625D02*
X209525D01*
X209375Y43475D02*
Y43775D01*
X215475Y50600D02*
X215775D01*
X215625Y50450D02*
Y50750D01*
X211725Y50600D02*
X212025D01*
X211875Y50450D02*
Y50750D01*
X209675Y50600D02*
X209975D01*
X209825Y50450D02*
Y50750D01*
X213350Y53325D02*
X213650D01*
X213500Y53175D02*
Y53475D01*
X70325Y63400D02*
X70625D01*
X70475Y63250D02*
Y63550D01*
X182900Y52175D02*
X183200D01*
X183050Y52025D02*
Y52325D01*
X182650Y53800D02*
X182950D01*
X182800Y53650D02*
Y53950D01*
X182763Y50462D02*
X183063D01*
X182913Y50312D02*
Y50612D01*
X111325Y75450D02*
X111625D01*
X111475Y75300D02*
Y75600D01*
X100975Y75450D02*
X101275D01*
X101125Y75300D02*
Y75600D01*
X101050Y74450D02*
X101350D01*
X101200Y74300D02*
Y74600D01*
X100825Y34475D02*
X101125D01*
X100975Y34325D02*
Y34625D01*
X101175Y73100D02*
X101475D01*
X101325Y72950D02*
Y73250D01*
X101975Y92875D02*
X102275D01*
X102125Y92725D02*
Y93025D01*
X102975Y93375D02*
X103275D01*
X103125Y93225D02*
Y93525D01*
X101900Y96350D02*
X102200D01*
X102050Y96200D02*
Y96500D01*
X117738Y34388D02*
X118037D01*
X117887Y34237D02*
Y34537D01*
X100925Y33250D02*
X101225D01*
X101075Y33100D02*
Y33400D01*
X117200Y33500D02*
X117500D01*
X117350Y33350D02*
Y33650D01*
X103500Y30025D02*
X103800D01*
X103650Y29875D02*
Y30175D01*
X104325Y30700D02*
X104625D01*
X104475Y30550D02*
Y30850D01*
X109325Y31575D02*
X109625D01*
X109475Y31425D02*
Y31725D01*
X110325Y32125D02*
X110625D01*
X110475Y31975D02*
Y32275D01*
X111325Y31550D02*
X111625D01*
X111475Y31400D02*
Y31700D01*
X221100Y57575D02*
X221200D01*
X221150Y57525D02*
Y57625D01*
X195625Y60500D02*
X195925D01*
X195775Y60350D02*
Y60650D01*
X194100Y61350D02*
X194400D01*
X194250Y61200D02*
Y61500D01*
X194950Y62000D02*
X195250D01*
X195100Y61850D02*
Y62150D01*
X201100Y61575D02*
X201200D01*
X201150Y61525D02*
Y61625D01*
X212734Y68775D02*
X213034D01*
X212884Y68625D02*
Y68925D01*
X211637Y68738D02*
X211938D01*
X211788Y68588D02*
Y68887D01*
X85825Y61625D02*
X86125D01*
X85975Y61475D02*
Y61775D01*
X199275Y72125D02*
X199575D01*
X199425Y71975D02*
Y72275D01*
X197500Y70000D02*
X197800D01*
X197650Y69850D02*
Y70150D01*
X196675Y50628D02*
X196975D01*
X196825Y50478D02*
Y50778D01*
X193403Y51887D02*
X193703D01*
X193553Y51737D02*
Y52037D01*
X193403Y53850D02*
X193703D01*
X193553Y53700D02*
Y54000D01*
X196725Y60297D02*
X197025D01*
X196875Y60147D02*
Y60447D01*
X197007Y62903D02*
X197307D01*
X197157Y62753D02*
Y63053D01*
X195207Y62903D02*
X195507D01*
X195357Y62753D02*
Y63053D01*
X195207Y67922D02*
X195507D01*
X195357Y67772D02*
Y68072D01*
X207525Y72247D02*
X207825D01*
X207675Y72097D02*
Y72397D01*
X205450Y72300D02*
X205750D01*
X205600Y72150D02*
Y72450D01*
X224275Y72375D02*
X224575D01*
X224425Y72225D02*
Y72525D01*
X140575Y74325D02*
X140875D01*
X140725Y74175D02*
Y74475D01*
X137250Y74100D02*
X137550D01*
X137400Y73950D02*
Y74250D01*
X140575Y72600D02*
X140875D01*
X140725Y72450D02*
Y72750D01*
X143125Y72600D02*
X143425D01*
X143275Y72450D02*
Y72750D01*
X143125Y73900D02*
X143425D01*
X143275Y73750D02*
Y74050D01*
X79686Y82725D02*
X79986D01*
X79836Y82575D02*
Y82875D01*
X51675Y82975D02*
X51975D01*
X51825Y82825D02*
Y83125D01*
X102325Y98375D02*
X102625D01*
X102475Y98225D02*
Y98525D01*
X101779Y99950D02*
X102079D01*
X101929Y99800D02*
Y100100D01*
X101425Y101675D02*
X101725D01*
X101575Y101525D02*
Y101825D01*
X206700Y65575D02*
X206800D01*
X206750Y65525D02*
Y65625D01*
X203150Y79402D02*
X203450D01*
X203300Y79252D02*
Y79552D01*
X202000Y80425D02*
X202300D01*
X202150Y80275D02*
Y80575D01*
X195125Y78925D02*
X195425D01*
X195275Y78775D02*
Y79075D01*
X195125Y79950D02*
X195425D01*
X195275Y79800D02*
Y80100D01*
X226900Y74675D02*
X227000D01*
X226950Y74625D02*
Y74725D01*
X201900Y65575D02*
X202000D01*
X201950Y65525D02*
Y65625D01*
X226900Y75475D02*
X227000D01*
X226950Y75425D02*
Y75525D01*
X201100Y65575D02*
X201200D01*
X201150Y65525D02*
Y65625D01*
X230500Y74050D02*
X230600D01*
X230550Y74000D02*
Y74100D01*
X201900Y64775D02*
X202000D01*
X201950Y64725D02*
Y64825D01*
X230500Y73250D02*
X230600D01*
X230550Y73200D02*
Y73300D01*
X202700Y64775D02*
X202800D01*
X202750Y64725D02*
Y64825D01*
X241915Y58695D02*
X242015D01*
X241965Y58645D02*
Y58745D01*
X241915Y57425D02*
X242015D01*
X241965Y57375D02*
Y57475D01*
X228675Y77850D02*
X228775D01*
X228725Y77800D02*
Y77900D01*
X201900Y63975D02*
X202000D01*
X201950Y63925D02*
Y64025D01*
X228675Y78650D02*
X228775D01*
X228725Y78600D02*
Y78700D01*
X201100Y63975D02*
X201200D01*
X201150Y63925D02*
Y64025D01*
X229425Y45275D02*
X229525D01*
X229475Y45225D02*
Y45325D01*
X202700Y59175D02*
X202800D01*
X202750Y59125D02*
Y59225D01*
X229425Y46075D02*
X229525D01*
X229475Y46025D02*
Y46125D01*
X201900Y59175D02*
X202000D01*
X201950Y59125D02*
Y59225D01*
X202700Y63175D02*
X202800D01*
X202750Y63125D02*
Y63225D01*
X229450Y49400D02*
X229550D01*
X229500Y49350D02*
Y49450D01*
X201900Y63175D02*
X202000D01*
X201950Y63125D02*
Y63225D01*
X229450Y48600D02*
X229550D01*
X229500Y48550D02*
Y48650D01*
X241915Y51075D02*
X242015D01*
X241965Y51025D02*
Y51125D01*
X243185Y53615D02*
X243285D01*
X243235Y53565D02*
Y53665D01*
X243185Y54885D02*
X243285D01*
X243235Y54835D02*
Y54935D01*
X202700Y58375D02*
X202800D01*
X202750Y58325D02*
Y58425D01*
X201900Y58375D02*
X202000D01*
X201950Y58325D02*
Y58425D01*
X240645Y47265D02*
X240745D01*
X240695Y47215D02*
Y47315D01*
X240645Y48535D02*
X240745D01*
X240695Y48485D02*
Y48585D01*
X201100Y60775D02*
X201200D01*
X201150Y60725D02*
Y60825D01*
X224825Y37325D02*
X224925D01*
X224875Y37275D02*
Y37375D01*
X201900Y60775D02*
X202000D01*
X201950Y60725D02*
Y60825D01*
X224825Y38125D02*
X224925D01*
X224875Y38075D02*
Y38175D01*
X240645Y53615D02*
X240745D01*
X240695Y53565D02*
Y53665D01*
X240645Y52345D02*
X240745D01*
X240695Y52295D02*
Y52395D01*
X229325Y35625D02*
X229425D01*
X229375Y35575D02*
Y35675D01*
X229325Y34825D02*
X229425D01*
X229375Y34775D02*
Y34875D01*
X201900Y61575D02*
X202000D01*
X201950Y61525D02*
Y61625D01*
X241915Y49805D02*
X242015D01*
X241965Y49755D02*
Y49855D01*
X243185Y40915D02*
X243285D01*
X243235Y40865D02*
Y40965D01*
X243185Y42185D02*
X243285D01*
X243235Y42135D02*
Y42235D01*
X241915Y44725D02*
X242015D01*
X241965Y44675D02*
Y44775D01*
X241915Y43455D02*
X242015D01*
X241965Y43405D02*
Y43505D01*
X229425Y42750D02*
X229525D01*
X229475Y42700D02*
Y42800D01*
X229425Y41950D02*
X229525D01*
X229475Y41900D02*
Y42000D01*
X136975Y75200D02*
X137275D01*
X137125Y75050D02*
Y75350D01*
X151625Y70625D02*
X151925D01*
X151775Y70475D02*
Y70775D01*
X151725Y75200D02*
X152025D01*
X151875Y75050D02*
Y75350D01*
X130025Y69125D02*
X130325D01*
X130175Y68975D02*
Y69275D01*
X135950Y73250D02*
X136250D01*
X136100Y73100D02*
Y73400D01*
X128325Y65187D02*
X128625D01*
X128475Y65037D02*
Y65337D01*
X24375Y18275D02*
X24675D01*
X24525Y18125D02*
Y18425D01*
X69556Y41373D02*
X69856D01*
X69706Y41223D02*
Y41523D01*
X56225Y39550D02*
X56525D01*
X56375Y39400D02*
Y39700D01*
X89800Y28325D02*
X90100D01*
X89950Y28175D02*
Y28475D01*
X240645Y57425D02*
X240745D01*
X240695Y57375D02*
Y57475D01*
X240645Y56155D02*
X240745D01*
X240695Y56105D02*
Y56205D01*
X241915Y61235D02*
X242015D01*
X241965Y61185D02*
Y61285D01*
X241915Y59965D02*
X242015D01*
X241965Y59915D02*
Y60015D01*
X235025Y34850D02*
X235125D01*
X235075Y34800D02*
Y34900D01*
X240645Y38375D02*
X240745D01*
X240695Y38325D02*
Y38425D01*
X235025Y35650D02*
X235125D01*
X235075Y35600D02*
Y35700D01*
X240645Y39645D02*
X240745D01*
X240695Y39595D02*
Y39695D01*
X204300Y64775D02*
X204400D01*
X204350Y64725D02*
Y64825D01*
X215500Y65575D02*
X215600D01*
X215550Y65525D02*
Y65625D01*
X213900Y65575D02*
X214000D01*
X213950Y65525D02*
Y65625D01*
X212300Y65575D02*
X212400D01*
X212350Y65525D02*
Y65625D01*
X209900Y65575D02*
X210000D01*
X209950Y65525D02*
Y65625D01*
X128325Y56600D02*
X128625D01*
X128475Y56450D02*
Y56750D01*
X144975Y83000D02*
X145275D01*
X145125Y82850D02*
Y83150D01*
X148750Y83000D02*
X149050D01*
X148900Y82850D02*
Y83150D01*
X185925Y103300D02*
X186225D01*
X186075Y103150D02*
Y103450D01*
X106825Y112100D02*
X107125D01*
X106975Y111950D02*
Y112250D01*
X104750Y113775D02*
X105050D01*
X104900Y113625D02*
Y113925D01*
X105850Y114750D02*
X106150D01*
X106000Y114600D02*
Y114900D01*
X103075Y116475D02*
X103375D01*
X103225Y116325D02*
Y116625D01*
X101700Y115600D02*
X102000D01*
X101850Y115450D02*
Y115750D01*
X99600Y117525D02*
X99900D01*
X99750Y117375D02*
Y117675D01*
X100575Y118275D02*
X100875D01*
X100725Y118125D02*
Y118425D01*
X190475Y111450D02*
X190775D01*
X190625Y111300D02*
Y111600D01*
X191400Y112275D02*
X191700D01*
X191550Y112125D02*
Y112425D01*
X223625Y116200D02*
X223925D01*
X223775Y116050D02*
Y116350D01*
X211950Y113025D02*
X212250D01*
X212100Y112875D02*
Y113175D01*
X213675Y112150D02*
X213975D01*
X213825Y112000D02*
Y112300D01*
X215150Y114525D02*
X215450D01*
X215300Y114375D02*
Y114675D01*
X218200Y115875D02*
X218500D01*
X218350Y115725D02*
Y116025D01*
X187350Y104300D02*
X187650D01*
X187500Y104150D02*
Y104450D01*
X188500Y105100D02*
X188800D01*
X188650Y104950D02*
Y105250D01*
X189000Y106375D02*
X189300D01*
X189150Y106225D02*
Y106525D01*
X189475Y107650D02*
X189775D01*
X189625Y107500D02*
Y107800D01*
X189700Y109150D02*
X190000D01*
X189850Y109000D02*
Y109300D01*
X222825Y117400D02*
X223125D01*
X222975Y117250D02*
Y117550D01*
X221100Y115050D02*
X221400D01*
X221250Y114900D02*
Y115200D01*
X217250Y113300D02*
X217550D01*
X217400Y113150D02*
Y113450D01*
X68186Y65339D02*
X68486D01*
X68336Y65189D02*
Y65489D01*
X211400Y92625D02*
X211700D01*
X211550Y92475D02*
Y92775D01*
X210375Y92450D02*
X210675D01*
X210525Y92300D02*
Y92600D01*
X60600Y82100D02*
X60900D01*
X60750Y81950D02*
Y82250D01*
X71975Y82825D02*
X72275D01*
X72125Y82675D02*
Y82975D01*
X200225Y56100D02*
X200525D01*
X200375Y55950D02*
Y56250D01*
X212300Y64775D02*
X212400D01*
X212350Y64725D02*
Y64825D01*
X212300Y63975D02*
X212400D01*
X212350Y63925D02*
Y64025D01*
X214700Y63975D02*
X214800D01*
X214750Y63925D02*
Y64025D01*
X215500Y63975D02*
X215600D01*
X215550Y63925D02*
Y64025D01*
X217900Y63975D02*
X218000D01*
X217950Y63925D02*
Y64025D01*
X218700Y63975D02*
X218800D01*
X218750Y63925D02*
Y64025D01*
X219500Y63975D02*
X219600D01*
X219550Y63925D02*
Y64025D01*
X220300Y63975D02*
X220400D01*
X220350Y63925D02*
Y64025D01*
X220300Y63175D02*
X220400D01*
X220350Y63125D02*
Y63225D01*
X219500Y63175D02*
X219600D01*
X219550Y63125D02*
Y63225D01*
X218700Y63175D02*
X218800D01*
X218750Y63125D02*
Y63225D01*
X217900Y63175D02*
X218000D01*
X217950Y63125D02*
Y63225D01*
X217100Y63175D02*
X217200D01*
X217150Y63125D02*
Y63225D01*
X215500Y63175D02*
X215600D01*
X215550Y63125D02*
Y63225D01*
X214700Y63175D02*
X214800D01*
X214750Y63125D02*
Y63225D01*
X212300Y63175D02*
X212400D01*
X212350Y63125D02*
Y63225D01*
X212300Y62375D02*
X212400D01*
X212350Y62325D02*
Y62425D01*
X214700Y62375D02*
X214800D01*
X214750Y62325D02*
Y62425D01*
X215500Y62375D02*
X215600D01*
X215550Y62325D02*
Y62425D01*
X217100Y62375D02*
X217200D01*
X217150Y62325D02*
Y62425D01*
X217900Y62375D02*
X218000D01*
X217950Y62325D02*
Y62425D01*
X218700Y62375D02*
X218800D01*
X218750Y62325D02*
Y62425D01*
X219500Y62375D02*
X219600D01*
X219550Y62325D02*
Y62425D01*
X220300Y62375D02*
X220400D01*
X220350Y62325D02*
Y62425D01*
X212300Y61575D02*
X212400D01*
X212350Y61525D02*
Y61625D01*
X214700Y61575D02*
X214800D01*
X214750Y61525D02*
Y61625D01*
X215500Y61575D02*
X215600D01*
X215550Y61525D02*
Y61625D01*
X217100Y61575D02*
X217200D01*
X217150Y61525D02*
Y61625D01*
X217900Y61575D02*
X218000D01*
X217950Y61525D02*
Y61625D01*
X218700Y61575D02*
X218800D01*
X218750Y61525D02*
Y61625D01*
X219500Y61575D02*
X219600D01*
X219550Y61525D02*
Y61625D01*
X111825Y103875D02*
X112125D01*
X111975Y103725D02*
Y104025D01*
X115300Y106250D02*
X115600D01*
X115450Y106100D02*
Y106400D01*
X110825Y103875D02*
X111125D01*
X110975Y103725D02*
Y104025D01*
X109325Y103875D02*
X109625D01*
X109475Y103725D02*
Y104025D01*
X110675Y109750D02*
X110975D01*
X110825Y109600D02*
Y109900D01*
X104225Y108400D02*
X104525D01*
X104375Y108250D02*
Y108550D01*
X104225Y106250D02*
X104525D01*
X104375Y106100D02*
Y106400D01*
X126100Y108400D02*
X126400D01*
X126250Y108250D02*
Y108550D01*
X134400Y109875D02*
X134700D01*
X134550Y109725D02*
Y110025D01*
X130900Y109850D02*
X131200D01*
X131050Y109700D02*
Y110000D01*
X153525Y108375D02*
X153825D01*
X153675Y108225D02*
Y108525D01*
X158475Y109850D02*
X158775D01*
X158625Y109700D02*
Y110000D01*
X163800Y109850D02*
X164100D01*
X163950Y109700D02*
Y110000D01*
X173900Y109850D02*
X174200D01*
X174050Y109700D02*
Y110000D01*
X177325Y109850D02*
X177625D01*
X177475Y109700D02*
Y110000D01*
X182550Y109850D02*
X182850D01*
X182700Y109700D02*
Y110000D01*
X172600Y61925D02*
X172900D01*
X172750Y61775D02*
Y62075D01*
X172600Y59800D02*
X172900D01*
X172750Y59650D02*
Y59950D01*
X161125Y63225D02*
X161425D01*
X161275Y63075D02*
Y63375D01*
X157750Y63225D02*
X158050D01*
X157900Y63075D02*
Y63375D01*
X153075Y59800D02*
X153375D01*
X153225Y59650D02*
Y59950D01*
X124900Y61925D02*
X125200D01*
X125050Y61775D02*
Y62075D01*
X124950Y59800D02*
X125250D01*
X125100Y59650D02*
Y59950D01*
X113350Y63225D02*
X113650D01*
X113500Y63075D02*
Y63375D01*
X110062Y63225D02*
X110362D01*
X110212Y63075D02*
Y63375D01*
X230275Y65750D02*
X230575D01*
X230425Y65600D02*
Y65900D01*
X223950Y57250D02*
X224250D01*
X224100Y57100D02*
Y57400D01*
X19475Y53925D02*
X19775D01*
X19625Y53775D02*
Y54075D01*
X22925Y55800D02*
X23225D01*
X23075Y55650D02*
Y55950D01*
X28800Y56525D02*
X29100D01*
X28950Y56375D02*
Y56675D01*
X72211Y69150D02*
X72511D01*
X72361Y69000D02*
Y69300D01*
X74361Y69150D02*
X74661D01*
X74511Y69000D02*
Y69300D01*
X79836Y70200D02*
X80136D01*
X79986Y70050D02*
Y70350D01*
X79836Y72225D02*
X80136D01*
X79986Y72075D02*
Y72375D01*
X70336Y69575D02*
X70636D01*
X70486Y69425D02*
Y69725D01*
X75575Y75450D02*
X75875D01*
X75725Y75300D02*
Y75600D01*
X70336Y74950D02*
X70636D01*
X70486Y74800D02*
Y75100D01*
X80025Y78400D02*
X80325D01*
X80175Y78250D02*
Y78550D01*
X204175Y72250D02*
X204475D01*
X204325Y72100D02*
Y72400D01*
X212300Y60775D02*
X212400D01*
X212350Y60725D02*
Y60825D01*
X214700Y60775D02*
X214800D01*
X214750Y60725D02*
Y60825D01*
X215500Y60775D02*
X215600D01*
X215550Y60725D02*
Y60825D01*
X217100Y60775D02*
X217200D01*
X217150Y60725D02*
Y60825D01*
X217900Y60775D02*
X218000D01*
X217950Y60725D02*
Y60825D01*
X218700Y60775D02*
X218800D01*
X218750Y60725D02*
Y60825D01*
X219500Y60775D02*
X219600D01*
X219550Y60725D02*
Y60825D01*
X220300Y60775D02*
X220400D01*
X220350Y60725D02*
Y60825D01*
X220300Y61575D02*
X220400D01*
X220350Y61525D02*
Y61625D01*
X221100Y61575D02*
X221200D01*
X221150Y61525D02*
Y61625D01*
X221100Y62375D02*
X221200D01*
X221150Y62325D02*
Y62425D01*
X220300Y59975D02*
X220400D01*
X220350Y59925D02*
Y60025D01*
X219500Y59975D02*
X219600D01*
X219550Y59925D02*
Y60025D01*
X218700Y59975D02*
X218800D01*
X218750Y59925D02*
Y60025D01*
X217900Y59975D02*
X218000D01*
X217950Y59925D02*
Y60025D01*
X214700Y59975D02*
X214800D01*
X214750Y59925D02*
Y60025D01*
X212300Y59975D02*
X212400D01*
X212350Y59925D02*
Y60025D01*
X209900Y59975D02*
X210000D01*
X209950Y59925D02*
Y60025D01*
X209900Y60775D02*
X210000D01*
X209950Y60725D02*
Y60825D01*
X209100Y60775D02*
X209200D01*
X209150Y60725D02*
Y60825D01*
X208300Y60775D02*
X208400D01*
X208350Y60725D02*
Y60825D01*
X208300Y61575D02*
X208400D01*
X208350Y61525D02*
Y61625D01*
X209100Y61575D02*
X209200D01*
X209150Y61525D02*
Y61625D01*
X209100Y62375D02*
X209200D01*
X209150Y62325D02*
Y62425D01*
X208300Y62375D02*
X208400D01*
X208350Y62325D02*
Y62425D01*
X205900Y62375D02*
X206000D01*
X205950Y62325D02*
Y62425D01*
X205100Y62375D02*
X205200D01*
X205150Y62325D02*
Y62425D01*
X205900Y61575D02*
X206000D01*
X205950Y61525D02*
Y61625D01*
X205100Y63175D02*
X205200D01*
X205150Y63125D02*
Y63225D01*
X205900Y63175D02*
X206000D01*
X205950Y63125D02*
Y63225D01*
X208300Y63175D02*
X208400D01*
X208350Y63125D02*
Y63225D01*
X209100Y63175D02*
X209200D01*
X209150Y63125D02*
Y63225D01*
X209900Y63175D02*
X210000D01*
X209950Y63125D02*
Y63225D01*
X209900Y63975D02*
X210000D01*
X209950Y63925D02*
Y64025D01*
X209100Y63975D02*
X209200D01*
X209150Y63925D02*
Y64025D01*
X208300Y63975D02*
X208400D01*
X208350Y63925D02*
Y64025D01*
X205900Y63975D02*
X206000D01*
X205950Y63925D02*
Y64025D01*
X205100Y63975D02*
X205200D01*
X205150Y63925D02*
Y64025D01*
X204300Y63975D02*
X204400D01*
X204350Y63925D02*
Y64025D01*
X220300Y59175D02*
X220400D01*
X220350Y59125D02*
Y59225D01*
X219500Y59175D02*
X219600D01*
X219550Y59125D02*
Y59225D01*
X218700Y59175D02*
X218800D01*
X218750Y59125D02*
Y59225D01*
X217900Y59175D02*
X218000D01*
X217950Y59125D02*
Y59225D01*
X214700Y59175D02*
X214800D01*
X214750Y59125D02*
Y59225D01*
X212300Y59175D02*
X212400D01*
X212350Y59125D02*
Y59225D01*
X209900Y59175D02*
X210000D01*
X209950Y59125D02*
Y59225D01*
X209100Y59175D02*
X209200D01*
X209150Y59125D02*
Y59225D01*
X209100Y59975D02*
X209200D01*
X209150Y59925D02*
Y60025D01*
X208300Y59975D02*
X208400D01*
X208350Y59925D02*
Y60025D01*
X205900Y59175D02*
X206000D01*
X205950Y59125D02*
Y59225D01*
X208300Y59175D02*
X208400D01*
X208350Y59125D02*
Y59225D01*
X212300Y58375D02*
X212400D01*
X212350Y58325D02*
Y58425D01*
X221100Y65575D02*
X221200D01*
X221150Y65525D02*
Y65625D01*
X220300Y65575D02*
X220400D01*
X220350Y65525D02*
Y65625D01*
X175700Y109850D02*
X176000D01*
X175850Y109700D02*
Y110000D01*
X180750Y109850D02*
X181050D01*
X180900Y109700D02*
Y110000D01*
X162000Y109850D02*
X162300D01*
X162150Y109700D02*
Y110000D01*
X156775Y109850D02*
X157075D01*
X156925Y109700D02*
Y110000D01*
X137600Y108375D02*
X137900D01*
X137750Y108225D02*
Y108525D01*
X129325Y109850D02*
X129625D01*
X129475Y109700D02*
Y110000D01*
X115350Y63325D02*
X115650D01*
X115500Y63175D02*
Y63475D01*
X131350Y63275D02*
X131650D01*
X131500Y63125D02*
Y63425D01*
X159550Y63325D02*
X159850D01*
X159700Y63175D02*
Y63475D01*
X156175Y63325D02*
X156475D01*
X156325Y63175D02*
Y63475D01*
X175700Y63325D02*
X176000D01*
X175850Y63175D02*
Y63475D01*
X104850Y12400D02*
X105150D01*
X105000Y12250D02*
Y12550D01*
X105925Y12150D02*
X106225D01*
X106075Y12000D02*
Y12300D01*
X107200Y12150D02*
X107500D01*
X107350Y12000D02*
Y12300D01*
X101050Y65725D02*
X101350D01*
X101200Y65575D02*
Y65875D01*
X108975Y12475D02*
X109275D01*
X109125Y12325D02*
Y12625D01*
X101025Y64325D02*
X101325D01*
X101175Y64175D02*
Y64475D01*
X106050Y15650D02*
X106350D01*
X106200Y15500D02*
Y15800D01*
X123100Y86150D02*
X123400D01*
X123250Y86000D02*
Y86300D01*
X129325Y87675D02*
X129625D01*
X129475Y87525D02*
Y87825D01*
X121150Y86075D02*
X121450D01*
X121300Y85925D02*
Y86225D01*
X104325Y25150D02*
X104625D01*
X104475Y25000D02*
Y25300D01*
X105850Y16975D02*
X106150D01*
X106000Y16825D02*
Y17125D01*
X105775Y18250D02*
X106075D01*
X105925Y18100D02*
Y18400D01*
X109325Y73100D02*
X109625D01*
X109475Y72950D02*
Y73250D01*
X101025Y61000D02*
X101325D01*
X101175Y60850D02*
Y61150D01*
X101025Y62200D02*
X101325D01*
X101175Y62050D02*
Y62350D01*
X112950Y17350D02*
X113250D01*
X113100Y17200D02*
Y17500D01*
X103500Y26200D02*
X103800D01*
X103650Y26050D02*
Y26350D01*
X102625Y27125D02*
X102925D01*
X102775Y26975D02*
Y27275D01*
X102625Y29250D02*
X102925D01*
X102775Y29100D02*
Y29400D01*
X101575Y58800D02*
X101875D01*
X101725Y58650D02*
Y58950D01*
X127225Y84100D02*
X127525D01*
X127375Y83950D02*
Y84250D01*
X127250Y79425D02*
X127550D01*
X127400Y79275D02*
Y79575D01*
X101700Y57750D02*
X102000D01*
X101850Y57600D02*
Y57900D01*
X101175Y59850D02*
X101475D01*
X101325Y59700D02*
Y60000D01*
X125475Y80300D02*
X125775D01*
X125625Y80150D02*
Y80450D01*
X126150Y79575D02*
X126450D01*
X126300Y79425D02*
Y79725D01*
X128350Y79175D02*
X128650D01*
X128500Y79025D02*
Y79325D01*
X101750Y56625D02*
X102050D01*
X101900Y56475D02*
Y56775D01*
X129663Y79113D02*
X129962D01*
X129812Y78963D02*
Y79262D01*
X129637Y84037D02*
X129938D01*
X129788Y83887D02*
Y84188D01*
X110300Y22300D02*
X110600D01*
X110450Y22150D02*
Y22450D01*
X111000Y21375D02*
X111300D01*
X111150Y21225D02*
Y21525D01*
X112025Y20750D02*
X112325D01*
X112175Y20600D02*
Y20900D01*
X108875Y20400D02*
X109175D01*
X109025Y20250D02*
Y20550D01*
X108050Y21225D02*
X108350D01*
X108200Y21075D02*
Y21375D01*
X107292Y22050D02*
X107592D01*
X107442Y21900D02*
Y22200D01*
X109075Y22350D02*
X109375D01*
X109225Y22200D02*
Y22500D01*
X106675Y58500D02*
X106975D01*
X106825Y58350D02*
Y58650D01*
X136950Y79450D02*
X137250D01*
X137100Y79300D02*
Y79600D01*
X136900Y83700D02*
X137200D01*
X137050Y83550D02*
Y83850D01*
X137225Y78400D02*
X137525D01*
X137375Y78250D02*
Y78550D01*
X172700Y89525D02*
X173000D01*
X172850Y89375D02*
Y89675D01*
X171736Y89575D02*
X172036D01*
X171886Y89425D02*
Y89725D01*
X170750Y89525D02*
X171050D01*
X170900Y89375D02*
Y89675D01*
X186000Y44575D02*
X186300D01*
X186150Y44425D02*
Y44725D01*
X185050Y45300D02*
X185350D01*
X185200Y45150D02*
Y45450D01*
X184375Y46250D02*
X184675D01*
X184525Y46100D02*
Y46400D01*
X180325Y57900D02*
X180625D01*
X180475Y57750D02*
Y58050D01*
X171175Y13875D02*
X171475D01*
X171325Y13725D02*
Y14025D01*
X175150Y64625D02*
X175450D01*
X175300Y64475D02*
Y64775D01*
X168175Y63125D02*
X168475D01*
X168325Y62975D02*
Y63275D01*
X171736Y15050D02*
X172036D01*
X171886Y14900D02*
Y15200D01*
X167400Y64075D02*
X167700D01*
X167550Y63925D02*
Y64225D01*
X173750Y64650D02*
X174050D01*
X173900Y64500D02*
Y64800D01*
X173825Y22850D02*
X174125D01*
X173975Y22700D02*
Y23000D01*
X173150Y65550D02*
X173450D01*
X173300Y65400D02*
Y65700D01*
X171575Y17454D02*
X171875D01*
X171725Y17304D02*
Y17604D01*
X171600Y16225D02*
X171900D01*
X171750Y16075D02*
Y16375D01*
X166675Y65025D02*
X166975D01*
X166825Y64875D02*
Y65175D01*
X165950Y65802D02*
X166250D01*
X166100Y65652D02*
Y65952D01*
X171125Y70175D02*
X171425D01*
X171275Y70025D02*
Y70325D01*
X173600Y18800D02*
X173900D01*
X173750Y18650D02*
Y18950D01*
X174725Y18825D02*
X175025D01*
X174875Y18675D02*
Y18975D01*
X170825Y12850D02*
X171125D01*
X170975Y12700D02*
Y13000D01*
X170025Y12000D02*
X170325D01*
X170175Y11850D02*
Y12150D01*
X169150Y11350D02*
X169450D01*
X169300Y11200D02*
Y11500D01*
X180488Y15025D02*
X180788D01*
X180638Y14875D02*
Y15175D01*
X164850Y75925D02*
X165150D01*
X165000Y75775D02*
Y76075D01*
X164850Y69350D02*
X165150D01*
X165000Y69200D02*
Y69500D01*
X179650Y14525D02*
X179950D01*
X179800Y14375D02*
Y14675D01*
X163700Y69375D02*
X164000D01*
X163850Y69225D02*
Y69525D01*
X163700Y75950D02*
X164000D01*
X163850Y75800D02*
Y76100D01*
X178675Y14550D02*
X178975D01*
X178825Y14400D02*
Y14700D01*
X162500Y69325D02*
X162800D01*
X162650Y69175D02*
Y69475D01*
X162500Y75900D02*
X162800D01*
X162650Y75750D02*
Y76050D01*
X174950Y31025D02*
X175250D01*
X175100Y30875D02*
Y31175D01*
X176400Y30950D02*
X176700D01*
X176550Y30800D02*
Y31100D01*
X177675Y31050D02*
X177975D01*
X177825Y30900D02*
Y31200D01*
X149850Y38350D02*
X150150D01*
X150000Y38200D02*
Y38500D01*
X167150Y45100D02*
X167450D01*
X167300Y44950D02*
Y45250D01*
X166525Y44275D02*
X166825D01*
X166675Y44125D02*
Y44425D01*
X165250Y44400D02*
X165550D01*
X165400Y44250D02*
Y44550D01*
X166250Y42950D02*
X166550D01*
X166400Y42800D02*
Y43100D01*
X167650Y42175D02*
X167950D01*
X167800Y42025D02*
Y42325D01*
X177825Y15450D02*
X178125D01*
X177975Y15300D02*
Y15600D01*
X150600Y37500D02*
X150900D01*
X150750Y37350D02*
Y37650D01*
X149100Y39200D02*
X149400D01*
X149250Y39050D02*
Y39350D01*
X175550Y19502D02*
X175850D01*
X175700Y19352D02*
Y19652D01*
X176350Y20200D02*
X176650D01*
X176500Y20050D02*
Y20350D01*
X176625Y16725D02*
X176925D01*
X176775Y16575D02*
Y16875D01*
X147250Y42675D02*
X147550D01*
X147400Y42525D02*
Y42825D01*
X146250Y42550D02*
X146550D01*
X146400Y42400D02*
Y42700D01*
X145375Y42175D02*
X145675D01*
X145525Y42025D02*
Y42325D01*
X153825Y76775D02*
X154125D01*
X153975Y76625D02*
Y76925D01*
X155825Y76775D02*
X156125D01*
X155975Y76625D02*
Y76925D01*
X154825Y76325D02*
X155125D01*
X154975Y76175D02*
Y76475D01*
X172225Y23200D02*
X172525D01*
X172375Y23050D02*
Y23350D01*
X187025Y21125D02*
X187325D01*
X187175Y20975D02*
Y21275D01*
X186075Y20400D02*
X186375D01*
X186225Y20250D02*
Y20550D01*
X186075Y29725D02*
X186375D01*
X186225Y29575D02*
Y29875D01*
X185159Y20176D02*
X185459D01*
X185309Y20026D02*
Y20326D01*
X185159Y30291D02*
X185459D01*
X185309Y30141D02*
Y30441D01*
X181625Y18675D02*
X181925D01*
X181775Y18525D02*
Y18825D01*
X180675Y18700D02*
X180975D01*
X180825Y18550D02*
Y18850D01*
X177925Y16625D02*
X178225D01*
X178075Y16475D02*
Y16775D01*
X168875Y31850D02*
X169175D01*
X169025Y31700D02*
Y32000D01*
X168150Y32725D02*
X168450D01*
X168300Y32575D02*
Y32875D01*
X158850Y35350D02*
X159150D01*
X159000Y35200D02*
Y35500D01*
X157825Y36000D02*
X158125D01*
X157975Y35850D02*
Y36150D01*
X164075Y33800D02*
X164375D01*
X164225Y33650D02*
Y33950D01*
X163325Y34575D02*
X163625D01*
X163475Y34425D02*
Y34725D01*
X156825Y36800D02*
X157125D01*
X156975Y36650D02*
Y36950D01*
X171700Y37740D02*
X172000D01*
X171850Y37590D02*
Y37890D01*
X178625Y23075D02*
X178925D01*
X178775Y22925D02*
Y23225D01*
X177675Y23000D02*
X177975D01*
X177825Y22850D02*
Y23150D01*
X144675Y41375D02*
X144975D01*
X144825Y41225D02*
Y41525D01*
X143825Y40925D02*
X144125D01*
X143975Y40775D02*
Y41075D01*
X152000Y62700D02*
X152300D01*
X152150Y62550D02*
Y62850D01*
X150825Y63175D02*
X151125D01*
X150975Y63025D02*
Y63325D01*
X143450Y62925D02*
X143750D01*
X143600Y62775D02*
Y63075D01*
X142675Y61650D02*
X142975D01*
X142825Y61500D02*
Y61800D01*
X156325Y101000D02*
X156625D01*
X156475Y100850D02*
Y101150D01*
X108825Y53375D02*
X109125D01*
X108975Y53225D02*
Y53525D01*
X169150Y53615D02*
X169450D01*
X169300Y53465D02*
Y53765D01*
X156325Y53375D02*
X156625D01*
X156475Y53225D02*
Y53525D01*
X12250Y111775D02*
X12550D01*
X12400Y111625D02*
Y111925D01*
X12250Y109275D02*
X12550D01*
X12400Y109125D02*
Y109425D01*
X12250Y106775D02*
X12550D01*
X12400Y106625D02*
Y106925D01*
X12250Y104275D02*
X12550D01*
X12400Y104125D02*
Y104425D01*
X12250Y101775D02*
X12550D01*
X12400Y101625D02*
Y101925D01*
X12250Y99275D02*
X12550D01*
X12400Y99125D02*
Y99425D01*
X12250Y86775D02*
X12550D01*
X12400Y86625D02*
Y86925D01*
X12250Y89275D02*
X12550D01*
X12400Y89125D02*
Y89425D01*
X12250Y91775D02*
X12550D01*
X12400Y91625D02*
Y91925D01*
X12250Y94275D02*
X12550D01*
X12400Y94125D02*
Y94425D01*
X12250Y96775D02*
X12550D01*
X12400Y96625D02*
Y96925D01*
X14750Y111775D02*
X15050D01*
X14900Y111625D02*
Y111925D01*
X17250Y111775D02*
X17550D01*
X17400Y111625D02*
Y111925D01*
X19750Y111775D02*
X20050D01*
X19900Y111625D02*
Y111925D01*
X22250Y111775D02*
X22550D01*
X22400Y111625D02*
Y111925D01*
X24750Y111775D02*
X25050D01*
X24900Y111625D02*
Y111925D01*
X27250Y111775D02*
X27550D01*
X27400Y111625D02*
Y111925D01*
X14750Y109275D02*
X15050D01*
X14900Y109125D02*
Y109425D01*
X17250Y109275D02*
X17550D01*
X17400Y109125D02*
Y109425D01*
X19750Y109275D02*
X20050D01*
X19900Y109125D02*
Y109425D01*
X22250Y109275D02*
X22550D01*
X22400Y109125D02*
Y109425D01*
X24750Y109275D02*
X25050D01*
X24900Y109125D02*
Y109425D01*
X27250Y109275D02*
X27550D01*
X27400Y109125D02*
Y109425D01*
X14750Y106775D02*
X15050D01*
X14900Y106625D02*
Y106925D01*
X17250Y106775D02*
X17550D01*
X17400Y106625D02*
Y106925D01*
X19750Y106775D02*
X20050D01*
X19900Y106625D02*
Y106925D01*
X22250Y106775D02*
X22550D01*
X22400Y106625D02*
Y106925D01*
X24750Y106775D02*
X25050D01*
X24900Y106625D02*
Y106925D01*
X27250Y106775D02*
X27550D01*
X27400Y106625D02*
Y106925D01*
X14750Y104275D02*
X15050D01*
X14900Y104125D02*
Y104425D01*
X17250Y104275D02*
X17550D01*
X17400Y104125D02*
Y104425D01*
X19750Y104275D02*
X20050D01*
X19900Y104125D02*
Y104425D01*
X22250Y104275D02*
X22550D01*
X22400Y104125D02*
Y104425D01*
X24750Y104275D02*
X25050D01*
X24900Y104125D02*
Y104425D01*
X27250Y104275D02*
X27550D01*
X27400Y104125D02*
Y104425D01*
X14750Y101775D02*
X15050D01*
X14900Y101625D02*
Y101925D01*
X17250Y101775D02*
X17550D01*
X17400Y101625D02*
Y101925D01*
X19750Y101775D02*
X20050D01*
X19900Y101625D02*
Y101925D01*
X22250Y101775D02*
X22550D01*
X22400Y101625D02*
Y101925D01*
X24750Y101775D02*
X25050D01*
X24900Y101625D02*
Y101925D01*
X27250Y101775D02*
X27550D01*
X27400Y101625D02*
Y101925D01*
X14750Y99275D02*
X15050D01*
X14900Y99125D02*
Y99425D01*
X17250Y99275D02*
X17550D01*
X17400Y99125D02*
Y99425D01*
X19750Y99275D02*
X20050D01*
X19900Y99125D02*
Y99425D01*
X22250Y99275D02*
X22550D01*
X22400Y99125D02*
Y99425D01*
X24750Y99275D02*
X25050D01*
X24900Y99125D02*
Y99425D01*
X27250Y99275D02*
X27550D01*
X27400Y99125D02*
Y99425D01*
X14750Y96775D02*
X15050D01*
X14900Y96625D02*
Y96925D01*
X17250Y96775D02*
X17550D01*
X17400Y96625D02*
Y96925D01*
X19750Y96775D02*
X20050D01*
X19900Y96625D02*
Y96925D01*
X22250Y96775D02*
X22550D01*
X22400Y96625D02*
Y96925D01*
X24750Y96775D02*
X25050D01*
X24900Y96625D02*
Y96925D01*
X27250Y96775D02*
X27550D01*
X27400Y96625D02*
Y96925D01*
X14750Y94275D02*
X15050D01*
X14900Y94125D02*
Y94425D01*
X17250Y94275D02*
X17550D01*
X17400Y94125D02*
Y94425D01*
X19750Y94275D02*
X20050D01*
X19900Y94125D02*
Y94425D01*
X22250Y94275D02*
X22550D01*
X22400Y94125D02*
Y94425D01*
X24750Y94275D02*
X25050D01*
X24900Y94125D02*
Y94425D01*
X27250Y94275D02*
X27550D01*
X27400Y94125D02*
Y94425D01*
X14750Y91775D02*
X15050D01*
X14900Y91625D02*
Y91925D01*
X17250Y91775D02*
X17550D01*
X17400Y91625D02*
Y91925D01*
X19750Y91775D02*
X20050D01*
X19900Y91625D02*
Y91925D01*
X22250Y91775D02*
X22550D01*
X22400Y91625D02*
Y91925D01*
X24750Y91775D02*
X25050D01*
X24900Y91625D02*
Y91925D01*
X27250Y91775D02*
X27550D01*
X27400Y91625D02*
Y91925D01*
X14750Y89275D02*
X15050D01*
X14900Y89125D02*
Y89425D01*
X17250Y89275D02*
X17550D01*
X17400Y89125D02*
Y89425D01*
X19750Y89275D02*
X20050D01*
X19900Y89125D02*
Y89425D01*
X22250Y89275D02*
X22550D01*
X22400Y89125D02*
Y89425D01*
X24750Y89275D02*
X25050D01*
X24900Y89125D02*
Y89425D01*
X27250Y89275D02*
X27550D01*
X27400Y89125D02*
Y89425D01*
X14750Y86775D02*
X15050D01*
X14900Y86625D02*
Y86925D01*
X17250Y86775D02*
X17550D01*
X17400Y86625D02*
Y86925D01*
X19750Y86775D02*
X20050D01*
X19900Y86625D02*
Y86925D01*
X22250Y86775D02*
X22550D01*
X22400Y86625D02*
Y86925D01*
X24750Y86775D02*
X25050D01*
X24900Y86625D02*
Y86925D01*
X27250Y86775D02*
X27550D01*
X27400Y86625D02*
Y86925D01*
X225875Y121300D02*
X226175D01*
X226025Y121150D02*
Y121450D01*
X225875Y116300D02*
X226175D01*
X226025Y116150D02*
Y116450D01*
X225875Y113800D02*
X226175D01*
X226025Y113650D02*
Y113950D01*
X225875Y111300D02*
X226175D01*
X226025Y111150D02*
Y111450D01*
X225875Y108800D02*
X226175D01*
X226025Y108650D02*
Y108950D01*
X225875Y118800D02*
X226175D01*
X226025Y118650D02*
Y118950D01*
X230875Y108800D02*
X231175D01*
X231025Y108650D02*
Y108950D01*
X233375Y108800D02*
X233675D01*
X233525Y108650D02*
Y108950D01*
X235875Y108800D02*
X236175D01*
X236025Y108650D02*
Y108950D01*
X238375Y108800D02*
X238675D01*
X238525Y108650D02*
Y108950D01*
X228375Y108800D02*
X228675D01*
X228525Y108650D02*
Y108950D01*
X230875Y111300D02*
X231175D01*
X231025Y111150D02*
Y111450D01*
X233375Y111300D02*
X233675D01*
X233525Y111150D02*
Y111450D01*
X235875Y111300D02*
X236175D01*
X236025Y111150D02*
Y111450D01*
X238375Y111300D02*
X238675D01*
X238525Y111150D02*
Y111450D01*
X228375Y111300D02*
X228675D01*
X228525Y111150D02*
Y111450D01*
X230875Y113800D02*
X231175D01*
X231025Y113650D02*
Y113950D01*
X233375Y113800D02*
X233675D01*
X233525Y113650D02*
Y113950D01*
X235875Y113800D02*
X236175D01*
X236025Y113650D02*
Y113950D01*
X238375Y113800D02*
X238675D01*
X238525Y113650D02*
Y113950D01*
X228375Y113800D02*
X228675D01*
X228525Y113650D02*
Y113950D01*
X230875Y116300D02*
X231175D01*
X231025Y116150D02*
Y116450D01*
X233375Y116300D02*
X233675D01*
X233525Y116150D02*
Y116450D01*
X235875Y116300D02*
X236175D01*
X236025Y116150D02*
Y116450D01*
X238375Y116300D02*
X238675D01*
X238525Y116150D02*
Y116450D01*
X228375Y116300D02*
X228675D01*
X228525Y116150D02*
Y116450D01*
X230875Y118800D02*
X231175D01*
X231025Y118650D02*
Y118950D01*
X233375Y118800D02*
X233675D01*
X233525Y118650D02*
Y118950D01*
X235875Y118800D02*
X236175D01*
X236025Y118650D02*
Y118950D01*
X238375Y118800D02*
X238675D01*
X238525Y118650D02*
Y118950D01*
X228375Y118800D02*
X228675D01*
X228525Y118650D02*
Y118950D01*
X194542Y104750D02*
X194842D01*
X194692Y104600D02*
Y104900D01*
X110008Y58475D02*
X110308D01*
X110158Y58325D02*
Y58625D01*
X221100Y63175D02*
X221200D01*
X221150Y63125D02*
Y63225D01*
X221100Y63975D02*
X221200D01*
X221150Y63925D02*
Y64025D01*
X221100Y64775D02*
X221200D01*
X221150Y64725D02*
Y64825D01*
X211500Y62375D02*
X211600D01*
X211550Y62325D02*
Y62425D01*
X211500Y61575D02*
X211600D01*
X211550Y61525D02*
Y61625D01*
X213900Y64775D02*
X214000D01*
X213950Y64725D02*
Y64825D01*
X213900Y63975D02*
X214000D01*
X213950Y63925D02*
Y64025D01*
X213900Y63175D02*
X214000D01*
X213950Y63125D02*
Y63225D01*
X213900Y62375D02*
X214000D01*
X213950Y62325D02*
Y62425D01*
X213900Y61575D02*
X214000D01*
X213950Y61525D02*
Y61625D01*
X213900Y60775D02*
X214000D01*
X213950Y60725D02*
Y60825D01*
X213900Y59975D02*
X214000D01*
X213950Y59925D02*
Y60025D01*
X213900Y59175D02*
X214000D01*
X213950Y59125D02*
Y59225D01*
X213900Y58375D02*
X214000D01*
X213950Y58325D02*
Y58425D01*
X213500Y56375D02*
X213600D01*
X213550Y56325D02*
Y56425D01*
X212700Y56375D02*
X212800D01*
X212750Y56325D02*
Y56425D01*
X211900Y56375D02*
X212000D01*
X211950Y56325D02*
Y56425D01*
X211100Y56375D02*
X211200D01*
X211150Y56325D02*
Y56425D01*
X210300Y56375D02*
X210400D01*
X210350Y56325D02*
Y56425D01*
X209625Y56375D02*
X209725D01*
X209675Y56325D02*
Y56425D01*
X212300Y57575D02*
X212400D01*
X212350Y57525D02*
Y57625D01*
X210700Y59175D02*
X210800D01*
X210750Y59125D02*
Y59225D01*
X210700Y59975D02*
X210800D01*
X210750Y59925D02*
Y60025D01*
X210700Y63175D02*
X210800D01*
X210750Y63125D02*
Y63225D01*
X210700Y63975D02*
X210800D01*
X210750Y63925D02*
Y64025D01*
X202700Y60775D02*
X202800D01*
X202750Y60725D02*
Y60825D01*
X222700Y64775D02*
X222800D01*
X222750Y64725D02*
Y64825D01*
X222700Y63975D02*
X222800D01*
X222750Y63925D02*
Y64025D01*
X221900Y63975D02*
X222000D01*
X221950Y63925D02*
Y64025D01*
X221900Y64775D02*
X222000D01*
X221950Y64725D02*
Y64825D01*
X221900Y62375D02*
X222000D01*
X221950Y62325D02*
Y62425D01*
X221900Y65575D02*
X222000D01*
X221950Y65525D02*
Y65625D01*
X212500Y55425D02*
X212800D01*
X212650Y55275D02*
Y55575D01*
X214075Y54300D02*
X214375D01*
X214225Y54150D02*
Y54450D01*
X205100Y61575D02*
X205200D01*
X205150Y61525D02*
Y61625D01*
X205100Y60775D02*
X205200D01*
X205150Y60725D02*
Y60825D01*
X204300Y61575D02*
X204400D01*
X204350Y61525D02*
Y61625D01*
X206700Y59975D02*
X206800D01*
X206750Y59925D02*
Y60025D01*
X206700Y59175D02*
X206800D01*
X206750Y59125D02*
Y59225D01*
X205900Y60775D02*
X206000D01*
X205950Y60725D02*
Y60825D01*
X205900Y59975D02*
X206000D01*
X205950Y59925D02*
Y60025D01*
X206700Y60775D02*
X206800D01*
X206750Y60725D02*
Y60825D01*
X206700Y62375D02*
X206800D01*
X206750Y62325D02*
Y62425D01*
X206700Y61575D02*
X206800D01*
X206750Y61525D02*
Y61625D01*
X206700Y63975D02*
X206800D01*
X206750Y63925D02*
Y64025D01*
X206700Y63175D02*
X206800D01*
X206750Y63125D02*
Y63225D01*
X209100Y64775D02*
X209200D01*
X209150Y64725D02*
Y64825D01*
X209900Y64775D02*
X210000D01*
X209950Y64725D02*
Y64825D01*
X210700Y64775D02*
X210800D01*
X210750Y64725D02*
Y64825D01*
X211900Y67397D02*
X212000D01*
X211950Y67347D02*
Y67447D01*
X211100Y67075D02*
X211200D01*
X211150Y67025D02*
Y67125D01*
X210300Y67075D02*
X210400D01*
X210350Y67025D02*
Y67125D01*
X220300Y64775D02*
X220400D01*
X220350Y64725D02*
Y64825D01*
X219500Y64775D02*
X219600D01*
X219550Y64725D02*
Y64825D01*
X218700Y64775D02*
X218800D01*
X218750Y64725D02*
Y64825D01*
X217900Y64775D02*
X218000D01*
X217950Y64725D02*
Y64825D01*
X217100Y64775D02*
X217200D01*
X217150Y64725D02*
Y64825D01*
X217100Y63975D02*
X217200D01*
X217150Y63925D02*
Y64025D01*
X209900Y58375D02*
X210000D01*
X209950Y58325D02*
Y58425D01*
X210700Y58375D02*
X210800D01*
X210750Y58325D02*
Y58425D01*
X211500Y59175D02*
X211600D01*
X211550Y59125D02*
Y59225D01*
X211500Y58375D02*
X211600D01*
X211550Y58325D02*
Y58425D01*
X211500Y59975D02*
X211600D01*
X211550Y59925D02*
Y60025D01*
X211500Y60775D02*
X211600D01*
X211550Y60725D02*
Y60825D01*
X209900Y62375D02*
X210000D01*
X209950Y62325D02*
Y62425D01*
X209900Y61575D02*
X210000D01*
X209950Y61525D02*
Y61625D01*
X208300Y64775D02*
X208400D01*
X208350Y64725D02*
Y64825D01*
X203500Y64775D02*
X203600D01*
X203550Y64725D02*
Y64825D01*
X221100Y60775D02*
X221200D01*
X221150Y60725D02*
Y60825D01*
X221100Y59175D02*
X221200D01*
X221150Y59125D02*
Y59225D01*
X221900Y59975D02*
X222000D01*
X221950Y59925D02*
Y60025D01*
X222700Y59175D02*
X222800D01*
X222750Y59125D02*
Y59225D01*
X221900Y59175D02*
X222000D01*
X221950Y59125D02*
Y59225D01*
X222700Y58375D02*
X222800D01*
X222750Y58325D02*
Y58425D01*
X214700Y64775D02*
X214800D01*
X214750Y64725D02*
Y64825D01*
X215500Y64775D02*
X215600D01*
X215550Y64725D02*
Y64825D01*
M02*
